<svg width="16" height="16" viewBox="0 0 16 16" fill="none" xmlns="http://www.w3.org/2000/svg">
<path d="M2.14644 10.1465C1.95118 10.3417 1.95119 10.6583 2.14644 10.8535L5.14644 13.8535L5.22457 13.918C5.41865 14.0461 5.68261 14.0244 5.85347 13.8535L8.85347 10.8535L8.91793 10.7754C9.04609 10.5813 9.02434 10.3173 8.85347 10.1465C8.68261 9.97562 8.41865 9.95387 8.22457 10.082L8.14644 10.1465L5.99996 12.293L5.99996 2.5C5.99996 2.22386 5.7761 2 5.49996 2C5.22382 2 4.99996 2.22386 4.99996 2.5L4.99996 12.293L2.85347 10.1465C2.65821 9.95123 2.3417 9.95122 2.14644 10.1465Z" fill="#6C707E"/>
<path d="M11.9729 1.90039C12.3738 1.90039 12.7262 1.97152 13.0302 2.11379C13.3373 2.25605 13.575 2.46299 13.7431 2.73459C13.9145 3.00295 14.0002 3.31982 14.0002 3.68519V6.98319H12.9429L12.9332 5.12564H13.1951C13.1951 5.53627 13.1207 5.89032 12.972 6.18779C12.8265 6.48202 12.6163 6.70835 12.3415 6.86679C12.0666 7.02199 11.7417 7.09959 11.3666 7.09959C11.0465 7.09959 10.7588 7.03815 10.5033 6.91529C10.2511 6.79242 10.0523 6.62267 9.90677 6.40604C9.7645 6.1894 9.69337 5.94367 9.69337 5.66884C9.69337 5.4037 9.76127 5.15959 9.89707 4.93649C10.0361 4.71339 10.2269 4.5307 10.4694 4.38844C10.7151 4.24617 10.9916 4.15887 11.2987 4.12654L12.5985 3.98589C12.702 3.97619 12.7812 3.939 12.8362 3.87434C12.8944 3.80644 12.9235 3.70782 12.9235 3.57849L12.9817 4.66004L11.5461 4.82009C11.4006 4.83625 11.2729 4.87667 11.1629 4.94134C11.053 5.00277 10.9673 5.08684 10.9059 5.19354C10.8444 5.297 10.8137 5.41502 10.8137 5.54759C10.8137 5.68985 10.8509 5.81595 10.9253 5.92589C10.9996 6.03259 11.1047 6.11665 11.2405 6.17809C11.3763 6.23952 11.5315 6.27024 11.7061 6.27024C11.9486 6.27024 12.162 6.22335 12.3463 6.12959C12.5306 6.03259 12.6729 5.8984 12.7731 5.72704C12.8734 5.55244 12.9235 5.35197 12.9235 5.12564V3.58819C12.9235 3.42329 12.8831 3.2794 12.8022 3.15654C12.7214 3.03044 12.6066 2.93344 12.4579 2.86554C12.3091 2.79764 12.1394 2.76369 11.9486 2.76369C11.7579 2.76369 11.5865 2.79602 11.4345 2.86069C11.2826 2.92535 11.1597 3.01265 11.0659 3.12259C10.9722 3.23252 10.9156 3.35377 10.8962 3.48634H9.81462C9.84695 3.1824 9.96012 2.9108 10.1541 2.67154C10.3514 2.42904 10.6068 2.23989 10.9204 2.10409C11.2373 1.96829 11.5881 1.90039 11.9729 1.90039Z" fill="#6C707E"/>
<path d="M12.7049 9.9547H10.212V9.0332H14.0096V9.9353L11.3906 13.0781H13.9999V13.9996H10.0859V13.0975L12.7049 9.9547Z" fill="#6C707E"/>
</svg>
