<svg width="16" height="16" viewBox="0 0 16 16" fill="none" xmlns="http://www.w3.org/2000/svg">
<path d="M7.5 3.5H14.5" stroke="#CED0D6" stroke-linecap="round" stroke-linejoin="round"/>
<path d="M9.5 8H14.5" stroke="#CED0D6" stroke-linecap="round" stroke-linejoin="round"/>
<path d="M11.5 12.5H14.5" stroke="#CED0D6" stroke-linecap="round" stroke-linejoin="round"/>
<path d="M1.14645 6.85352C0.951184 6.65825 0.951184 6.34175 1.14645 6.14648L4.14645 3.14648L4.1484 3.14648C4.23889 3.05664 4.36243 3 4.49996 3C4.63724 3 4.7601 3.05693 4.85055 3.14648L4.85348 3.14648L7.85348 6.14648L7.91793 6.22461C8.04609 6.41869 8.02434 6.68265 7.85348 6.85352C7.68261 7.02438 7.41865 7.04613 7.22457 6.91797L7.14645 6.85352L4.99996 4.70703L4.99996 12.5C4.99996 12.7761 4.7761 13 4.49996 13C4.22382 13 3.99996 12.7761 3.99996 12.5L3.99996 4.70703L1.85348 6.85352C1.65822 7.04878 1.34171 7.04878 1.14645 6.85352Z" fill="#CED0D6"/>
</svg>
