<svg width="18" height="18" viewBox="0 0 18 18" fill="none" xmlns="http://www.w3.org/2000/svg">
<path d="M5.17596 15.5237H12.8243M7.20051 15.5236L7.65041 11.9245M10.7997 15.5233L10.3498 11.9264M6.07576 11.9245H11.9245C13.1843 11.9245 13.8142 11.9245 14.2954 11.6793C14.7187 11.4636 15.0628 11.1195 15.2785 10.6962C15.5237 10.215 15.5237 9.5851 15.5237 8.32526V6.07576C15.5237 4.81592 15.5237 4.186 15.2785 3.70481C15.0628 3.28154 14.7187 2.93741 14.2954 2.72174C13.8142 2.47656 13.1843 2.47656 11.9245 2.47656H6.07576C4.81592 2.47656 4.186 2.47656 3.70481 2.72174C3.28154 2.93741 2.93741 3.28154 2.72174 3.70481C2.47656 4.186 2.47656 4.81592 2.47656 6.07576V8.32526C2.47656 9.5851 2.47656 10.215 2.72174 10.6962C2.93741 11.1195 3.28154 11.4636 3.70481 11.6793C4.186 11.9245 4.81592 11.9245 6.07576 11.9245Z" stroke="black" stroke-width="1.5" stroke-linecap="round"/>
</svg>
