<svg width="16" height="16" viewBox="0 0 16 16" fill="none" xmlns="http://www.w3.org/2000/svg">
<path fill-rule="evenodd" clip-rule="evenodd" d="M5.77539 8.08224C5.58131 7.95407 5.31735 7.97583 5.14648 8.14669C4.97562 8.31756 4.95387 8.58152 5.08203 8.7756L5.14648 8.85372L7.29297 11.0002H0.5C0.223858 11.0002 0 11.2241 0 11.5002C0 11.7763 0.223858 12.0002 0.5 12.0002H7.29297L5.14648 14.1467C4.95122 14.342 4.95122 14.6585 5.14648 14.8537C5.34175 15.049 5.65825 15.049 5.85352 14.8537L9.20703 11.5002L5.85352 8.14669L5.77539 8.08224Z" fill="#6C707E"/>
<path fill-rule="evenodd" clip-rule="evenodd" d="M10.2246 1.08224C10.4187 0.954074 10.6827 0.975828 10.8535 1.14669C11.0244 1.31756 11.0461 1.58152 10.918 1.7756L10.8535 1.85372L8.70703 4.00021H15.5C15.7761 4.00021 16 4.22406 16 4.50021C16 4.77635 15.7761 5.00021 15.5 5.00021H8.70703L10.8535 7.14669C11.0488 7.34195 11.0488 7.65846 10.8535 7.85372C10.6583 8.04899 10.3417 8.04899 10.1465 7.85372L6.79297 4.50021L10.1465 1.14669L10.2246 1.08224Z" fill="#6C707E"/>
</svg>
