<svg width="16" height="16" viewBox="0 0 16 16" fill="none" xmlns="http://www.w3.org/2000/svg">
<rect x="5.70117" y="12" width="4.6" height="1" fill="black"/>
<path d="M6 14H10V14C10 14.5523 9.55228 15 9 15H7C6.44772 15 6 14.5523 6 14V14Z" fill="black"/>
<mask id="path-3-inside-1_6170_38010" fill="white">
<path fill-rule="evenodd" clip-rule="evenodd" d="M10.8697 9.14748C12.041 8.27221 12.7992 6.87465 12.7992 5.3C12.7992 2.64903 10.6502 0.5 7.99922 0.5C5.34825 0.5 3.19922 2.64903 3.19922 5.3C3.19922 6.87464 3.95744 8.27218 5.1287 9.14746L5.49921 11H10.4992L10.8697 9.14748Z"/>
</mask>
<path d="M10.8697 9.14748L10.2711 8.34643L9.96425 8.57574L9.88913 8.95136L10.8697 9.14748ZM5.1287 9.14746L6.10928 8.95134L6.03416 8.57572L5.72731 8.34641L5.1287 9.14746ZM5.49921 11L4.51863 11.1961L4.6794 12H5.49921V11ZM10.4992 11V12H11.319L11.4798 11.1961L10.4992 11ZM12.7992 5.3H11.7992C11.7992 6.54594 11.2006 7.65181 10.2711 8.34643L10.8697 9.14748L11.4683 9.94852C12.8813 8.8926 13.7992 7.20336 13.7992 5.3H12.7992ZM7.99922 0.5V1.5C10.0979 1.5 11.7992 3.20132 11.7992 5.3H12.7992H13.7992C13.7992 2.09675 11.2025 -0.5 7.99922 -0.5V0.5ZM3.19922 5.3H4.19922C4.19922 3.20132 5.90054 1.5 7.99922 1.5V0.5V-0.5C4.79597 -0.5 2.19922 2.09675 2.19922 5.3H3.19922ZM5.1287 9.14746L5.72731 8.34641C4.79779 7.65179 4.19922 6.54593 4.19922 5.3H3.19922H2.19922C2.19922 7.20335 3.11709 8.89257 4.53009 9.9485L5.1287 9.14746ZM5.49921 11L6.47979 10.8039L6.10928 8.95134L5.1287 9.14746L4.14812 9.34357L4.51863 11.1961L5.49921 11ZM10.4992 11V9.99999H5.49921V11V12H10.4992V11ZM10.8697 9.14748L9.88913 8.95136L9.51863 10.8039L10.4992 11L11.4798 11.1961L11.8503 9.34359L10.8697 9.14748Z" fill="black" mask="url(#path-3-inside-1_6170_38010)"/>
</svg>
