<svg width="18" height="18" viewBox="0 0 18 18" fill="none" xmlns="http://www.w3.org/2000/svg">
<path fill-rule="evenodd" clip-rule="evenodd" d="M9.41133 3.20433C9.14001 3.13033 8.85383 3.13033 8.58251 3.20433C8.3072 3.27941 8.03473 3.47683 7.19056 4.13965L4.23196 6.46267C3.73173 6.85543 3.57892 6.98187 3.46932 7.12566C3.34242 7.29214 3.24998 7.48225 3.1974 7.68487C3.152 7.85987 3.14692 8.05814 3.14692 8.69414V11.9251C3.14692 12.5663 3.14744 13.0066 3.17533 13.348C3.20258 13.6814 3.25253 13.8605 3.31858 13.9902C3.46958 14.2865 3.71053 14.5275 4.00688 14.6785C4.13652 14.7445 4.31564 14.7945 4.64909 14.8217C4.99042 14.8496 5.43072 14.8501 6.07192 14.8501H11.9219C12.5631 14.8501 13.0034 14.8496 13.3447 14.8217C13.6782 14.7945 13.8573 14.7445 13.987 14.6785C14.2833 14.5275 14.5243 14.2865 14.6753 13.9902C14.7413 13.8605 14.7913 13.6814 14.8185 13.348C14.8464 13.0066 14.8469 12.5663 14.8469 11.9251V8.69414C14.8469 8.05814 14.8418 7.85987 14.7964 7.68487C14.7439 7.48225 14.6514 7.29214 14.5245 7.12566C14.4149 6.98187 14.2621 6.85543 13.7619 6.46266L10.8033 4.13965C9.95911 3.47683 9.68664 3.27941 9.41133 3.20433ZM8.2273 1.9019C8.73118 1.76447 9.26266 1.76447 9.76654 1.9019C10.3404 2.05839 10.8407 2.4518 11.5292 2.99315C11.5646 3.02099 11.6005 3.04923 11.637 3.07784L14.5956 5.40085C14.6166 5.41733 14.6373 5.43356 14.6577 5.44959C15.0701 5.77309 15.3709 6.00908 15.5982 6.30727C15.8339 6.61645 16.0055 6.96951 16.1032 7.34581C16.1973 7.70873 16.1972 8.09107 16.1969 8.6152C16.1969 8.64116 16.1969 8.66747 16.1969 8.69414V11.9534C16.1969 12.5595 16.1969 13.0551 16.164 13.4579C16.13 13.8748 16.0573 14.2514 15.8781 14.6031C15.5977 15.1534 15.1502 15.6009 14.5998 15.8813C14.2482 16.0605 13.8716 16.1332 13.4547 16.1672C13.0519 16.2002 12.5562 16.2002 11.9502 16.2001H6.04363C5.43759 16.2002 4.94196 16.2002 4.53916 16.1672C4.12222 16.1332 3.74566 16.0605 3.394 15.8813C2.84362 15.6009 2.39615 15.1534 2.11573 14.6031C1.93654 14.2514 1.86388 13.8748 1.82982 13.4579C1.7969 13.0551 1.79691 12.5595 1.79692 11.9534L1.79692 8.69414C1.79692 8.66747 1.79691 8.64117 1.7969 8.61521C1.79667 8.09108 1.79651 7.70873 1.89068 7.34581C1.98831 6.96951 2.15999 6.61645 2.39565 6.30727C2.62295 6.00908 2.92378 5.77309 3.33616 5.44959C3.35658 5.43356 3.37728 5.41733 3.39826 5.40086L6.35686 3.07784C6.3933 3.04923 6.42921 3.021 6.46462 2.99315C7.15312 2.45181 7.65347 2.0584 8.2273 1.9019ZM6.52192 8.77514C6.52192 8.40235 6.82413 8.10014 7.19692 8.10014H10.7969C11.1697 8.10014 11.4719 8.40235 11.4719 8.77514C11.4719 9.14794 11.1697 9.45014 10.7969 9.45014H7.19692C6.82413 9.45014 6.52192 9.14794 6.52192 8.77514ZM6.52192 11.9251C6.52192 11.5524 6.82413 11.2501 7.19692 11.2501H10.7969C11.1697 11.2501 11.4719 11.5524 11.4719 11.9251C11.4719 12.2979 11.1697 12.6001 10.7969 12.6001H7.19692C6.82413 12.6001 6.52192 12.2979 6.52192 11.9251Z" fill="black"/>
</svg>
