<svg width="18" height="18" viewBox="0 0 18 18" fill="none" xmlns="http://www.w3.org/2000/svg">
<path d="M4.5968 9.58356L3.86466 9.42086L4.5968 9.58356ZM13.4063 9.58356L14.1385 9.42086L14.1385 9.42086L13.4063 9.58356ZM12.5611 5.77996L11.8289 5.94265L11.8289 5.94265L12.5611 5.77996ZM5.44204 5.77996L6.17418 5.94265L6.17418 5.94265L5.44204 5.77996ZM3.22656 2.47461C3.22656 2.0604 2.89078 1.72461 2.47656 1.72461C2.06235 1.72461 1.72656 2.0604 1.72656 2.47461H3.22656ZM3.21368 5.47747L3.55417 4.80921L3.55417 4.80921L3.21368 5.47747ZM2.6237 4.8875L3.29196 4.547L3.29196 4.547L2.6237 4.8875ZM4.72656 13.1246C5.14078 13.1246 5.47656 12.7888 5.47656 12.3746C5.47656 11.9604 5.14078 11.6246 4.72656 11.6246V13.1246ZM1.72656 15.5246C1.72656 15.9388 2.06235 16.2746 2.47656 16.2746C2.89078 16.2746 3.22656 15.9388 3.22656 15.5246H1.72656ZM3.21368 12.5218L3.55417 13.19L3.55417 13.19L3.21368 12.5218ZM2.6237 13.1117L3.29196 13.4522L3.29196 13.4522L2.6237 13.1117ZM16.2766 2.47461C16.2766 2.0604 15.9408 1.72461 15.5266 1.72461C15.1123 1.72461 14.7766 2.0604 14.7766 2.47461H16.2766ZM14.7894 5.47747L14.449 4.80921L14.449 4.80921L14.7894 5.47747ZM15.3794 4.8875L14.7112 4.547L14.7112 4.547L15.3794 4.8875ZM13.2766 11.6246C12.8623 11.6246 12.5266 11.9604 12.5266 12.3746C12.5266 12.7888 12.8623 13.1246 13.2766 13.1246V11.6246ZM14.7766 15.5246C14.7766 15.9388 15.1123 16.2746 15.5266 16.2746C15.9408 16.2746 16.2766 15.9388 16.2766 15.5246H14.7766ZM14.7894 12.5218L14.449 13.19L14.449 13.19L14.7894 12.5218ZM15.3794 13.1117L14.7112 13.4522L14.7112 13.4522L15.3794 13.1117ZM13.2766 8.24961C12.8623 8.24961 12.5266 8.5854 12.5266 8.99961C12.5266 9.41382 12.8623 9.74961 13.2766 9.74961V8.24961ZM15.5266 9.74961C15.9408 9.74961 16.2766 9.41382 16.2766 8.99961C16.2766 8.5854 15.9408 8.24961 15.5266 8.24961V9.74961ZM2.47656 8.24961C2.06235 8.24961 1.72656 8.5854 1.72656 8.99961C1.72656 9.41382 2.06235 9.74961 2.47656 9.74961V8.24961ZM4.72656 9.74961C5.14078 9.74961 5.47656 9.41382 5.47656 8.99961C5.47656 8.5854 5.14078 8.24961 4.72656 8.24961V9.74961ZM12.5611 5.77996L11.8289 5.94265L12.6742 9.74625L13.4063 9.58356L14.1385 9.42086L13.2932 5.61726L12.5611 5.77996ZM4.5968 9.58356L5.32894 9.74626L6.17418 5.94265L5.44204 5.77996L4.7099 5.61726L3.86466 9.42086L4.5968 9.58356ZM9.00156 15.0746V14.3246C6.59469 14.3246 4.80681 12.0958 5.32894 9.74626L4.5968 9.58356L3.86466 9.42086C3.13436 12.7072 5.63507 15.8246 9.00156 15.8246V15.0746ZM13.4063 9.58356L12.6742 9.74625C13.1963 12.0958 11.4084 14.3246 9.00156 14.3246V15.0746V15.8246C12.3681 15.8246 14.8688 12.7072 14.1385 9.42086L13.4063 9.58356ZM9.00156 2.92461V3.67461C10.3591 3.67461 11.5345 4.61746 11.8289 5.94265L12.5611 5.77996L13.2932 5.61726C12.8462 3.60576 11.0621 2.17461 9.00156 2.17461V2.92461ZM9.00156 2.92461V2.17461C6.941 2.17461 5.1569 3.60576 4.7099 5.61726L5.44204 5.77996L6.17418 5.94265C6.46867 4.61746 7.64405 3.67461 9.00156 3.67461V2.92461ZM5.62656 5.62461V4.87461H4.63656V5.62461V6.37461H5.62656V5.62461ZM2.47656 3.46461H3.22656V2.47461H2.47656H1.72656V3.46461H2.47656ZM4.63656 5.62461V4.87461C4.24615 4.87461 3.99845 4.87403 3.81096 4.85871C3.63222 4.8441 3.57521 4.81993 3.55417 4.80921L3.21368 5.47747L2.87318 6.14572C3.14092 6.28214 3.41732 6.33154 3.68881 6.35373C3.95155 6.37519 4.2709 6.37461 4.63656 6.37461V5.62461ZM2.47656 3.46461H1.72656C1.72656 3.83027 1.72598 4.14962 1.74745 4.41236C1.76963 4.68386 1.81903 4.96025 1.95545 5.22799L2.6237 4.8875L3.29196 4.547C3.28124 4.52596 3.25707 4.46895 3.24246 4.29021C3.22715 4.10272 3.22656 3.85502 3.22656 3.46461H2.47656ZM3.21368 5.47747L3.55417 4.80921C3.44127 4.75169 3.34948 4.6599 3.29196 4.547L2.6237 4.8875L1.95545 5.22799C2.15678 5.62313 2.47804 5.94439 2.87318 6.14572L3.21368 5.47747ZM4.72656 12.3746V11.6246H4.63656V12.3746V13.1246H4.72656V12.3746ZM2.47656 14.5346H1.72656V15.5246H2.47656H3.22656V14.5346H2.47656ZM4.63656 12.3746V11.6246C4.2709 11.6246 3.95155 11.624 3.68881 11.6455C3.41732 11.6677 3.14092 11.7171 2.87318 11.8535L3.21368 12.5218L3.55417 13.19C3.57521 13.1793 3.63222 13.1551 3.81096 13.1405C3.99845 13.1252 4.24615 13.1246 4.63656 13.1246V12.3746ZM2.47656 14.5346H3.22656C3.22656 14.1442 3.22715 13.8965 3.24246 13.709C3.25707 13.5303 3.28124 13.4733 3.29196 13.4522L2.6237 13.1117L1.95545 12.7712C1.81903 13.039 1.76963 13.3154 1.74745 13.5869C1.72598 13.8496 1.72656 14.1689 1.72656 14.5346H2.47656ZM3.21368 12.5218L2.87318 11.8535C2.47804 12.0548 2.15678 12.3761 1.95545 12.7712L2.6237 13.1117L3.29196 13.4522C3.34948 13.3393 3.44127 13.2475 3.55417 13.19L3.21368 12.5218ZM12.3766 5.62461V6.37461H13.3666V5.62461V4.87461H12.3766V5.62461ZM15.5266 3.46461H16.2766V2.47461H15.5266H14.7766V3.46461H15.5266ZM13.3666 5.62461V6.37461C13.7322 6.37461 14.0516 6.37519 14.3143 6.35373C14.5858 6.33154 14.8622 6.28214 15.1299 6.14572L14.7894 5.47747L14.449 4.80921C14.4279 4.81993 14.3709 4.8441 14.1922 4.85871C14.0047 4.87403 13.757 4.87461 13.3666 4.87461V5.62461ZM15.5266 3.46461H14.7766C14.7766 3.85502 14.776 4.10272 14.7607 4.29021C14.7461 4.46895 14.7219 4.52596 14.7112 4.547L15.3794 4.8875L16.0477 5.22799C16.1841 4.96025 16.2335 4.68386 16.2557 4.41236C16.2771 4.14962 16.2766 3.83027 16.2766 3.46461H15.5266ZM14.7894 5.47747L15.1299 6.14572C15.5251 5.94439 15.8463 5.62313 16.0477 5.22799L15.3794 4.8875L14.7112 4.547C14.6536 4.6599 14.5619 4.75169 14.449 4.80921L14.7894 5.47747ZM13.2766 12.3746V13.1246H13.3666V12.3746V11.6246H13.2766V12.3746ZM15.5266 14.5346H14.7766V15.5246H15.5266H16.2766V14.5346H15.5266ZM13.3666 12.3746V13.1246C13.757 13.1246 14.0047 13.1252 14.1922 13.1405C14.3709 13.1551 14.4279 13.1793 14.449 13.19L14.7894 12.5218L15.1299 11.8535C14.8622 11.7171 14.5858 11.6677 14.3143 11.6455C14.0516 11.624 13.7322 11.6246 13.3666 11.6246V12.3746ZM15.5266 14.5346H16.2766C16.2766 14.1689 16.2771 13.8496 16.2557 13.5869C16.2335 13.3154 16.1841 13.039 16.0477 12.7712L15.3794 13.1117L14.7112 13.4522C14.7219 13.4733 14.7461 13.5303 14.7607 13.709C14.776 13.8965 14.7766 14.1442 14.7766 14.5346H15.5266ZM14.7894 12.5218L14.449 13.19C14.5619 13.2475 14.6536 13.3393 14.7112 13.4522L15.3794 13.1117L16.0477 12.7712C15.8463 12.3761 15.5251 12.0548 15.1299 11.8535L14.7894 12.5218ZM13.2766 8.99961V9.74961H15.5266V8.99961V8.24961H13.2766V8.99961ZM2.47656 8.99961V9.74961H4.72656V8.99961V8.24961H2.47656V8.99961Z" fill="black"/>
</svg>
