<svg width="20" height="20" viewBox="0 0 20 20" fill="none" xmlns="http://www.w3.org/2000/svg">
<path d="M4.375 16.875H2.875C2.32272 16.875 1.875 16.4273 1.875 15.875V10V4.125C1.875 3.57272 2.32272 3.125 2.875 3.125H4.375" stroke="#717171" strokeWidth="1.33" strokeLinecap="square"/>
<path d="M15.625 16.875H17.125C17.6773 16.875 18.125 16.4273 18.125 15.875V4.125C18.125 3.57272 17.6773 3.125 17.125 3.125H15.625" stroke="#717171" strokeWidth="1.33" stroke-linecap="square"/>
<path d="M8.8227 5.52765C9.47291 4.87745 10.5271 4.87745 11.1773 5.52765L14.4723 8.8227C15.1226 9.47291 15.1226 10.5271 14.4723 11.1773L11.1773 14.4723C10.5271 15.1226 9.47291 15.1226 8.8227 14.4723L5.52765 11.1773C4.87745 10.5271 4.87745 9.47291 5.52765 8.8227L8.8227 5.52765Z" stroke="#717171" strokeWidth="1.33"/>
</svg>
