<svg xmlns="http://www.w3.org/2000/svg" viewBox="0 0 20 20">
  <path fill="black" d="M16.7,11.33c.72,0,1.3.58,1.3,1.3v4.07c0,.72-.58,1.3-1.3,1.3H3.3c-.72,0-1.3-.58-1.3-1.3v-4.07c0-.72.58-1.3,1.3-1.3h13.4ZM4.66,13.99v1.34h2.67v-1.34h-2.67Z"/>
  <line stroke="black" fill="none" x1="4.66" y1="14.67" x2="7.33" y2="14.67" stroke-width="1.34"/>
  <rect stroke="black" fill="none" x="2.65" y="11.98" width="14.7" height="5.37" rx=".65" ry=".65" stroke-width="1.3"/>
  <path fill="black" d="M16.7,2c.72,0,1.3.58,1.3,1.3v4.07c0,.72-.58,1.3-1.3,1.3H3.3c-.72,0-1.3-.58-1.3-1.3V3.3c0-.72.58-1.3,1.3-1.3h13.4ZM4.66,4.66v1.34h2.67v-1.34h-2.67Z"/>
  <line stroke="black" fill="none" x1="4.66" y1="5.33" x2="7.33" y2="5.33" stroke-width="1.34"/>
  <rect stroke="black" fill="none" x="2.65" y="2.65" width="14.7" height="5.37" rx=".65" ry=".65" stroke-width="1.3"/>
</svg>