<svg width="20" height="20" viewBox="0 0 20 20" fill="none" xmlns="http://www.w3.org/2000/svg">
<path d="M4.66667 4.66667H7.33333V6H4.66667V4.66667Z" fill="#808080"/>
<path fillRule="evenodd" clipRule="evenodd" d="M2 3.33333V7.33333C2 8.06971 2.59695 8.66667 3.33333 8.66667H16.6667C17.403 8.66667 18 8.06971 18 7.33333V3.33333C18 2.59695 17.403 2 16.6667 2H3.33333C2.59695 2 2 2.59695 2 3.33333ZM3.33333 7.33333V3.33333H16.6667L16.6667 7.33333H3.33333Z" fill="#808080"/>
<path d="M7.33333 14H4.66667V15.3333H7.33333V14Z" fill="#808080"/>
<path fillRule="evenodd" clipRule="evenodd" d="M2 12.6667V16.6667C2 17.403 2.59695 18 3.33333 18H16.6667C17.403 18 18 17.403 18 16.6667V12.6667C18 11.9303 17.403 11.3333 16.6667 11.3333H3.33333C2.59695 11.3333 2 11.9303 2 12.6667ZM3.33333 16.6667V12.6667H16.6667L16.6667 16.6667H3.33333Z" fill="#808080"/>
</svg>
