<svg width="20" height="20" viewBox="0 0 20 20" fill="none" xmlns="http://www.w3.org/2000/svg">
<rect width="20" height="20" fill="white" fill-opacity="0.01"/>
<path fill-rule="evenodd" clip-rule="evenodd" d="M18.3307 9.99935C18.3307 14.6017 14.5998 18.3327 9.9974 18.3327C5.39502 18.3327 1.66406 14.6017 1.66406 9.99935C1.66406 5.39698 5.39502 1.66602 9.9974 1.66602C14.5998 1.66602 18.3307 5.39698 18.3307 9.99935ZM9.20239 9.20437V6.63104C9.20239 6.52664 9.22296 6.42326 9.26291 6.32681C9.30286 6.23035 9.36142 6.14271 9.43524 6.06889C9.50907 5.99507 9.59671 5.93651 9.69316 5.89655C9.78962 5.8566 9.89299 5.83604 9.99739 5.83604C10.1018 5.83604 10.2052 5.8566 10.3016 5.89655C10.3981 5.93651 10.4857 5.99507 10.5595 6.06889C10.6334 6.14271 10.6919 6.23035 10.7319 6.32681C10.7718 6.42326 10.7924 6.52664 10.7924 6.63104V9.20437H13.3657C13.4701 9.20437 13.5735 9.22494 13.67 9.26489C13.7664 9.30484 13.8541 9.3634 13.9279 9.43722C14.0017 9.51105 14.0603 9.59869 14.1002 9.69514C14.1402 9.79159 14.1607 9.89497 14.1607 9.99937C14.1607 10.1038 14.1402 10.2072 14.1002 10.3036C14.0603 10.4001 14.0017 10.4877 13.9279 10.5615C13.8541 10.6353 13.7664 10.6939 13.67 10.7339C13.5735 10.7738 13.4701 10.7944 13.3657 10.7944H10.7924V13.3677C10.7924 13.4721 10.7718 13.5755 10.7319 13.6719C10.6919 13.7684 10.6334 13.856 10.5595 13.9299C10.4857 14.0037 10.3981 14.0622 10.3016 14.1022C10.2052 14.1421 10.1018 14.1627 9.99739 14.1627C9.89299 14.1627 9.78962 14.1421 9.69316 14.1022C9.59671 14.0622 9.50907 14.0037 9.43524 13.9299C9.36142 13.856 9.30286 13.7684 9.26291 13.6719C9.22296 13.5755 9.20239 13.4721 9.20239 13.3677V10.7944H6.62906C6.52466 10.7944 6.42128 10.7738 6.32483 10.7339C6.22837 10.6939 6.14073 10.6353 6.06691 10.5615C5.99309 10.4877 5.93453 10.4001 5.89458 10.3036C5.85462 10.2072 5.83406 10.1038 5.83406 9.99937C5.83406 9.89497 5.85462 9.79159 5.89458 9.69514C5.93453 9.59869 5.99309 9.51105 6.06691 9.43722C6.14073 9.3634 6.22837 9.30484 6.32483 9.26489C6.42128 9.22494 6.52466 9.20437 6.62906 9.20437H9.20239Z" fill="black"/>
</svg>
