<svg width="16" height="16" viewBox="0 0 16 16" fill="none" xmlns="http://www.w3.org/2000/svg">
<circle opacity="0.13" cx="8" cy="8" r="8" fill="#F0F1F2"/>
<path d="M10.7746 4.47652C10.9741 4.27441 11.3016 4.27954 11.4953 4.48726C11.6779 4.6831 11.6736 4.98801 11.4855 5.17866L8.7033 7.998L11.4855 10.8193C11.6735 11.0099 11.6779 11.3149 11.4953 11.5107C11.3016 11.7184 10.9741 11.7234 10.7746 11.5214L8.00213 8.70991L5.23064 11.5205C5.0312 11.7227 4.70371 11.7183 4.50994 11.5107C4.32731 11.3149 4.33167 11.0099 4.5197 10.8193L7.29998 7.99898L4.51873 5.17866C4.33091 4.9881 4.32666 4.68307 4.50896 4.48726C4.70267 4.27953 5.03114 4.27437 5.23064 4.47652L8.00213 7.28706L10.7746 4.47652Z" fill="dark"/>
</svg>
