<svg width="16" height="16" viewBox="0 0 16 16" fill="none" xmlns="http://www.w3.org/2000/svg">
<path d="M10.7744 4.47656C10.9739 4.27446 11.3014 4.27959 11.4951 4.4873C11.6777 4.68314 11.6734 4.98806 11.4854 5.17871L8.70312 7.99805L11.4854 10.8193C11.6734 11.01 11.6777 11.3149 11.4951 11.5107C11.3015 11.7184 10.9739 11.7234 10.7744 11.5215L8.00195 8.70996L5.23047 11.5205C5.03103 11.7227 4.70354 11.7184 4.50977 11.5107C4.32714 11.3149 4.3315 11.01 4.51953 10.8193L7.2998 7.99902L4.51855 5.17871C4.33073 4.98815 4.32649 4.68312 4.50879 4.4873C4.7025 4.27957 5.03096 4.27442 5.23047 4.47656L8.00195 7.28711L10.7744 4.47656Z" fill="black"/>
</svg>
