<svg xmlns="http://www.w3.org/2000/svg" width="16" height="16" fill="none" viewBox="0 0 16 16"><path fill="black" fill-rule="evenodd" d="M12.5 9c.2761 0 .5.22386.5.5V12h2.5c.2761 0 .5.2239.5.5s-.2239.5-.5.5H13v2.5c0 .2761-.2239.5-.5.5s-.5-.2239-.5-.5V13H9.5c-.27614 0-.5-.2239-.5-.5s.22386-.5.5-.5H12V9.5c0-.27614.2239-.5.5-.5Z" clip-rule="evenodd"/><path fill="#EDF3FF" d="M2.63333 2C1.73127 2 1 2.83574 1 3.86667v8.26663C1 13.1643 1.73127 14 2.63333 14H8v-1.5c0-.8284.67157-1.5 1.5-1.5H11V9.5c0-.82843.6716-1.5 1.5-1.5H15V6c0-1.10457-.8954-2-2-2H8.46667L6.84336 2.30775C6.65477 2.11115 6.39413 2 6.1217 2H2.63333Z"/><path fill="black" d="M6.1217 3H2.63333C2.40481 3 2 3.25841 2 3.86667v8.26663c0 .6083.40481.8667.63333.8667H8v1H2.63333C1.73127 14 1 13.1643 1 12.1333V3.86667C1 2.83574 1.73127 2 2.63333 2H6.1217c.27243 0 .53307.11115.72166.30775L8.46667 4H13c1.1046 0 2 .89543 2 2v2h-1V6c0-.55229-.4477-1-1-1H8.04022L6.1217 3Z"/></svg>