<svg width="18" height="18" viewBox="0 0 18 18" fill="none" xmlns="http://www.w3.org/2000/svg">
<path fill-rule="evenodd" clip-rule="evenodd" d="M10.1075 7.9375C9.82629 5.7177 7.90264 4 5.57143 4C3.0467 4 1 6.01472 1 8.5C1 10.9853 3.0467 13 5.57143 13C7.90264 13 9.82629 11.2823 10.1075 9.0625H16.4286C16.7442 9.0625 17 8.81066 17 8.5C17 8.18934 16.7442 7.9375 16.4286 7.9375H15.8571V6.25C15.8571 5.93934 15.6013 5.6875 15.2857 5.6875C14.9701 5.6875 14.7143 5.93934 14.7143 6.25V7.9375H13.5714V6.25C13.5714 5.93934 13.3156 5.6875 13 5.6875C12.6844 5.6875 12.4286 5.93934 12.4286 6.25V7.9375H10.1075ZM5.57143 5.125C7.46498 5.125 9 6.63604 9 8.5C9 10.364 7.46498 11.875 5.57143 11.875C3.67788 11.875 2.14286 10.364 2.14286 8.5C2.14286 6.63604 3.67788 5.125 5.57143 5.125Z" fill="black"/>
</svg>
