<svg width="18" height="18" viewBox="0 0 18 18" fill="none" xmlns="http://www.w3.org/2000/svg">
<rect width="18" height="18" fill="white" fill-opacity="0.01" style="mix-blend-mode:multiply"/>
<path d="M5.625 12.9375C6.24632 12.9375 6.75 12.4338 6.75 11.8125C6.75 11.1912 6.24632 10.6875 5.625 10.6875C5.00368 10.6875 4.5 11.1912 4.5 11.8125C4.5 12.4338 5.00368 12.9375 5.625 12.9375Z" fill="#333333"/>
<path d="M12.9375 12.375C13.5588 12.375 14.0625 11.8713 14.0625 11.25C14.0625 10.6287 13.5588 10.125 12.9375 10.125C12.3162 10.125 11.8125 10.6287 11.8125 11.25C11.8125 11.8713 12.3162 12.375 12.9375 12.375Z" fill="#333333"/>
<path d="M7.3125 6.75C7.93382 6.75 8.4375 6.24632 8.4375 5.625C8.4375 5.00368 7.93382 4.5 7.3125 4.5C6.69118 4.5 6.1875 5.00368 6.1875 5.625C6.1875 6.24632 6.69118 6.75 7.3125 6.75Z" fill="#333333"/>
<path d="M7.875 9C8.18566 9 8.4375 8.74816 8.4375 8.4375C8.4375 8.12684 8.18566 7.875 7.875 7.875C7.56434 7.875 7.3125 8.12684 7.3125 8.4375C7.3125 8.74816 7.56434 9 7.875 9Z" fill="#333333"/>
<path d="M12.9375 3.9375C13.5588 3.9375 14.0625 3.43382 14.0625 2.8125C14.0625 2.19118 13.5588 1.6875 12.9375 1.6875C12.3162 1.6875 11.8125 2.19118 11.8125 2.8125C11.8125 3.43382 12.3162 3.9375 12.9375 3.9375Z" fill="#333333"/>
<path d="M16.3125 2.25C16.6232 2.25 16.875 1.99816 16.875 1.6875C16.875 1.37684 16.6232 1.125 16.3125 1.125C16.0018 1.125 15.75 1.37684 15.75 1.6875C15.75 1.99816 16.0018 2.25 16.3125 2.25Z" fill="#333333"/>
<path d="M9 13.5C9.31066 13.5 9.5625 13.2482 9.5625 12.9375C9.5625 12.6268 9.31066 12.375 9 12.375C8.68934 12.375 8.4375 12.6268 8.4375 12.9375C8.4375 13.2482 8.68934 13.5 9 13.5Z" fill="#333333"/>
<path d="M9 16.875C4.66875 16.875 1.125 13.3313 1.125 9C1.125 4.66875 4.66875 1.125 9 1.125C9.05625 1.125 9.1125 1.125 9.16875 1.125L9.95625 1.18125L9.7875 1.85625C9.73125 2.08125 9.675 2.3625 9.675 2.5875C9.675 4.1625 10.9125 5.4 12.4875 5.4C13.05 5.4 13.6125 5.23125 14.1188 4.89375L14.85 5.7375C14.625 5.9625 14.5125 6.24375 14.5125 6.525C14.5125 7.25625 15.2437 7.875 16.0312 7.59375L16.7063 7.3125L16.8187 8.04375C16.875 8.38125 16.875 8.71875 16.875 9C16.875 13.3313 13.3313 16.875 9 16.875ZM8.60625 2.25C5.0625 2.475 2.25 5.4 2.25 9C2.25 12.7125 5.2875 15.75 9 15.75C12.7125 15.75 15.75 12.7125 15.75 9C15.75 8.94375 15.75 8.83125 15.75 8.775C14.4563 8.83125 13.3875 7.81875 13.3875 6.525C13.3875 6.46875 13.3875 6.46875 13.3875 6.4125C13.1062 6.46875 12.825 6.525 12.4875 6.525C10.2938 6.525 8.55 4.78125 8.55 2.5875C8.55 2.475 8.55 2.3625 8.60625 2.25Z" fill="#333333"/>
</svg>
