<svg width="18" height="18" viewBox="0 0 18 18" fill="none" xmlns="http://www.w3.org/2000/svg">
<circle cx="9" cy="9" r="7" fill="#EDF3FF"/>
<path fill-rule="evenodd" clip-rule="evenodd" d="M4.62489 2.45218C5.91992 1.58686 7.44248 1.125 9 1.125C11.0879 1.12735 13.0895 1.95779 14.5659 3.43413C16.0422 4.91047 16.8727 6.91214 16.875 9C16.875 10.5575 16.4131 12.0801 15.5478 13.3751C14.6825 14.6702 13.4526 15.6795 12.0136 16.2756C10.5747 16.8716 8.99127 17.0275 7.46367 16.7237C5.93607 16.4198 4.53288 15.6698 3.43154 14.5685C2.3302 13.4671 1.58018 12.0639 1.27632 10.5363C0.972461 9.00874 1.12841 7.42534 1.72445 5.98637C2.32049 4.5474 3.32985 3.31749 4.62489 2.45218ZM5.625 14.0625V14.8368C6.64922 15.4348 7.81396 15.75 9 15.75C10.186 15.75 11.3508 15.4348 12.375 14.8368V14.0625C12.3745 13.6151 12.1966 13.1862 11.8802 12.8698C11.5638 12.5534 11.1349 12.3755 10.6875 12.375H7.3125C6.8651 12.3755 6.43616 12.5534 6.1198 12.8698C5.80344 13.1862 5.62549 13.6151 5.625 14.0625ZM12.6587 12.0607C13.184 12.579 13.4846 13.2829 13.4958 14.0208C14.5158 13.1099 15.2352 11.9108 15.5586 10.582C15.8819 9.25327 15.7941 7.85764 15.3067 6.57993C14.8192 5.30222 13.9552 4.2027 12.829 3.42696C11.7028 2.65121 10.3675 2.23584 9 2.23584C7.63248 2.23584 6.2972 2.65121 5.17099 3.42696C4.04478 4.2027 3.18076 5.30222 2.69333 6.57993C2.2059 7.85764 2.11806 9.25327 2.44144 10.582C2.76482 11.9108 3.48416 13.1099 4.50422 14.0208C4.5154 13.2829 4.81604 12.579 5.34135 12.0607C5.86665 11.5424 6.57456 11.2513 7.3125 11.25H10.6875C11.4254 11.2513 12.1334 11.5424 12.6587 12.0607ZM7.43746 4.97399C7.89997 4.66495 8.44374 4.5 9 4.5C9.74592 4.5 10.4613 4.79632 10.9887 5.32376C11.5162 5.85121 11.8125 6.56658 11.8125 7.3125C11.8125 7.86876 11.6476 8.41253 11.3385 8.87504C11.0295 9.33755 10.5902 9.69804 10.0763 9.91091C9.56238 10.1238 8.99688 10.1795 8.45131 10.071C7.90574 9.96244 7.4046 9.69457 7.01126 9.30124C6.61793 8.9079 6.35006 8.40676 6.24154 7.86119C6.13302 7.31562 6.18872 6.75012 6.40159 6.2362C6.61446 5.72229 6.97495 5.28303 7.43746 4.97399ZM8.06248 8.7156C8.33998 8.90103 8.66625 9 9 9C9.4474 8.99949 9.87633 8.82154 10.1927 8.50518C10.509 8.18883 10.687 7.7599 10.6875 7.3125C10.6875 6.97874 10.5885 6.65248 10.4031 6.37498C10.2177 6.09747 9.95413 5.88118 9.64578 5.75345C9.33743 5.62573 8.99813 5.59231 8.67079 5.65742C8.34344 5.72254 8.04276 5.88326 7.80676 6.11926C7.57076 6.35526 7.41004 6.65594 7.34493 6.98328C7.27981 7.31063 7.31323 7.64993 7.44095 7.95828C7.56868 8.26663 7.78497 8.53018 8.06248 8.7156Z" fill="black"/>
</svg>
