<svg width="18" height="18" viewBox="0 0 18 18" fill="none" xmlns="http://www.w3.org/2000/svg">
<rect width="18" height="18" fill="white" fill-opacity="0.01" style="mix-blend-mode:multiply"/>
<path d="M15.1897 9.42669C15.1897 9.28607 15.1897 9.14544 15.1897 8.99919C15.1897 8.85294 15.1897 8.71232 15.1897 8.56607L16.2697 7.62107C16.4687 7.44559 16.5994 7.20539 16.6385 6.94292C16.6776 6.68044 16.6227 6.41258 16.4834 6.18669L15.1559 3.93669C15.0573 3.76584 14.9154 3.62393 14.7446 3.5252C14.5738 3.42647 14.3801 3.37439 14.1828 3.37419C14.0605 3.37325 13.9389 3.39225 13.8228 3.43044L12.4559 3.89169C12.2199 3.73487 11.9737 3.59393 11.719 3.46982L11.4322 2.05232C11.3807 1.79334 11.2398 1.56071 11.0342 1.39515C10.8285 1.22958 10.5711 1.14163 10.3072 1.14669H7.67466C7.41067 1.14163 7.15332 1.22958 6.94765 1.39515C6.74198 1.56071 6.60109 1.79334 6.54966 2.05232L6.26278 3.46982C6.00624 3.5939 5.7582 3.73484 5.52028 3.89169L4.18153 3.40794C4.06414 3.37735 3.94257 3.36596 3.82153 3.37419C3.62425 3.37439 3.43049 3.42647 3.25969 3.5252C3.08888 3.62393 2.94705 3.76584 2.84841 3.93669L1.52091 6.18669C1.38961 6.41225 1.34082 6.67644 1.3829 6.93401C1.42497 7.19158 1.55529 7.42651 1.75153 7.59857L2.81466 8.57169C2.81466 8.71232 2.81466 8.85294 2.81466 8.99919C2.81466 9.14544 2.81466 9.28607 2.81466 9.43232L1.75153 10.3773C1.54974 10.5506 1.41586 10.7897 1.37364 11.0523C1.33142 11.3149 1.3836 11.5839 1.52091 11.8117L2.84841 14.0617C2.94705 14.2325 3.08888 14.3745 3.25969 14.4732C3.43049 14.5719 3.62425 14.624 3.82153 14.6242C3.94379 14.6251 4.06539 14.6061 4.18153 14.5679L5.54841 14.1067C5.7844 14.2635 6.03057 14.4044 6.28528 14.5286L6.57216 15.9461C6.62359 16.205 6.76448 16.4377 6.97015 16.6032C7.17582 16.7688 7.43317 16.8567 7.69716 16.8517H10.3522C10.6161 16.8567 10.8735 16.7688 11.0792 16.6032C11.2848 16.4377 11.4257 16.205 11.4772 15.9461L11.764 14.5286C12.0206 14.4045 12.2686 14.2635 12.5065 14.1067L13.8678 14.5679C13.9839 14.6061 14.1055 14.6251 14.2278 14.6242C14.4251 14.624 14.6188 14.5719 14.7896 14.4732C14.9604 14.3745 15.1023 14.2325 15.2009 14.0617L16.4834 11.8117C16.6147 11.5861 16.6635 11.3219 16.6214 11.0644C16.5793 10.8068 16.449 10.5719 16.2528 10.3998L15.1897 9.42669ZM14.1828 13.4992L12.2534 12.8467C11.8018 13.2293 11.2856 13.5283 10.729 13.7298L10.3297 15.7492H7.67466L7.27528 13.7523C6.72314 13.5451 6.20975 13.2465 5.75653 12.8692L3.82153 13.4992L2.49403 11.2492L4.02403 9.89919C3.92002 9.31692 3.92002 8.72083 4.02403 8.13857L2.49403 6.74919L3.82153 4.49919L5.75091 5.15169C6.20256 4.76913 6.71875 4.47008 7.27528 4.26857L7.67466 2.24919H10.3297L10.729 4.24607C11.2812 4.4533 11.7946 4.75183 12.2478 5.12919L14.1828 4.49919L15.5103 6.74919L13.9803 8.09919C14.0843 8.68146 14.0843 9.27755 13.9803 9.85982L15.5103 11.2492L14.1828 13.4992Z" fill="black"/>
<path d="M9.00216 12.3742C8.33464 12.3742 7.68212 12.1763 7.12711 11.8054C6.57209 11.4346 6.13951 10.9074 5.88406 10.2907C5.62862 9.67405 5.56178 8.99545 5.69201 8.34076C5.82223 7.68608 6.14367 7.08471 6.61567 6.61271C7.08767 6.1407 7.68904 5.81927 8.34373 5.68904C8.99841 5.55882 9.67701 5.62565 10.2937 5.8811C10.9104 6.13654 11.4375 6.56913 11.8084 7.12414C12.1792 7.67916 12.3772 8.33168 12.3772 8.99919C12.3817 9.44366 12.2975 9.88456 12.1294 10.2961C11.9614 10.7076 11.713 11.0814 11.3987 11.3957C11.0844 11.71 10.7105 11.9585 10.299 12.1265C9.88752 12.2945 9.44662 12.3787 9.00216 12.3742ZM9.00216 6.74919C8.70479 6.74226 8.4091 6.79573 8.13299 6.90635C7.85688 7.01697 7.60607 7.18245 7.39574 7.39278C7.18541 7.60311 7.01993 7.85391 6.90931 8.13003C6.79869 8.40614 6.74523 8.70182 6.75216 8.99919C6.74523 9.29656 6.79869 9.59224 6.90931 9.86836C7.01993 10.1445 7.18541 10.3953 7.39574 10.6056C7.60607 10.8159 7.85688 10.9814 8.13299 11.092C8.4091 11.2027 8.70479 11.2561 9.00216 11.2492C9.29952 11.2561 9.59521 11.2027 9.87132 11.092C10.1474 10.9814 10.3982 10.8159 10.6086 10.6056C10.8189 10.3953 10.9844 10.1445 11.095 9.86836C11.2056 9.59224 11.2591 9.29656 11.2522 8.99919C11.2591 8.70182 11.2056 8.40614 11.095 8.13003C10.9844 7.85391 10.8189 7.60311 10.6086 7.39278C10.3982 7.18245 10.1474 7.01697 9.87132 6.90635C9.59521 6.79573 9.29952 6.74226 9.00216 6.74919Z" fill="black"/>
</svg>
