<svg width="18" height="18" viewBox="0 0 18 18" fill="none" xmlns="http://www.w3.org/2000/svg">
<path d="M14.8281 2H2.82812C2.56291 2 2.30855 2.12292 2.12102 2.34171C1.93348 2.5605 1.82813 2.85725 1.82812 3.16667V14.8333C1.82813 15.1428 1.93348 15.4395 2.12102 15.6583C2.30855 15.8771 2.56291 16 2.82812 16H14.8281C15.0933 16 15.3477 15.8771 15.5352 15.6583C15.7228 15.4395 15.8281 15.1428 15.8281 14.8333V3.16667C15.8281 2.85725 15.7228 2.5605 15.5352 2.34171C15.3477 2.12292 15.0933 2 14.8281 2ZM3 3.16667H6.82812V14.8333H3V9V3.16667ZM14.6562 14.8333H8V9V3.16667H11.4141H14.6562V9V14.8333Z" fill="#808080"/>
</svg>
