<svg width="18" height="18" viewBox="0 0 18 18" fill="none" xmlns="http://www.w3.org/2000/svg">
<path d="M15 2H3C2.73478 2 2.48043 2.12292 2.29289 2.34171C2.10536 2.5605 2 2.85725 2 3.16667V14.8333C2 15.1428 2.10536 15.4395 2.29289 15.6583C2.48043 15.8771 2.73478 16 3 16H15C15.2652 16 15.5196 15.8771 15.7071 15.6583C15.8946 15.4395 16 15.1428 16 14.8333V3.16667C16 2.85725 15.8946 2.5605 15.7071 2.34171C15.5196 2.12292 15.2652 2 15 2ZM14.832 3.16667V10H9H3.16406V3.16667H14.832ZM3.16406 14.8333V11.1667H14.832V14.8333H3.16406Z" fill="#333333"/>
</svg>
