<svg width="18" height="18" viewBox="0 0 18 18" fill="none" xmlns="http://www.w3.org/2000/svg">
<path d="M16.1477 10.8523L14.625 9.32957V7.3125C14.6232 5.9186 14.1046 4.57487 13.1695 3.54116C12.2344 2.50744 10.9492 1.85717 9.5625 1.71608V0.5625H8.4375V1.71608C7.05076 1.85717 5.76558 2.50744 4.83049 3.54116C3.89539 4.57487 3.37681 5.9186 3.375 7.3125V9.32957L1.85226 10.8523C1.74678 10.9578 1.68752 11.1008 1.6875 11.25V12.9375C1.6875 13.0867 1.74676 13.2298 1.85225 13.3352C1.95774 13.4407 2.10082 13.5 2.25 13.5H6.1875V13.9369C6.17531 14.6505 6.42685 15.3435 6.89393 15.8831C7.36102 16.4227 8.01079 16.771 8.71875 16.8612C9.10977 16.9 9.50458 16.8566 9.87779 16.7336C10.251 16.6107 10.5943 16.411 10.8857 16.1474C11.1771 15.8837 11.4101 15.5621 11.5698 15.203C11.7294 14.8439 11.812 14.4554 11.8125 14.0625V13.5H15.75C15.8992 13.5 16.0423 13.4407 16.1477 13.3352C16.2532 13.2298 16.3125 13.0867 16.3125 12.9375V11.25C16.3125 11.1008 16.2532 10.9578 16.1477 10.8523ZM10.6875 14.0625C10.6875 14.5101 10.5097 14.9393 10.1932 15.2557C9.87678 15.5722 9.44755 15.75 9 15.75C8.55245 15.75 8.12322 15.5722 7.80676 15.2557C7.49029 14.9393 7.3125 14.5101 7.3125 14.0625V13.5H10.6875V14.0625ZM15.1875 12.375H2.8125V11.4829L4.33519 9.96019C4.44068 9.85472 4.49997 9.71167 4.5 9.5625V7.3125C4.5 6.11903 4.97411 4.97443 5.81802 4.13052C6.66193 3.28661 7.80653 2.8125 9 2.8125C10.1935 2.8125 11.3381 3.28661 12.182 4.13052C13.0259 4.97443 13.5 6.11903 13.5 7.3125V9.5625C13.5 9.71167 13.5593 9.85472 13.6648 9.96019L15.1875 11.4829V12.375Z" fill="black"/>
</svg>
