<svg width="18" height="18" viewBox="0 0 18 18" fill="none" xmlns="http://www.w3.org/2000/svg">
<path fill-rule="evenodd" clip-rule="evenodd" d="M9.96519 8.4375C9.68838 6.2177 7.79479 4.5 5.5 4.5C3.01472 4.5 1 6.51472 1 9C1 11.4853 3.01472 13.5 5.5 13.5C7.79479 13.5 9.68838 11.7823 9.96519 9.5625H16.1875C16.4982 9.5625 16.75 9.31066 16.75 9C16.75 8.68934 16.4982 8.4375 16.1875 8.4375H15.625V6.75C15.625 6.43934 15.3732 6.1875 15.0625 6.1875C14.7518 6.1875 14.5 6.43934 14.5 6.75V8.4375H13.375V6.75C13.375 6.43934 13.1232 6.1875 12.8125 6.1875C12.5018 6.1875 12.25 6.43934 12.25 6.75V8.4375H9.96519ZM5.5 5.625C7.36396 5.625 8.875 7.13604 8.875 9C8.875 10.864 7.36396 12.375 5.5 12.375C3.63604 12.375 2.125 10.864 2.125 9C2.125 7.13604 3.63604 5.625 5.5 5.625Z" fill="#808080"/>
</svg>
