<svg xmlns="http://www.w3.org/2000/svg" width="20" height="20" fill="none" viewBox="0 0 20 20"><path fill="transparent" fill-opacity=".01" d="M0 0h20v20H0z"/><path fill="black" fill-rule="evenodd" d="M18.3307 9.99935c0 4.60235-3.7309 8.33335-8.3333 8.33335-4.60238 0-8.33334-3.731-8.33334-8.33335 0-4.60237 3.73096-8.33333 8.33334-8.33333 4.6024 0 8.3333 3.73096 8.3333 8.33333Zm-9.12831-.79498V6.63104c0-.1044.02057-.20778.06052-.30423.03995-.09646.09851-.1841.17234-.25792.07382-.07382.16146-.13238.25791-.17234.09646-.03995.19983-.06051.30423-.06051.10441 0 .20781.02056.30421.06051.0965.03996.1841.09852.2579.17234.0739.07382.1324.16146.1724.25792.0399.09645.0605.19983.0605.30423v2.57333h2.5733c.1044 0 .2078.02057.3043.06052.0964.03995.1841.09851.2579.17233.0738.07383.1324.16147.1723.25792.04.09645.0605.19983.0605.30423 0 .10443-.0205.20783-.0605.30423-.0399.0965-.0985.1841-.1723.2579s-.1615.1324-.2579.1724c-.0965.0399-.1999.0605-.3043.0605h-2.5733v2.5733c0 .1044-.0206.2078-.0605.3042-.04.0965-.0985.1841-.1724.258-.0738.0738-.1614.1323-.2579.1723-.0964.0399-.1998.0605-.30421.0605-.1044 0-.20777-.0206-.30423-.0605-.09645-.04-.18409-.0985-.25791-.1723-.07383-.0739-.13239-.1615-.17234-.258-.03995-.0964-.06052-.1998-.06052-.3042v-2.5733H6.62906c-.1044 0-.20778-.0206-.30423-.0605-.09646-.04-.1841-.0986-.25792-.1724-.07382-.0738-.13238-.1614-.17233-.2579-.03996-.0964-.06052-.1998-.06052-.30423 0-.1044.02056-.20778.06052-.30423.03995-.09645.09851-.18409.17233-.25792.07382-.07382.16146-.13238.25792-.17233.09645-.03995.19983-.06052.30423-.06052h2.57333Z" clip-rule="evenodd"/></svg>