<svg width="16" height="16" viewBox="0 0 16 16" fill="none" xmlns="http://www.w3.org/2000/svg">
<path fill-rule="evenodd" clip-rule="evenodd" d="M8 2C8.2549 2 8.46154 2.20664 8.46154 2.46154V7.53846H13.5385C13.7934 7.53846 14 7.7451 14 8C14 8.2549 13.7934 8.46154 13.5385 8.46154H8.46154V13.5385C8.46154 13.7934 8.2549 14 8 14C7.7451 14 7.53846 13.7934 7.53846 13.5385V8.46154H2.46154C2.20664 8.46154 2 8.2549 2 8C2 7.7451 2.20664 7.53846 2.46154 7.53846H7.53846V2.46154C7.53846 2.20664 7.7451 2 8 2Z" fill="black"/>
</svg>
