<svg width="14" height="14" viewBox="0 0 14 14" fill="none" xmlns="http://www.w3.org/2000/svg">
<path fill-rule="evenodd" clip-rule="evenodd" d="M2 2H12C12.2652 2 12.5196 2.10536 12.7071 2.29289C12.8946 2.48043 13 2.73478 13 3C13 3.26522 12.8946 3.51957 12.7071 3.70711C12.5196 3.89464 12.2652 4 12 4H2C1.73478 4 1.48043 3.89464 1.29289 3.70711C1.10536 3.51957 1 3.26522 1 3C1 2.73478 1.10536 2.48043 1.29289 2.29289C1.48043 2.10536 1.73478 2 2 2ZM4.78 13C4.55707 13 4.34054 12.9255 4.16479 12.7883C3.98905 12.6512 3.86417 12.4592 3.81 12.243L2.156 5.62C2.13782 5.54646 2.13659 5.46975 2.15239 5.39566C2.1682 5.32157 2.20064 5.25204 2.24726 5.19232C2.29387 5.13261 2.35345 5.08427 2.42149 5.05095C2.48953 5.01763 2.56424 5.00021 2.64 5H11.36C11.4359 5.00002 11.5109 5.01734 11.5791 5.05065C11.6474 5.08396 11.7072 5.13238 11.7539 5.19224C11.8007 5.2521 11.8332 5.32182 11.8489 5.39611C11.8647 5.4704 11.8634 5.54731 11.845 5.621L10.189 12.243C10.1348 12.4592 10.01 12.6512 9.83421 12.7883C9.65846 12.9255 9.44193 13 9.219 13H4.781H4.78ZM6 1H8C8.26522 1 8.51957 1.10536 8.70711 1.29289C8.89464 1.48043 9 1.73478 9 2H5C5 1.73478 5.10536 1.48043 5.29289 1.29289C5.48043 1.10536 5.73478 1 6 1Z" fill="black"/>
</svg>
