<svg width="14" height="14" viewBox="0 0 14 14" fill="none" xmlns="http://www.w3.org/2000/svg">
<rect width="14" height="14" fill="white" fill-opacity="0.01"/>
<path fill-rule="evenodd" clip-rule="evenodd" d="M8.11375 6.94675L9.70525 5.356C9.84598 5.21527 9.92504 5.0244 9.92504 4.82538C9.92504 4.62635 9.84598 4.43548 9.70525 4.29475C9.56452 4.15402 9.37365 4.07496 9.17463 4.07496C8.9756 4.07496 8.78473 4.15402 8.644 4.29475L7.054 5.88625L5.4625 4.29475C5.32177 4.15412 5.13094 4.07515 4.93198 4.07522C4.73303 4.07529 4.54226 4.15439 4.40162 4.29513C4.26099 4.43586 4.18203 4.62669 4.1821 4.82564C4.18217 5.02459 4.26127 5.21537 4.402 5.356L5.992 6.946L4.402 8.5375C4.26538 8.67895 4.18979 8.8684 4.19149 9.06505C4.1932 9.2617 4.27208 9.44981 4.41114 9.58886C4.55019 9.72792 4.7383 9.8068 4.93495 9.80851C5.1316 9.81021 5.32105 9.73462 5.4625 9.598L7.05325 8.008L8.644 9.598C8.71363 9.66768 8.79631 9.72297 8.88731 9.7607C8.97831 9.79843 9.07585 9.81787 9.17436 9.8179C9.27287 9.81794 9.37042 9.79857 9.46145 9.7609C9.55248 9.72323 9.63519 9.66801 9.70487 9.59838C9.77456 9.52874 9.82984 9.44606 9.86757 9.35507C9.9053 9.26407 9.92474 9.16653 9.92478 9.06802C9.92481 8.9695 9.90544 8.87195 9.86778 8.78092C9.83011 8.6899 9.77488 8.60718 9.70525 8.5375L8.11375 6.94675ZM7 13C5.4087 13 3.88258 12.3679 2.75736 11.2426C1.63214 10.1174 1 8.5913 1 7C1 5.4087 1.63214 3.88258 2.75736 2.75736C3.88258 1.63214 5.4087 1 7 1C8.5913 1 10.1174 1.63214 11.2426 2.75736C12.3679 3.88258 13 5.4087 13 7C13 8.5913 12.3679 10.1174 11.2426 11.2426C10.1174 12.3679 8.5913 13 7 13Z" fill="black"/>
</svg>
