<svg width="14" height="14" viewBox="0 0 14 14" fill="none" xmlns="http://www.w3.org/2000/svg">
<rect width="14" height="14" fill="white" fill-opacity="0.01"/>
<path fill-rule="evenodd" clip-rule="evenodd" d="M7 13C5.4087 13 3.88258 12.3679 2.75736 11.2426C1.63214 10.1174 1 8.5913 1 7C1 5.4087 1.63214 3.88258 2.75736 2.75736C3.88258 1.63214 5.4087 1 7 1C8.5913 1 10.1174 1.63214 11.2426 2.75736C12.3679 3.88258 13 5.4087 13 7C13 8.5913 12.3679 10.1174 11.2426 11.2426C10.1174 12.3679 8.5913 13 7 13ZM8.023 4.777L6.409 7.8595L5.25175 6.817C5.17852 6.75111 5.09303 6.70029 5.00016 6.66744C4.90729 6.63458 4.80886 6.62035 4.71049 6.62553C4.61212 6.63072 4.51573 6.65524 4.42683 6.69767C4.33793 6.74011 4.25827 6.79965 4.19238 6.87287C4.12648 6.9461 4.07566 7.03159 4.04281 7.12446C4.00996 7.21733 3.99572 7.31576 4.00091 7.41413C4.0061 7.51251 4.03061 7.60889 4.07305 7.69779C4.11549 7.78669 4.17502 7.86636 4.24825 7.93225L6.12325 9.61975C6.2082 9.69626 6.30953 9.75233 6.41947 9.78369C6.52942 9.81504 6.64507 9.82084 6.7576 9.80065C6.87014 9.78046 6.97656 9.73481 7.06875 9.66719C7.16094 9.59957 7.23644 9.51177 7.2895 9.4105L9.352 5.473C9.44429 5.29676 9.4628 5.09108 9.40345 4.9012C9.34409 4.71132 9.21174 4.5528 9.0355 4.4605C8.85926 4.3682 8.65358 4.3497 8.4637 4.40905C8.27382 4.46841 8.1153 4.60076 8.023 4.777Z" fill="black"/>
</svg>
