<svg width="14" height="14" viewBox="0 0 14 14" fill="none" xmlns="http://www.w3.org/2000/svg">
<rect width="14" height="14" fill="white" fill-opacity="0.01"/>
<path d="M3.45132 4.7504L4.16098 6.34687C4.22382 6.48824 4.34025 6.59886 4.48465 6.65438C4.62905 6.70991 4.78959 6.70581 4.93096 6.64296C5.07234 6.58012 5.18295 6.46369 5.23848 6.31929C5.29401 6.17489 5.2899 6.01435 5.22706 5.87297L4.30392 3.79624C4.15986 3.47215 3.78001 3.32564 3.45646 3.46947L1.37759 4.39356C1.23601 4.45649 1.12522 4.5731 1.06961 4.71771C1.014 4.86233 1.01812 5.02312 1.08105 5.1647C1.14399 5.30629 1.26059 5.41707 1.40521 5.47268C1.54982 5.52829 1.71061 5.52418 1.85219 5.46124L3.45132 4.7504Z" fill="black"/>
<path d="M7.05941 10.8166C5.70847 10.7602 4.47131 9.9172 3.89387 8.61818C3.35695 7.4103 3.49256 6.03945 4.21823 5.01085C4.40632 4.74466 4.34411 4.36631 4.07929 4.16548C4.01854 4.11765 3.94872 4.08265 3.87404 4.0626C3.79937 4.04255 3.7214 4.03788 3.64486 4.04886C3.56833 4.05984 3.49482 4.08625 3.42879 4.12648C3.36277 4.16672 3.3056 4.21994 3.26076 4.28292C2.29316 5.65335 2.11221 7.48228 2.82779 9.09207C3.59739 10.8234 5.24744 11.9476 7.04776 12.0225C7.37174 12.0362 7.6376 11.7769 7.64096 11.4441C7.64408 11.1108 7.38393 10.83 7.05941 10.8166Z" fill="black"/>
<path fill-rule="evenodd" clip-rule="evenodd" d="M8.78185 8.12558L9.705 10.2023C9.84906 10.5264 10.2289 10.6729 10.5525 10.5291L12.6313 9.60499C12.7729 9.54206 12.8837 9.42545 12.9393 9.28084C12.9949 9.13622 12.9908 8.97544 12.9279 8.83385C12.8649 8.69227 12.7483 8.58148 12.6037 8.52587C12.4591 8.47026 12.2983 8.47437 12.1567 8.53731L10.5576 9.24815L9.84794 7.65169C9.7851 7.51031 9.66867 7.3997 9.52427 7.34417C9.37987 7.28864 9.21932 7.29275 9.07795 7.35559C8.93658 7.41843 8.82596 7.53486 8.77043 7.67926C8.7149 7.82366 8.71901 7.98421 8.78185 8.12558Z" fill="black"/>
<path fill-rule="evenodd" clip-rule="evenodd" d="M6.3679 2.55575C6.36478 2.88909 6.62469 3.16935 6.94921 3.18277C8.30015 3.23913 9.53707 4.08159 10.1145 5.38061C10.6514 6.58849 10.5161 7.95987 9.78962 8.98818C9.69983 9.11988 9.6642 9.28109 9.69013 9.43836C9.71606 9.59562 9.80155 9.73687 9.92886 9.83277C10.1934 10.0344 10.5601 9.98181 10.7476 9.71586C11.7152 8.34544 11.8962 6.51651 11.1806 4.90672C10.411 3.1754 8.76094 2.05122 6.96086 1.97682C6.87444 1.9727 6.78825 1.98872 6.70908 2.02362C6.60709 2.07016 6.52067 2.1451 6.46017 2.23947C6.39966 2.33384 6.36762 2.44365 6.3679 2.55575Z" fill="black"/>
</svg>