<svg width="14" height="14" viewBox="0 0 14 14" fill="none" xmlns="http://www.w3.org/2000/svg">
<g clip-path="url(#clip0_5821_36605)">
<rect width="14" height="14" fill="white" fill-opacity="0.01" style="mix-blend-mode:multiply"/>
<path fill-rule="evenodd" clip-rule="evenodd" d="M0.875 7C0.875 10.3687 3.63125 13.125 7 13.125C10.3687 13.125 13.125 10.3687 13.125 7C13.125 6.78125 13.125 6.51875 13.0813 6.25625L12.9938 5.6875L12.4688 5.90625C11.8562 6.125 11.2875 5.64375 11.2875 5.075C11.2875 4.85625 11.375 4.6375 11.55 4.4625L10.9812 3.80625C10.5875 4.06875 10.15 4.2 9.7125 4.2C8.4875 4.2 7.525 3.2375 7.525 2.0125C7.525 1.8375 7.56875 1.61875 7.6125 1.44375L7.74375 0.91875L7.13125 0.875H7C3.63125 0.875 0.875 3.63125 0.875 7ZM5.6875 5.25C6.17075 5.25 6.5625 4.85825 6.5625 4.375C6.5625 3.89175 6.17075 3.5 5.6875 3.5C5.20425 3.5 4.8125 3.89175 4.8125 4.375C4.8125 4.85825 5.20425 5.25 5.6875 5.25ZM10.9375 8.75C10.9375 9.23325 10.5457 9.625 10.0625 9.625C9.57925 9.625 9.1875 9.23325 9.1875 8.75C9.1875 8.26675 9.57925 7.875 10.0625 7.875C10.5457 7.875 10.9375 8.26675 10.9375 8.75ZM5.25 9.1875C5.25 9.67075 4.85825 10.0625 4.375 10.0625C3.89175 10.0625 3.5 9.67075 3.5 9.1875C3.5 8.70425 3.89175 8.3125 4.375 8.3125C4.85825 8.3125 5.25 8.70425 5.25 9.1875ZM6.5625 6.5625C6.5625 6.80412 6.36662 7 6.125 7C5.88338 7 5.6875 6.80412 5.6875 6.5625C5.6875 6.32088 5.88338 6.125 6.125 6.125C6.36662 6.125 6.5625 6.32088 6.5625 6.5625ZM7 10.5C7.24162 10.5 7.4375 10.3041 7.4375 10.0625C7.4375 9.82088 7.24162 9.625 7 9.625C6.75838 9.625 6.5625 9.82088 6.5625 10.0625C6.5625 10.3041 6.75838 10.5 7 10.5ZM13.125 1.3125C13.125 1.55412 12.9291 1.75 12.6875 1.75C12.4459 1.75 12.25 1.55412 12.25 1.3125C12.25 1.07088 12.4459 0.875 12.6875 0.875C12.9291 0.875 13.125 1.07088 13.125 1.3125ZM10.9375 2.1875C10.9375 2.67075 10.5457 3.0625 10.0625 3.0625C9.57925 3.0625 9.1875 2.67075 9.1875 2.1875C9.1875 1.70425 9.57925 1.3125 10.0625 1.3125C10.5457 1.3125 10.9375 1.70425 10.9375 2.1875Z" fill="black"/>
</g>
<defs>
<clipPath id="clip0_5821_36605">
<rect width="14" height="14" fill="white"/>
</clipPath>
</defs>
</svg>
