<svg width="14" height="14" viewBox="0 0 14 14" fill="none" xmlns="http://www.w3.org/2000/svg">
<circle cx="7" cy="7" r="6.125" fill="black"/>
<path d="M7.875 4.375C7.875 3.89175 7.48325 3.5 7 3.5C6.51675 3.5 6.125 3.89175 6.125 4.375V6.5625C6.125 7.04575 6.51675 7.4375 7 7.4375C7.48325 7.4375 7.875 7.04575 7.875 6.5625L7.875 4.375Z" fill="white"/>
<path d="M7 10.5C7.48325 10.5 7.875 10.1082 7.875 9.625C7.875 9.14175 7.48325 8.75 7 8.75C6.51675 8.75 6.125 9.14175 6.125 9.625C6.125 10.1082 6.51675 10.5 7 10.5Z" fill="white"/>
</svg>
