<svg width="18" height="18" viewBox="0 0 18 18" fill="none" xmlns="http://www.w3.org/2000/svg">
<path d="M3.9375 15.1875H2.6875C2.13522 15.1875 1.6875 14.7398 1.6875 14.1875V9V3.8125C1.6875 3.26022 2.13522 2.8125 2.6875 2.8125H3.9375" stroke="black" stroke-width="1.23" stroke-linecap="round"/>
<path d="M14.0625 15.1875H15.3125C15.8648 15.1875 16.3125 14.7398 16.3125 14.1875V3.8125C16.3125 3.26022 15.8648 2.8125 15.3125 2.8125H14.0625" stroke="black" stroke-width="1.23" stroke-linecap="round"/>
<path d="M7.9521 4.98655C8.53084 4.40782 9.46916 4.40782 10.0479 4.98655L13.0134 7.9521C13.5922 8.53084 13.5922 9.46916 13.0134 10.0479L10.0479 13.0134C9.46916 13.5922 8.53084 13.5922 7.9521 13.0134L4.98655 10.0479C4.40782 9.46916 4.40782 8.53084 4.98655 7.9521L7.9521 4.98655Z" fill="#EBECF0" stroke="black" stroke-width="1.23"/>
</svg>
