<svg width="18" height="18" viewBox="0 0 18 18" fill="none" xmlns="http://www.w3.org/2000/svg">
<path d="M3.9375 15.1875H2.6875C2.13522 15.1875 1.6875 14.7398 1.6875 14.1875V9V3.8125C1.6875 3.26022 2.13522 2.8125 2.6875 2.8125H3.9375" stroke="#717171" stroke-linecap="round"/>
<path d="M14.0625 15.1875H15.3125C15.8648 15.1875 16.3125 14.7398 16.3125 14.1875V3.8125C16.3125 3.26022 15.8648 2.8125 15.3125 2.8125H14.0625" stroke="#717171" stroke-linecap="round"/>
<path d="M7.87109 4.90527C8.45579 4.32071 9.38062 4.28429 10.0078 4.7959L10.1289 4.90527L13.0947 7.87109C13.7182 8.49471 13.7182 9.50529 13.0947 10.1289L10.1289 13.0947C9.54421 13.6793 8.61938 13.7157 7.99219 13.2041L7.87109 13.0947L4.90527 10.1289C4.32071 9.54421 4.28429 8.61938 4.7959 7.99219L4.90527 7.87109L7.87109 4.90527Z" fill="#EBECF0" stroke="black"/>
</svg>
