<svg width="16" height="16" viewBox="0 0 16 16" fill="none" xmlns="http://www.w3.org/2000/svg">
<path d="M10.8665 14.4673C10.9911 14.5895 11.1587 14.6579 11.3332 14.6579C11.5077 14.6579 11.6752 14.5895 11.7998 14.4673L14.4665 11.8007C14.5628 11.6723 14.6095 11.5135 14.5982 11.3534C14.5868 11.1933 14.518 11.0427 14.4046 10.9292C14.2911 10.8158 14.1405 10.747 13.9804 10.7357C13.8204 10.7243 13.6615 10.771 13.5332 10.8673L11.9998 12.3873V2.00065C11.9998 1.82384 11.9296 1.65427 11.8046 1.52925C11.6795 1.40422 11.51 1.33398 11.3332 1.33398C11.1564 1.33398 10.9868 1.40422 10.8618 1.52925C10.7367 1.65427 10.6665 1.82384 10.6665 2.00065V12.394L9.13316 10.8607C9.00487 10.7523 8.84039 10.6963 8.67262 10.704C8.50484 10.7116 8.34614 10.7823 8.22823 10.9019C8.11032 11.0215 8.04189 11.1812 8.03662 11.349C8.03136 11.5169 8.08965 11.6806 8.19983 11.8073L10.8665 14.474V14.4673ZM4.19983 1.53398C4.32445 1.41183 4.492 1.34341 4.6665 1.34341C4.841 1.34341 5.00854 1.41183 5.13316 1.53398L7.79983 4.20065C7.89612 4.32903 7.94286 4.48784 7.93149 4.64791C7.92011 4.80798 7.85138 4.95858 7.7379 5.07206C7.62443 5.18553 7.47383 5.25426 7.31376 5.26564C7.15368 5.27702 6.99488 5.23027 6.8665 5.13398L5.33316 3.61398V14.0007C5.33316 14.1775 5.26293 14.347 5.1379 14.4721C5.01288 14.5971 4.84331 14.6673 4.6665 14.6673C4.48969 14.6673 4.32012 14.5971 4.19509 14.4721C4.07007 14.347 3.99983 14.1775 3.99983 14.0007V3.60732L2.4665 5.14065C2.3382 5.24903 2.17372 5.30499 2.00595 5.29734C1.83818 5.2897 1.67947 5.21901 1.56156 5.09942C1.44365 4.97982 1.37522 4.82013 1.36996 4.65226C1.36469 4.4844 1.42298 4.32073 1.53316 4.19398L4.19983 1.52732V1.53398Z" fill="#CED0D6"/>
</svg>
