<svg width="16" height="16" viewBox="0 0 16 16" fill="none" xmlns="http://www.w3.org/2000/svg">
<path d="M4.66683 0.666016C4.84364 0.666016 5.01321 0.736253 5.13823 0.861278C5.26326 0.986302 5.3335 1.15587 5.3335 1.33268V1.83268C5.3335 1.92602 5.40683 1.99935 5.50016 1.99935H10.5002C10.5935 1.99935 10.6668 1.92602 10.6668 1.83268V1.33268C10.6668 1.15587 10.7371 0.986302 10.8621 0.861278C10.9871 0.736253 11.1567 0.666016 11.3335 0.666016C11.5103 0.666016 11.6799 0.736253 11.8049 0.861278C11.9299 0.986302 12.0002 1.15587 12.0002 1.33268V1.83268C12.0002 1.92602 12.0735 1.99935 12.1668 1.99935H12.6668C13.1973 1.99935 13.706 2.21006 14.081 2.58514C14.4561 2.96021 14.6668 3.46892 14.6668 3.99935C14.6668 4.17616 14.5966 4.34573 14.4716 4.47075C14.3465 4.59578 14.177 4.66602 14.0002 4.66602H2.00016C1.82335 4.66602 1.65378 4.59578 1.52876 4.47075C1.40373 4.34573 1.3335 4.17616 1.3335 3.99935C1.3335 3.46892 1.54421 2.96021 1.91928 2.58514C2.29436 2.21006 2.80306 1.99935 3.3335 1.99935H3.8335C3.92683 1.99935 4.00016 1.92602 4.00016 1.83268V1.33268C4.00016 1.15587 4.0704 0.986302 4.19542 0.861278C4.32045 0.736253 4.49002 0.666016 4.66683 0.666016Z" fill="#6C707E"/>
<path fill-rule="evenodd" clip-rule="evenodd" d="M1.3335 6.66667C1.3335 6.48986 1.40373 6.32029 1.52876 6.19526C1.65378 6.07024 1.82335 6 2.00016 6H14.0002C14.177 6 14.3465 6.07024 14.4716 6.19526C14.5966 6.32029 14.6668 6.48986 14.6668 6.66667V12.6667C14.6668 13.1971 14.4561 13.7058 14.081 14.0809C13.706 14.456 13.1973 14.6667 12.6668 14.6667H3.3335C2.80306 14.6667 2.29436 14.456 1.91928 14.0809C1.54421 13.7058 1.3335 13.1971 1.3335 12.6667V6.66667ZM3.66683 8C3.57842 8 3.49364 8.03512 3.43113 8.09763C3.36861 8.16014 3.3335 8.24493 3.3335 8.33333V10.3333C3.3335 10.52 3.48016 10.6667 3.66683 10.6667H5.66683C5.75523 10.6667 5.84002 10.6315 5.90253 10.569C5.96504 10.5065 6.00016 10.4217 6.00016 10.3333V8.33333C6.00016 8.24493 5.96504 8.16014 5.90253 8.09763C5.84002 8.03512 5.75523 8 5.66683 8H3.66683Z" fill="#6C707E"/>
</svg>
