<svg width="16" height="16" viewBox="0 0 16 16" fill="none" xmlns="http://www.w3.org/2000/svg">
<path d="M8.5 1L9.5 2H12C12.5523 2 13 2.44772 13 3V6C13 6.55228 12.5523 7 12 7H6C5.44772 7 5 6.55228 5 6V2C5 1.44772 5.44772 1 6 1H8.5Z" fill="#43454A"/>
<path d="M8.5 9L9.5 10H11V11H9.5C8.67157 11 8 11.6716 8 12.5C8 13.3284 8.67157 14 9.5 14H11V15H6C5.44772 15 5 14.5523 5 14V10C5 9.44772 5.44772 9 6 9H8.5Z" fill="#43454A"/>
<path d="M9.5 2H12C12.5523 2 13 2.44772 13 3V6C13 6.55228 12.5523 7 12 7H6C5.44772 7 5 6.55228 5 6V4H3V11H5V10C5 9.44772 5.44772 9 6 9H8.5L9.5 10H11V11H9.08594L8.08594 10H6V14H11V15H6C5.44772 15 5 14.5523 5 14V12H3V14.5C3 14.7761 2.77614 15 2.5 15C2.22386 15 2 14.7761 2 14.5V1.5C2 1.22386 2.22386 1 2.5 1C2.77614 1 3 1.22386 3 1.5V3H5V2C5 1.44772 5.44772 1 6 1H8.5L9.5 2ZM6 6H12V3H9.08594L8.08594 2H6V6Z" fill="#CED0D6"/>
<path fill-rule="evenodd" clip-rule="evenodd" d="M12.5 9C12.7761 9 13 9.22386 13 9.5V12H15.5C15.7761 12 16 12.2239 16 12.5C16 12.7761 15.7761 13 15.5 13H13V15.5C13 15.7761 12.7761 16 12.5 16C12.2239 16 12 15.7761 12 15.5V13H9.5C9.22386 13 9 12.7761 9 12.5C9 12.2239 9.22386 12 9.5 12H12V9.5C12 9.22386 12.2239 9 12.5 9Z" fill="#3574F0"/>
</svg>
