<svg width="16" height="16" viewBox="0 0 16 16" fill="none" xmlns="http://www.w3.org/2000/svg">
<path d="M5.99707 8C8.03168 8.00005 9.25925 8.82726 10 9.80859V10H8.83789C8.26932 9.45143 7.39895 9.00004 5.99707 9C4.48691 9 3.59447 9.52355 3.03223 10.1279C2.5035 10.6963 2.20883 11.401 2.04883 12H7.08691C7.29297 12.5823 7.84708 13 8.5 13H1.90137C1.33961 13 0.897398 12.5368 1.02148 11.9893C1.3527 10.5284 2.43956 8 5.99707 8ZM13 8.84375C13.4785 9.17545 13.8493 9.57765 14.1367 10H13V8.84375ZM10.0859 8.00098C10.0457 8.11485 10.0184 8.23477 10.0068 8.35938C9.86588 8.23792 9.71647 8.1225 9.55859 8.01367C9.70033 8.0049 9.84663 8 9.99707 8C10.0269 8 10.0565 8.00062 10.0859 8.00098ZM6 2C7.38071 2 8.5 3.11929 8.5 4.5C8.5 5.88071 7.38071 7 6 7C4.6193 6.99999 3.5 5.8807 3.5 4.5C3.5 3.1193 4.6193 2.00001 6 2ZM10 2C11.3807 2.00003 12.5 3.11931 12.5 4.5C12.5 5.88069 11.3807 6.99997 10 7C9.54457 7 9.11775 6.87781 8.75 6.66504C8.95576 6.40404 9.12557 6.11317 9.25098 5.7998C9.47139 5.92708 9.72719 6 10 6C10.8284 5.99997 11.5 5.32841 11.5 4.5C11.5 3.67159 10.8284 3.00003 10 3C9.72719 3 9.47139 3.07292 9.25098 3.2002C9.12557 2.88683 8.95576 2.59596 8.75 2.33496C9.11775 2.12219 9.54457 2 10 2ZM6 3C5.17158 3.00001 4.5 3.67158 4.5 4.5C4.5 5.32842 5.17158 5.99999 6 6C6.82843 6 7.5 5.32843 7.5 4.5C7.5 3.67157 6.82843 3 6 3Z" fill="#CED0D6"/>
<path fill-rule="evenodd" clip-rule="evenodd" d="M11.5 8C11.7761 8 12 8.22386 12 8.5V11H14.5C14.7761 11 15 11.2239 15 11.5C15 11.7761 14.7761 12 14.5 12H12V14.5C12 14.7761 11.7761 15 11.5 15C11.2239 15 11 14.7761 11 14.5V12H8.5C8.22386 12 8 11.7761 8 11.5C8 11.2239 8.22386 11 8.5 11H11V8.5C11 8.22386 11.2239 8 11.5 8Z" fill="#3574F0"/>
</svg>
