<svg width="16" height="16" viewBox="0 0 16 16" fill="none" xmlns="http://www.w3.org/2000/svg">
<g id="Theme = Light">
<path id="Subtract" d="M5.99658 8C8.03189 8 9.25979 8.82784 10.0005 9.80957V10H8.83838C8.26979 9.4513 7.39877 9 5.99658 9C4.48662 9.00007 3.59395 9.52359 3.03174 10.1279C2.50315 10.6962 2.20832 11.4011 2.04834 12H7.0874C7.29346 12.5823 7.84756 13 8.50049 13H1.90088C1.33922 12.9999 0.897001 12.5367 1.021 11.9893C1.3522 10.5284 2.43932 8.00015 5.99658 8ZM13.0005 8.84375C13.4788 9.17535 13.8489 9.57783 14.1362 10H13.0005V8.84375ZM10.0864 8.00098C10.0461 8.11515 10.0189 8.2354 10.0073 8.36035C9.86624 8.23874 9.71712 8.12263 9.55908 8.01367C9.70061 8.00492 9.84638 8 9.99658 8C10.0266 8 10.0567 8.00062 10.0864 8.00098ZM6.00049 2C7.38099 2.00025 8.50049 3.11944 8.50049 4.5C8.50049 5.88056 7.38099 6.99975 6.00049 7C4.61978 7 3.50049 5.88071 3.50049 4.5C3.50049 3.11929 4.61978 2 6.00049 2ZM9.99951 2C11.3802 2 12.4995 3.11929 12.4995 4.5C12.4995 5.88071 11.3802 7 9.99951 7C9.54425 6.99992 9.11715 6.87774 8.74951 6.66504C8.95533 6.40401 9.12505 6.11322 9.25049 5.7998C9.47085 5.92712 9.72674 5.99992 9.99951 6C10.8279 6 11.4995 5.32843 11.4995 4.5C11.4995 3.67157 10.8279 3 9.99951 3C9.72674 3.00008 9.47085 3.07288 9.25049 3.2002C9.12505 2.88678 8.95533 2.59599 8.74951 2.33496C9.11715 2.12226 9.54425 2.00008 9.99951 2ZM6.00049 3C5.17206 3 4.50049 3.67157 4.50049 4.5C4.50049 5.32843 5.17206 6 6.00049 6C6.8287 5.99975 7.50049 5.32827 7.50049 4.5C7.50049 3.67173 6.8287 3.00025 6.00049 3Z" fill="#6C707E"/>
<path id="Vector 420" fill-rule="evenodd" clip-rule="evenodd" d="M11.5 8C11.7761 8 12 8.22386 12 8.5V11H14.5C14.7761 11 15 11.2239 15 11.5C15 11.7761 14.7761 12 14.5 12H12V14.5C12 14.7761 11.7761 15 11.5 15C11.2239 15 11 14.7761 11 14.5V12H8.5C8.22386 12 8 11.7761 8 11.5C8 11.2239 8.22386 11 8.5 11H11V8.5C11 8.22386 11.2239 8 11.5 8Z" fill="#3574F0"/>
</g>
</svg>
