<svg width="17" height="16" viewBox="0 0 17 16" fill="none" xmlns="http://www.w3.org/2000/svg">
<path d="M1 3.86667C1 2.83574 1.73127 2 2.63333 2H6.1217C6.39413 2 6.65477 2.11115 6.84336 2.30775L8.46667 4L13 4C14.1046 4 15 4.89543 15 6V8.23047C14.5649 8.07809 14 8 13.5 8H10V14H2.63333C1.73127 14 1 13.1643 1 12.1333V3.86667Z" fill="#402929"/>
<path d="M2.63333 3L6.1217 3L8.04022 5H13C13.5523 5 14 5.44771 14 6V8.01562C14.3437 8.04431 14.6812 8.1129 15 8.22455V6C15 4.89543 14.1046 4 13 4L8.46667 4L6.84336 2.30775C6.65477 2.11115 6.39413 2 6.1217 2H2.63333C1.73127 2 1 2.83574 1 3.86667V12.1333C1 13.1643 1.73127 14 2.63333 14H10V13H2.63333C2.40481 13 2 12.7416 2 12.1333V3.86667C2 3.25841 2.40481 3 2.63333 3Z" fill="#DB5C5C"/>
<path d="M13.7295 16C13.2245 16 12.7674 15.9195 12.3582 15.7584C11.9534 15.5973 11.629 15.3731 11.3853 15.0858C11.1458 14.7942 11.0174 14.4655 11 14.0998H12.0644C12.0818 14.3001 12.1645 14.4807 12.3125 14.6418C12.4605 14.7985 12.6564 14.9226 12.9002 15.014C13.144 15.1054 13.416 15.1511 13.7164 15.1511C14.0211 15.1511 14.2889 15.1011 14.5196 15.0009C14.7547 14.9008 14.9353 14.7615 15.0616 14.583C15.1922 14.4045 15.2575 14.2021 15.2575 13.9757C15.2575 13.732 15.1878 13.5274 15.0485 13.3619C14.9136 13.1922 14.7242 13.0855 14.4804 13.042L12.8675 12.7481C12.3539 12.6524 11.9534 12.4456 11.666 12.1278C11.3787 11.8057 11.2351 11.3986 11.2351 10.9067C11.2351 10.5541 11.3352 10.2341 11.5354 9.94683C11.74 9.65516 12.0252 9.42444 12.3909 9.25466C12.7565 9.08489 13.1744 9 13.6446 9C14.1104 9 14.5305 9.07618 14.9049 9.22855C15.2792 9.38091 15.5774 9.59204 15.7994 9.86194C16.0215 10.1318 16.1412 10.4322 16.1586 10.7631H15.0942C15.0812 10.5889 15.0093 10.4322 14.8787 10.2929C14.7525 10.1536 14.5827 10.0448 14.3694 9.96642C14.1561 9.88806 13.9167 9.84888 13.6511 9.84888C13.3812 9.84888 13.1418 9.89459 12.9328 9.98601C12.7239 10.0774 12.5606 10.2037 12.4431 10.3647C12.3299 10.5215 12.2733 10.6999 12.2733 10.9002C12.2733 11.1266 12.3364 11.3137 12.4627 11.4618C12.5889 11.6098 12.7739 11.7055 13.0177 11.7491L14.6698 12.0429C15.0093 12.1039 15.301 12.2236 15.5448 12.4021C15.7929 12.5805 15.9801 12.8026 16.1063 13.0681C16.2369 13.3336 16.3022 13.6231 16.3022 13.9366C16.3022 14.3284 16.1891 14.681 15.9627 14.9944C15.7407 15.3078 15.4338 15.5538 15.042 15.7323C14.6502 15.9108 14.2127 16 13.7295 16Z" fill="#DB5C5C"/>
</svg>
