<svg width="16" height="16" viewBox="0 0 16 16" fill="none" xmlns="http://www.w3.org/2000/svg">
<path fill-rule="evenodd" clip-rule="evenodd" d="M3 3H13C13.2652 3 13.5196 3.10536 13.7071 3.29289C13.8946 3.48043 14 3.73478 14 4C14 4.26522 13.8946 4.51957 13.7071 4.70711C13.5196 4.89464 13.2652 5 13 5H3C2.73478 5 2.48043 4.89464 2.29289 4.70711C2.10536 4.51957 2 4.26522 2 4C2 3.73478 2.10536 3.48043 2.29289 3.29289C2.48043 3.10536 2.73478 3 3 3ZM5.78 14C5.55707 14 5.34054 13.9255 5.16479 13.7883C4.98905 13.6512 4.86417 13.4592 4.81 13.243L3.156 6.62C3.13782 6.54646 3.13659 6.46975 3.15239 6.39566C3.1682 6.32157 3.20064 6.25204 3.24726 6.19232C3.29387 6.13261 3.35345 6.08427 3.42149 6.05095C3.48953 6.01763 3.56424 6.00021 3.64 6H12.36C12.4359 6.00002 12.5109 6.01734 12.5791 6.05065C12.6474 6.08396 12.7072 6.13238 12.7539 6.19224C12.8007 6.2521 12.8332 6.32182 12.8489 6.39611C12.8647 6.4704 12.8634 6.54731 12.845 6.621L11.189 13.243C11.1348 13.4592 11.01 13.6512 10.8342 13.7883C10.6585 13.9255 10.4419 14 10.219 14H5.781H5.78ZM7 2H9C9.26522 2 9.51957 2.10536 9.70711 2.29289C9.89464 2.48043 10 2.73478 10 3H6C6 2.73478 6.10536 2.48043 6.29289 2.29289C6.48043 2.10536 6.73478 2 7 2Z" fill="#3574F0"/>
</svg>
