<svg xmlns="http://www.w3.org/2000/svg" width="200" height="200" fill="none" viewBox="0 0 200 200"><path fill="#C7D4FF" d="M139.867 124.998c6.733 2.967-4.233 3.333-18.967 4.5-14.733 1.2-23.0665.133-34.0331-.033-10.9334-.167-27.1334.6-28.2334-2.667-1.1333-3.267 8.0333-5.467 8.8667-7.3.8-1.8-19.4667-.8-18.9667-2.9.1667-.7.8-1.333 1.8334-1.9 8.9333-4.967 47.6333-5.433 66.4671-5.567 21-.166 42.766-.466 51.433 4.5 1.167.667 1.667 1.234 1.633 1.734-.133 3.266-22.133 3.433-28.7 4.466-7.666 1.167-8.066 2.2-1.333 5.167Z"/><path fill="#99ADF9" d="M130 119.532c4.966 1.934-3.134 2.134-14 2.9-10.9.734-17.0669.067-25.1336-.066-8.1-.134-20.0333.366-20.8666-1.767-.8334-2.133 5.9333-3.533 6.5333-4.7.6-1.167-14.4-.533-14.0333-1.933.1333-.467.6-.867 1.3333-1.234 6.6-3.2 35.2-3.433 49.0999-3.533 15.5-.1 35.033-1.133 38 2.033 1.433 1.534-15.133 4.3-20 4.934-5.633.766-5.933 1.433-.933 3.366Z"/><path fill="#99ADF9" d="M139.867 124.999c6.733 2.967-4.233 3.334-18.967 4.5-14.733 1.2-23.0665.134-34.0331-.033-10.9334-.167-27.1334.6-28.2334-2.667-1.1333-3.266 8.0333-5.466 8.8667-7.3.8-1.8-19.4667-.8-18.9667-2.9.1667-.7.8-1.333 1.8334-1.9.2666.5 1.3333 1 4.2999 1.234 6.7667.5 16.3334.866 16.9 2.3.5667 1.433-9.3999 5.366-8.1333 7.366 1.2667 1.967 28.1 1.167 44.1335 1.734 16.033.566 30.3-.467 28.467-1.567-1.834-1.1-6.3-3.533-2.934-5.733 3.367-2.2 21.934-2.567 29.767-3.334 3.2-.3 5.467-.833 7-1.333-.133 3.267-22.133 3.433-28.7 4.467-7.633 1.166-8.033 2.2-1.3 5.166ZM158 112.965c-2.033.167-1.867 2.167 1.6 1.7 3.433-.433 2.367-2.033-1.6-1.7Z"/><path fill="#99ADF9" d="M145.967 114.466c-2.034.167-1.867 2.167 1.6 1.7 3.466-.4 2.366-2.033-1.6-1.7ZM58.4003 113.633c-2.0334.167-1.8667 2.167 1.6 1.7 3.4666-.4 2.3666-2-1.6-1.7ZM69.2665 120.532c-2.0334.166-1.8667 2.166 1.6 1.7 3.4333-.434 2.3666-2.034-1.6-1.7Z"/><path fill="#C7D4FF" d="M176.767 123.333c-2.3 1.566-5.833 1.9-11.066 1.966-3.767.067-5.9-1.133-5.634-2.3.2-.866 1.767-1.7 4.967-2.033 5.967-.6 11.433.133 12.167 1.3.233.333.1.7-.434 1.067ZM63.9002 108.733c-2.7667 1.6-7.1 2.033-13.5667 2.233-4.6333.134-7.3-1-6.9667-2.166.2334-.867 2.1334-1.767 6.0667-2.134 7.3-.733 14.0667-.133 15.0333 1.034.2667.3.1.633-.5666 1.033ZM169.934 59.3665s4.533-.4667 9.566 6.0666c4 5.1667 3.1 11.3334 3.1 11.3334s3.067-6.3334-1.066-12.2334c-4.434-6.3-11.6-5.1666-11.6-5.1666ZM167.533 79.7324s1.2 2.8.067 6.8c-1.134 4-3.267 5.6667-3.267 5.6667s3.833-1.0333 4.767-5.5c.966-4.5-1.567-6.9667-1.567-6.9667Z"/><path fill="#99ADF9" d="M71.3003 82.7993s-.4666-2.6 3.2-7.5c3.6667-4.9 9-6.7666 9-6.7666L77.0337 55.166s2.4333 9.3667-1.1334 12.1667c-3.6 2.8-9.5333-.8-9.5333-.8s3.5333 6.2 2.4 8.9333c-1.1 2.7333-7.1 3.2-7.1 3.2l9.6333 4.1333ZM91.933 135.668l-4 4.8c-.4.5-1.1666.566-1.6666.133-.5-.4-.5667-1.167-.1334-1.667.0334-.033.1-.1.1334-.133l4.7333-4.1c.2667-.233.7-.2.9333.067.2334.3.2.666 0 .9ZM97.5 136.234l-.7999 9.734c-.0334.533-.5334.933-1.0667.9-.5334-.034-.9333-.534-.9-1.067v-.033l1.3-9.7c.0667-.4.4333-.667.8333-.634.4.067.6667.434.6333.8ZM103.199 135.868l2.634 6.9c.233.6-.067 1.3-.667 1.533-.6.233-1.3-.067-1.533-.667-.034-.033-.034-.1-.034-.166l-1.666-7.2c-.067-.367.133-.7.5-.8.333-.067.666.1.766.4ZM108.567 134.767l3.966 2.666c.534.367.7 1.1.334 1.634-.367.533-1.1.7-1.634.333-.066-.033-.133-.1-.166-.133l-3.434-3.334c-.3-.3-.3-.766 0-1.033.234-.3.634-.333.934-.133Z"/><path fill="#FEC272" d="M178.4 84.8673c-1.967 6.1333-10.567 9.2666-10.567 9.2666s.1-.1.267-.2666c1.233-1.4 6.333-7.8667 1.966-16.2667-4.933-9.5333-21.233-6.2667-21.233-6.2667l-.367-2.3667-.4-2.4666s8.867-7.9 20.834-3.4c11.4 4.3 11.466 15.6667 9.5 21.7667Z"/><path fill="#FCAA51" d="M172.067 90.1999c-.934 1.4666-2.4 2.7-3.934 3.6666 1.234-1.4 6.334-7.8666 1.967-16.2666-4.933-9.5334-21.233-6.2667-21.233-6.2667l-.367-2.3667c3.533-.5 12.867-1.3 19.2 2.3667 7.533 4.3667 7.5 13.9667 4.367 18.8667Z"/><path fill="#FEC272" d="M151.7 78.834c-.166 5.3-1.033 9.9-2.233 12.5667-2.567 5.8-4.367 9.1003-8.133 12.0333-1.4 1.1-3.067 2.133-5.167 3.233-7.7 4.034-28.667 4.3-28.667 4.3-.833.067-1.666.134-2.5.167-7.6331.4-14.8331-.433-19.2664-2.833-2.0667-1.1-3.5334-2.567-4.1667-4.367-2.1-6.1333-2.8667-15.5 11.0667-39.2333C101.6 49.434 112.8 43.4007 123.4 43.4673c5.634.0334 11.067 1.8 15.934 4.8.2.1334.433.2667.633.4 9.4 6.0667 12.067 19.5334 11.733 30.1667Z"/><path fill="#FFCB8D" d="M123.4 43.4341c-6.266 2.5334-15.9 8.8334-24.633 24.5-11.1 19.9-12.8333 34.5999-13.0666 40.3329-2.0667-1.1-3.5334-2.566-4.1667-4.366-2.1-6.1335-2.8667-15.5002 11.0667-39.2335 9.0336-15.2667 20.2336-21.3 30.7996-21.2334Z"/><path fill="#FCAA51" d="M151.7 78.8336c-.166 5.3-1.033 9.9-2.233 12.5667-3.533 7.9333-5.6 11.1997-13.3 15.2337-7.7 4.033-28.667 4.3-28.667 4.3-.833.066-1.666.133-2.5.166-.233-3.166.567-7.433 2.434-12.9997 5.666-17 14.666-23.2667 24.833-25.2333 8.767-1.6667 15.6 2.6 19.433 5.9666Z"/><path fill="#FCAA51" d="M151.701 78.8342c-.167 5.3-1.034 9.9-2.234 12.5667-2.566 5.8-4.366 9.1001-8.133 12.0331 2.333-6.4664 4.567-15.3664 4.767-26.0998.233-14.2-3.7-23.8333-6.767-29.0666.2.1333.433.2666.633.4 9.4 6.0666 12.067 19.5333 11.734 30.1666Z"/><path fill="#FEC272" d="M151.867 81.3002c-.533 6.2334-3.133 16.2334-5.567 22.8668-.966 2.633-1.9 4.767-2.7 5.867-1.333 1.9-3.933 2.733-6.533 2.9-2.733.2-5.5-.267-6.767-.967-2.333-1.233-8.133-11.867-6.833-23.4668.067-.7.167-1.3999.3-2.0999C126.1 74.0336 131.9 70.5669 140.7 71.5336c1.734.2 3.567.5 5.267 1.1 3.533 1.2666 6.367 3.6666 5.9 8.6666Z"/><path fill="#FCAA51" d="M146.3 104.167c-.966 2.633-1.9 4.766-2.7 5.866-2.733 3.9-10.8 3.267-13.3 1.967-2.333-1.233-8.133-11.867-6.833-23.4668.733 5.3667 3.4 12.8998 12.3 14.8338 4.3.966 7.767 1.1 10.533.8Z"/><path fill="#FCAA51" d="M151.866 81.2995c-.533 6.2333-3.133 16.2333-5.566 22.8665-.967 2.633-1.9 4.767-2.7 5.867-1.334 1.9-3.934 2.733-6.534 2.9 2.634-4.734 8.7-17.6335 9-35.6335.034-1.6 0-3.1667-.066-4.6667 3.5 1.2667 6.333 3.6667 5.866 8.6667Z"/><path fill="#FEC272" d="M143.367 114.434c-.3.067-.767.134-1.333.167-.434.033-.9.1-1.434.133-1 .067-2.133.134-3.3.167-.466 0-.966.033-1.433.033-1 .034-1.967 0-2.867 0h-.366c-.367 0-.734-.033-1.034-.033-.133 0-.266-.033-.366-.033-.534-.034-.934-.134-1.234-.2-2.033-.634-3.266-2.634-1.7-5.067 1.567-2.433 4.967-4.367 9.467-4.367 4.5 0 8.267 2.634 8.467 5.467.2 2.8-.767 3.333-2.867 3.733Z"/><path fill="#FFA245" d="M137.334 110.468v4.433c-.467 0-.967.033-1.434.033v-4.466c0-.4.334-.734.7-.734.367 0 .734.334.734.734ZM133.067 110.534v4.4h-.367c-.366 0-.733-.033-1.033-.033v-4.333c0-.434.333-.8.7-.8.367-.034.7.333.7.766ZM142.067 110.468v4.133c-.433.033-.9.1-1.433.133v-4.266c0-.4.333-.734.7-.734.366 0 .733.334.733.734Z"/><path fill="#FF8D76" d="M87.2999 88.4005c-2.7333 5.7333-.7667 19.6665-2.7333 23.9665-1.9667 4.3-7.3 6.5-12.7667 6.4-.6 0-1.1667-.1-1.7333-.233-4.6-1.134-7.8667-6.234-5.3-12.267 2.8666-6.7666 9.6666-10.1665 12.5-20.1999 2.5666-9 6.1666-10.6 9.8333-11 1.2333-.1333 2 .4 2.4333 1.3667 1.1 2.4333-.2333 7.8333-2.2333 11.9667Z"/><path fill="#FC7059" d="M87.3001 88.3999c-2.7333 5.7333-.7666 19.6671-2.7333 23.9671-1.9667 4.3-7.3 6.5-12.7667 6.4-.6 0-1.1666-.1-1.7333-.234-.7333-1.7-1.0333-4.233-.0667-7.9 2.4334-9.2 7.1334-10.9331 8-17.3998.9-6.4666 1-10.4667 3.3334-13.9667 2.1-3.1333 7.1-2.9333 8.2-2.8333 1.1 2.4333-.2334 7.8334-2.2334 11.9667Z"/><path fill="#FF8D76" d="M131 107.301c-.367 1.133-.967 2.1-1.734 2.933-3 3.267-8.466 4.333-11.666 3.8-4-.667-7.934-8.7-7.534-14.6668.4-5.9666-3.9-13.8-4.966-17.7-.8-2.9-.667-5.1.2-6.4333.3-.4667.7-.8333 1.166-1.1 1.1-.5667 5.167-2.3333 9.4 4 4.2 6.3667 3.9 9.7667 8.6 14.4667 4.7 4.7333 8.3 9.1334 6.534 14.7004Z"/><path fill="#FC7059" d="M129.299 110.233c-3 3.267-8.466 4.334-11.666 3.8-4-.666-7.934-8.7-7.534-14.6662.4-5.9667-3.9-13.8-4.966-17.7-.8-2.9-.667-5.1.2-6.4334 2.533-.3666 6.533.0334 8.4 5.2667 2.866 7.9667 2.466 12.0667 6.9 15.9667 4.433 3.9002 8.1 8.1332 8.666 13.7002v.066Z"/><path fill="#FEC272" d="M123.734 112.799c-.434 3.667-2.367 6.134-6.8 7.7-6.634 2.334-12.8-.766-15.234-1.166-2.4998-.434-6.2664 1.966-10.0664 3.3-3.8 1.366-10.9334 1.866-14.7334-1.9-2-2-3.3-4.834-3.5333-7.8-.2333-2.6.3667-5.334 1.9667-7.734 3.4-5.066 5.2-10.0329 5.7333-19.7996.5333-9.7667 8.1333-13.7 15.4333-14.3333 2.3-.2 8.6998-.5334 13.5668 3.7666 4.9 4.3 4.5 13.1 6.167 17.4 1.666 4.3 6.166 6.9334 7.233 14.2663.367 2.434.5 4.5.267 6.3Z"/><path fill="#FCAA51" d="M104.7 107.066c-.966 2.634-3.333 4.534-4.9329 4.534-1.6 0-4.7-1.534-6.2-2.934-1.6-1.5-1.7-2.933-1.3333-3.9 0-.033.0333-.1.0666-.133.4333-.933 3.0333-1.767 6.3-2.2 2.4996-.333 5.3336-.4 5.9996.033.167.134.334.3.467.567.333.767.367 2.1-.367 4.033ZM123.734 112.799c-.433 3.666-2.367 6.133-6.8 7.7-6.633 2.333-12.8-.767-15.233-1.167-2.5005-.433-6.2671 1.967-10.0671 3.3-3.8 1.367-10.9334 1.867-14.7334-1.9-2-2-3.3-4.833-3.5333-7.8 1.5667 2.567 4.8333 6.933 9.1333 7.667 6.1334 1.033 9.7667-4.434 18.2665-4.434 10.934 0 11.734 4.167 18.567.6 1.9-1.033 3.333-2.466 4.4-3.966Z"/><path fill="#FC7059" d="M104.5 116.599c-.066.733-.166 1.567-.4 2.4-.633 2.333-3.233 3.767-5.3663 2.333-1.3667-.9-2.0334-2.966-2.3334-4.366-.1666-.834-.2333-1.4-.2333-1.4l4.067-4.334 4.333 3c-.033 0 .033 1.034-.067 2.367Z"/><path fill="#F45145" d="M104.5 116.599c-2.1.2-4.033-1.167-4.033-1.167s-.7667.8-2.4 1.4c-.5333.2-1.1333.234-1.6667.167-.1666-.833-.2333-1.4-.2333-1.4l4.067-4.333 4.333 3c-.033-.034.033 1-.067 2.333Z"/><path fill="#1C3177" d="M87.3674 112.633c-.9667 1.1 1.3333 3.6 5.0666 4.1 3.7667.5 7.3334-1.5 7.733-3.067.4-1.566.034-4.066.034-4.066h-1.267s.4 3.566-2.8333 5c-5 2.2-8.0667-2.767-8.7333-1.967Z"/><path fill="#1C3177" d="M100.8 108.898s.234 3.367 3.334 4.6c3.066 1.234 4.466.434 5.633-.1 1.267-.6 1.267-1.866 2.167-1.5.466.2.3 1.867-1.3 2.934-1.9 1.266-3.767 1.433-6.367.8-2.6-.634-4-1.8-4.3333-3.234-.3333-1.433-.5333-3.066-.5333-3.066l1.3996-.434Z"/><path fill="#1C3177" d="M104.7 105.566c-.966 2.634-3.333 4.534-4.9329 4.534-1.6 0-4.7-1.534-6.2-2.934-1.6-1.5-1.7-2.933-1.3333-3.9 0-.033.0333-.1.0666-.133.4333-.933 3.0333-1.767 6.3-2.2 2.4996-.333 5.3336-.4 5.9996.033.167.134.334.3.467.567.333.8.367 2.1-.367 4.033Z"/><path fill="#0B2359" d="M104.7 105.567c-.966 2.633-3.333 4.533-4.9329 4.533-1.6 0-4.7-1.533-6.2-2.933-1.6-1.5-1.7-2.934-1.3333-3.9.1666 0 .3333.066.5.266.8.867 1.4999 2.734 4.3999 4.367 2.9333 1.633 4.2663.433 5.5663-1.267 1.3-1.7 1.534-4.633 2.167-5.033.067-.033.1-.067.167-.067.366.8.4 2.1-.334 4.034Z"/><path fill="#1C3177" d="M87.4665 101.2c1.3439 0 2.4334-1.6118 2.4334-3.6 0-1.9882-1.0895-3.6-2.4334-3.6-1.3439 0-2.4333 1.6118-2.4333 3.6 0 1.9882 1.0894 3.6 2.4333 3.6ZM109.281 99.4525c1.336-.14 2.252-1.8566 2.045-3.8341-.207-1.9775-1.459-3.4671-2.795-3.327-1.337.14-2.253 1.8566-2.046 3.8341.208 1.9775 1.459 3.467 2.796 3.327Z"/><path fill="#FF8D76" d="M85.7998 86.2657c-1.3667 1.1667-2.1334 2.5-2.5 3.5-.4.9667.0666 1.3334 1.2333 1.3667 1.1667.0333 3.1333-1.4 4.2-3.0667 1.0667-1.7-.8333-3.6333-2.9333-1.8ZM109.133 84.1335c1.533.9333 2.467 2.1666 3.033 3.0666.567.9.134 1.3334-1 1.5334-1.166.2-3.3-.9-4.633-2.3667-1.333-1.4667.233-3.7 2.6-2.2333Z"/><path fill="#1C3177" d="M24.2998 157.1c-1.5334-.033-2.5334-.1-2.7-.1-.8667-.066-1.5-.8-1.4667-1.666.0667-.867.7667-1.534 1.6667-1.467.1666 0 11.7666 1.2 21.3333-2.733 3.5333-1.434 5.5-2.734 5.8667-3.767.2666-.767-.3334-1.9-1.3334-3.7-.3333-.6-.7-1.233-1.0666-1.933-.8-1.567-.8667-3.3-.2-4.967 2.1666-5.333 11.3333-8.867 14.1-9.8 15.3666-5.267 26.9333-3.233 27.4-3.133.8333.166 1.4.966 1.2666 1.833-.1667.867-.9666 1.4-1.8333 1.267-.1-.034-11.3-1.967-25.8333 3.033-6.3334 2.167-11.1334 5.333-12.2334 8-.3333.833-.3 1.6.1 2.367.3334.633.6667 1.266 1 1.833 1.2 2.1 2.3 4.1 1.5667 6.267-.7 2.066-3 3.733-7.6333 5.633-7.8334 3.2-14.8 3.167-20 3.033Z"/><path fill="#F0F6FF" d="M84.6993 127.868c.5667 1.333 1.9334 2.166 4.2 2.566 3.4334.6 5.6334-.266 5.6334-.266l-.0667-1.267-.4667-7.4s-2.9333-.4-6 .6c-2.7.9-3.8666 2.367-3.6333 4.6.0667.4.1667.8.3333 1.167Z"/><path fill="#C2D7EF" d="M93.9504 121.43c-.6798.044-1.1062 2.045-.9524 4.47.1539 2.425.8296 4.356 1.5094 4.313.6798-.043 1.1062-2.044.9524-4.469-.1539-2.426-.8296-4.357-1.5094-4.314Z"/><path fill="#C2D7EF" d="M84.6992 127.867c.5667 1.334 1.9334 2.167 4.2 2.567 3.4334.6 5.6334-.267 5.6334-.267l-.0667-1.266c-1.3334-.067-3.0334-.167-4.6667-.334-2.3333-.3-4.0666-.533-5.1-.7Z"/><path fill="#87AACC" d="m97.8995 124.567-3.0334.3c-.4.034-.7666-.266-.8-.666l-.0333-.2c-.0333-.4.2667-.767.6667-.8l3.0333-.3c.4667-.034.8667.3.9.733.0667.5-.2667.9-.7333.933ZM98.1993 128.3l-3.0334.3c-.4.033-.7666-.267-.8-.667l-.0333-.2c-.0333-.4.2667-.767.6667-.8l3.0333-.3c.4667-.033.8667.3.9.733.0667.5-.2667.9-.7333.934Z"/><path fill="#1C3177" d="M178.967 156.399c-2.267-.067-22.2-.8-27.967-7.933-3.9-4.834-1.6-8.1.4-11 .467-.667.934-1.367 1.367-2.067.7-1.2.733-2.5.067-3.733-.7-1.3-3.3-4.367-12.167-4.734-12.7-.566-29.167.134-29.333.167-.867.033-1.6-.633-1.634-1.5-.033-.867.634-1.6 1.5-1.633.167 0 16.8-.734 29.634-.167 10.066.467 13.566 4.2 14.766 6.4 1.2 2.2 1.134 4.667-.1 6.8-.466.833-1 1.567-1.5 2.267-1.966 2.833-2.966 4.266-.533 7.266 4.233 5.234 20.067 6.667 25.8 6.767.867.033 1.533.733 1.533 1.6-.033.867-.733 1.533-1.6 1.533-.1-.033-.166-.033-.233-.033Z"/><path fill="#F0F6FF" d="M113.367 126.599c-.466 1.367-1.733 2.334-3.966 2.9-3.367.867-5.634.167-5.634.167l-.033-1.267-.133-7.4s2.9-.666 6 .1c2.766.667 4.033 2.034 4 4.3-.034.434-.1.834-.234 1.2Z"/><path fill="#C2D7EF" d="M113.367 126.6c-.467 1.366-1.734 2.333-3.967 2.9-3.367.866-5.633.166-5.633.166l-.034-1.266c1.334-.167 3-.4 4.634-.734 2.3-.433 3.966-.8 5-1.066Z"/><path fill="#C2D7EF" d="M103.778 129.729c.681-.013 1.197-1.993 1.152-4.422-.045-2.43-.633-4.389-1.314-4.377-.681.013-1.197 1.993-1.152 4.422.045 2.43.633 4.389 1.314 4.377Z"/><path fill="#87AACC" d="M103.691 125.029c.166-.003.288-.662.273-1.472-.015-.81-.161-1.464-.327-1.461-.166.003-.288.662-.273 1.472.015.81.161 1.464.327 1.461ZM103.691 128.83c.166-.003.288-.662.273-1.472-.015-.81-.161-1.464-.327-1.461-.166.003-.288.662-.273 1.472.015.81.161 1.464.327 1.461Z"/><path fill="#FCAA51" d="M82.5333 126.168c0 .266 0 .533-.0334.766-.1666 1.7-1 2.934-2.8 3.767-.5.233-1.1.433-1.8.567-1.2.3-2.7.466-4.5.566-.4.034-.8333.034-1.3.034h-.9667c-1.1333 0-2.1999-.034-3.1999-.1-.6667-.067-1.3334-.167-1.9-.267-2.4667-.533-4.0667-1.7-4.3667-4 .2 1.7-3.4-9.367 10.3667-10.667 6.3666-.633 10.5 5.534 10.5 9.334Z"/><path fill="#FEC272" d="M82.5333 126.167c0 .267 0 .533-.0334.767-1.3333 1.8-4.4666 2.667-10.4666 2.767-4.7667.1-8.6-.234-10.3667-2.234.2 1.7-3.4-9.366 10.3667-10.666 6.3666-.6 10.5 5.566 10.5 9.366Z"/><path fill="#FFA245" d="M67.9333 131.767c-.6667-.066-1.3333-.166-1.9-.266-.1-.9-.3-3.067-.1333-4.867.2333-2.367 1.1333-2.5 1.4-2.067.2666.434.1 2.967.4 5.3.0666.667.1666 1.334.2333 1.9ZM79.6998 130.7c-.5.233-1.1001.433-1.8001.566-.0666-.633-.1333-1.4-.2333-2.2-.2667-2.333-1.0333-4.766-.9-5.233.1333-.467 1.0667-.567 1.8333 1.7.7667 2.1 1.0667 4.8 1.1001 5.167ZM73.4003 131.833c-.4.033-.8333.033-1.3.033h-.9666c0-.9-.0334-2.1-.1-3.2-.1-2.166-.1667-3.566.5-3.7.6666-.133 1.3666 2.267 1.6666 4.8.1.867.1667 1.534.2 2.067Z"/><path fill="#FCAA51" d="M115.5 124.433c0 .266.033.533.067.766.2 1.7 1.033 2.934 2.833 3.7.533.234 1.133.4 1.8.567 1.2.267 2.7.433 4.5.5.4 0 .833.033 1.3.033h.966c1.134 0 2.2-.033 3.2-.166.667-.067 1.301-.167 1.9-.3 2.434-.567 4.034-1.734 4.3-4.067.434-3.933-4.133-10-10.5-10.533-6.366-.534-10.433 5.666-10.366 9.5Z"/><path fill="#FEC272" d="M115.5 124.433c0 .266.033.533.067.766 1.366 1.8 4.5 2.6 10.5 2.634 4.766.033 8.6-.367 10.333-2.367.433-3.933-4.133-10-10.5-10.533-6.4-.534-10.467 5.666-10.4 9.5Z"/><path fill="#FFA245" d="M130.166 129.832c.667-.067 1.3-.167 1.9-.3.1-.9.267-3.067.067-4.867-.267-2.366-1.167-2.5-1.434-2.066-.233.433-.033 2.966-.3 5.3-.066.7-.166 1.333-.233 1.933ZM118.399 128.899c.534.233 1.134.4 1.8.566.034-.633.1-1.4.2-2.2.234-2.333.967-4.766.8-5.233-.133-.467-1.066-.567-1.833 1.7-.667 2.1-.933 4.8-.967 5.167ZM124.7 129.932c.4 0 .834.034 1.3.034h.967c0-.9 0-2.1.033-3.2.067-2.167.1-3.567-.533-3.7-.667-.134-1.333 2.3-1.6 4.833-.1.867-.133 1.533-.167 2.033Z"/></svg>