<svg width="16" height="16" viewBox="0 0 16 16" fill="none" xmlns="http://www.w3.org/2000/svg">
<path d="M8.16407 11.564C8.69826 11.4251 9.26498 11.511 9.64188 11.8879L11.852 14.098C11.9739 14.2199 12.1415 14.2862 12.3178 14.2822C12.4942 14.2783 12.6649 14.2044 12.7924 14.0769L14.0777 12.7916C14.2052 12.6641 14.279 12.4934 14.283 12.3171C14.287 12.1407 14.2207 11.9731 14.0988 11.8512L11.8887 9.64113C11.5118 9.26423 11.4258 8.6975 11.5647 8.16332C11.7917 7.27783 11.7932 6.3593 11.569 5.49336C11.3448 4.62743 10.9023 3.84227 10.2826 3.21107C9.66292 2.57988 8.8863 2.12319 8.02514 1.8836C7.16397 1.644 6.24629 1.62928 5.35764 1.84082C4.88991 1.95003 4.76438 2.51681 5.09072 2.84315L7.83933 5.59176C7.96123 5.71366 8.02748 5.88122 8.02352 6.05758C8.01956 6.23395 7.94569 6.40466 7.81818 6.53217L6.53292 7.81743C6.40541 7.94494 6.2347 8.0188 6.05834 8.02276C5.88198 8.02673 5.71442 7.96047 5.59251 7.83857L2.84391 5.08996C2.51757 4.76362 1.95079 4.88916 1.84158 5.35688C1.63004 6.24554 1.64475 7.16321 1.88435 8.02438C2.12395 8.88555 2.58063 9.66216 3.21183 10.2818C3.84302 10.9015 4.62818 11.3441 5.49412 11.5683C6.36006 11.7925 7.27858 11.791 8.16407 11.564Z" fill="#CED0D6"/>
</svg>
