<svg width="16" height="16" viewBox="0 0 16 16" fill="none" xmlns="http://www.w3.org/2000/svg">
<g clip-path="url(#clip0_8061_21291)">
<path d="M10.5 6.5V5C10.5 3.61929 9.38071 2.5 8 2.5V2.5C6.61929 2.5 5.5 3.61929 5.5 5V6.5" stroke="#9DA0A8"/>
<path d="M11 6C12.1046 6 13 6.89543 13 8V12C13 13.1046 12.1046 14 11 14H5C3.89543 14 3 13.1046 3 12V8C3 6.89543 3.89543 6 5 6H11ZM8 8.5C7.72386 8.5 7.5 8.72386 7.5 9V11C7.5 11.2761 7.72386 11.5 8 11.5C8.27614 11.5 8.5 11.2761 8.5 11V9C8.5 8.72386 8.27614 8.5 8 8.5Z" fill="#9DA0A8"/>
</g>
<defs>
<clipPath id="clip0_8061_21291">
<rect width="16" height="16" fill="white"/>
</clipPath>
</defs>
</svg>
