<svg xmlns="http://www.w3.org/2000/svg" width="18" height="18" fill="none" viewBox="0 0 18 18"><path fill="#5a5d63" d="M11.25 11.25h3.38v-1.12h-3.38zM13.5 15.75h3.38v-1.12H13.5zM12.38 13.5h3.37v-1.12h-3.37z"/><path fill="#5a5d63" d="M9.56 11.25A2.8 2.8 0 0 0 8.21 8.9l4.17-7.21-.98-.56L7.14 8.5a3.2 3.2 0 0 0-2.95.84c-2.1 2.04-1.94 6.78-1.93 6.99a.56.56 0 0 0 .56.54h8.43a.56.56 0 0 0 .34-1.02c-2-1.5-2.03-4.58-2.03-4.61M6.71 9.56a1.75 1.75 0 0 1 1.73 1.69v.26l-3.3-1.47a2.1 2.1 0 0 1 1.57-.48m1.98 6.19a3 3 0 0 1-.81-1.69H6.75q.07.91.54 1.69H6.04a9 9 0 0 1-.41-2.25H4.5q.06 1.15.37 2.25h-1.5c.02-1.03.17-3.31 1.02-4.81l4.24 1.88q.3 1.6 1.27 2.93z"/></svg>