<svg width="16" height="16" viewBox="0 0 16 16" fill="none" xmlns="http://www.w3.org/2000/svg">
<path d="M1.14644 10.1465C0.951185 10.3417 0.951185 10.6583 1.14644 10.8535L4.14644 13.8535L4.22457 13.918C4.41865 14.0461 4.68261 14.0244 4.85347 13.8535L7.85347 10.8535L7.91793 10.7754C8.04609 10.5813 8.02434 10.3173 7.85347 10.1465C7.68261 9.97562 7.41865 9.95387 7.22457 10.082L7.14644 10.1465L4.99996 12.293L4.99996 2.5C4.99996 2.22386 4.7761 2 4.49996 2C4.22382 2 3.99996 2.22386 3.99996 2.5L3.99996 12.293L1.85347 10.1465C1.65821 9.95123 1.3417 9.95122 1.14644 10.1465Z" fill="#CED0D6"/>
<path d="M11 2.5H14C14.2761 2.5 14.5 2.72386 14.5 3V5C14.5 5.27614 14.2761 5.5 14 5.5H11C10.7239 5.5 10.5 5.27614 10.5 5V3C10.5 2.72386 10.7239 2.5 11 2.5Z" stroke="#CED0D6"/>
<path d="M11 7.5H14C14.2761 7.5 14.5 7.72386 14.5 8V10C14.5 10.2761 14.2761 10.5 14 10.5H11C10.7239 10.5 10.5 10.2761 10.5 10V8C10.5 7.72386 10.7239 7.5 11 7.5Z" stroke="#CED0D6"/>
</svg>
