<svg width="16" height="16" viewBox="0 0 16 16" fill="none" xmlns="http://www.w3.org/2000/svg">
<path d="M9.14648 12.3534C9.34171 12.5487 9.65825 12.5486 9.85352 12.3534L13.8535 8.35343C13.9473 8.25966 14 8.13252 14 7.99991C14 7.86731 13.9473 7.74017 13.8535 7.6464L9.85352 3.6464C9.65825 3.45123 9.34171 3.45117 9.14648 3.6464C8.95135 3.84164 8.95135 4.15819 9.14648 4.35343L12.293 7.49991H2.49609C2.21995 7.49991 1.99609 7.72377 1.99609 7.99991C1.99609 8.27606 2.21995 8.49991 2.49609 8.49991H12.293L9.14648 11.6464C8.95135 11.8416 8.95135 12.1582 9.14648 12.3534Z" fill="#CED0D6"/>
</svg>
