<svg width="16" height="16" viewBox="0 0 16 16" fill="none" xmlns="http://www.w3.org/2000/svg">
<g clip-path="url(#clip0_7652_20356)">
<path d="M9.14648 11.8536C9.34171 12.0488 9.65825 12.0488 9.85352 11.8536L13.8535 7.8536C13.9473 7.75983 14 7.63269 14 7.50009C14 7.36748 13.9473 7.24034 13.8535 7.14657L9.85352 3.14657C9.65825 2.9514 9.34171 2.95134 9.14648 3.14657C8.95135 3.34181 8.95135 3.65836 9.14648 3.8536L12.293 7.00009L2.49609 7.00009C2.21995 7.00009 1.99609 7.22394 1.99609 7.50009C1.99609 7.77623 2.21995 8.00009 2.49609 8.00009L12.293 8.00009L9.14648 11.1466C8.95135 11.3418 8.95135 11.6584 9.14648 11.8536Z" fill="#6C707E"/>
</g>
<defs>
<clipPath id="clip0_7652_20356">
<rect width="16" height="16" fill="white"/>
</clipPath>
</defs>
</svg>
