<svg width="16" height="16" viewBox="0 0 16 16" fill="none" xmlns="http://www.w3.org/2000/svg">
<path d="M1 3.86667C1 2.83574 1.73127 2 2.63333 2H6.1217C6.39413 2 6.65477 2.11115 6.84336 2.30775L8.46667 4L13 4C14.1046 4 15 4.89543 15 6V8.23047C14.5649 8.07809 14 8 13.5 8H9V14H2.63333C1.73127 14 1 13.1643 1 12.1333V3.86667Z" fill="#253627"/>
<path d="M2.63333 3L6.1217 3L8.04022 5H13C13.5523 5 14 5.44771 14 6V8.01562C14.3437 8.04431 14.6812 8.1129 15 8.22455V6C15 4.89543 14.1046 4 13 4L8.46667 4L6.84336 2.30775C6.65477 2.11115 6.39413 2 6.1217 2H2.63333C1.73127 2 1 2.83574 1 3.86667V12.1333C1 13.1643 1.73127 14 2.63333 14H9V13H2.63333C2.40481 13 2 12.7416 2 12.1333V3.86667C2 3.25841 2.40481 3 2.63333 3Z" fill="#5FAD65"/>
<path fill-rule="evenodd" clip-rule="evenodd" d="M11.2 12.5005V10.1671H13.0444C13.9636 10.1671 14.8 10.5318 14.8 11.2797C14.8 12.0275 13.942 12.5005 13.0564 12.5005H11.2ZM14.032 13.466C15.01 13.1883 16 12.6282 16 11.2318C16 9.83549 14.7386 9 13.1464 9H10V16H11.2V13.6671H12.7936L14.5276 16H16L14.032 13.466Z" fill="#5FAD65"/>
</svg>
