<svg width="18" height="18" viewBox="0 0 18 18" fill="none" xmlns="http://www.w3.org/2000/svg">
<path d="M12 2.60082C13.1113 3.15308 13.875 4.29985 13.875 5.625C13.875 6.95015 13.1113 8.09692 12 8.64915M13.5 12.5748C14.6336 13.0877 15.6544 13.9238 16.5 15M1.5 15C2.95987 13.1419 4.94188 12 7.125 12C9.3081 12 11.2901 13.1419 12.75 15M10.5 5.625C10.5 7.48896 8.98898 9 7.125 9C5.26104 9 3.75 7.48896 3.75 5.625C3.75 3.76104 5.26104 2.25 7.125 2.25C8.98898 2.25 10.5 3.76104 10.5 5.625Z" stroke="#5A5D63" stroke-width="1.2" stroke-linecap="round" stroke-linejoin="round"/>
</svg>
