<svg width="18" height="18" viewBox="0 0 18 18" fill="none" xmlns="http://www.w3.org/2000/svg">
<path d="M14 10C14.5523 10 15 10.4477 15 11V14C15 14.5523 14.5523 15 14 15H4C3.44772 15 3 14.5523 3 14V11C3 10.4477 3.44772 10 4 10H14ZM5.49805 12C5.2219 12 4.99805 12.2239 4.99805 12.5C4.99831 12.7759 5.22207 13 5.49805 13H6.49805C6.77403 13 6.99778 12.7759 6.99805 12.5C6.99805 12.2239 6.77419 12 6.49805 12H5.49805ZM14 3C14.5523 3 15 3.44772 15 4V7C15 7.55228 14.5523 8 14 8H4C3.44772 8 3 7.55228 3 7V4C3 3.44772 3.44772 3 4 3H14ZM5.49805 5C5.22207 5 4.99831 5.22311 4.99805 5.49902C4.99805 5.77517 5.2219 5.99902 5.49805 5.99902H6.49805C6.77419 5.99902 6.99805 5.77517 6.99805 5.49902C6.99778 5.22311 6.77403 5 6.49805 5H5.49805Z" fill="#CED0D6"/>
</svg>
