<svg width="16" height="16" viewBox="0 0 16 16" fill="none" xmlns="http://www.w3.org/2000/svg">
<path d="M13 9C13.5523 9 14 9.44772 14 10V13C14 13.5523 13.5523 14 13 14H3C2.44772 14 2 13.5523 2 13V10C2 9.44771 2.44772 9 3 9H13ZM4.49805 11C4.2219 11 3.99805 11.2239 3.99805 11.5C3.99831 11.7759 4.22207 12 4.49805 12H5.49805C5.77403 12 5.99778 11.7759 5.99805 11.5C5.99805 11.2239 5.77419 11 5.49805 11H4.49805ZM13 2C13.5523 2 14 2.44772 14 3V6C14 6.55228 13.5523 7 13 7H3C2.44772 7 2 6.55228 2 6V3C2 2.44772 2.44772 2 3 2H13ZM4.49805 4C4.22207 4 3.99831 4.22311 3.99805 4.49902C3.99805 4.77517 4.2219 4.99902 4.49805 4.99902H5.49805C5.77419 4.99902 5.99805 4.77517 5.99805 4.49902C5.99778 4.22311 5.77403 4 5.49805 4H4.49805Z" fill="#494B57"/>
</svg>
