<svg width="17" height="16" viewBox="0 0 17 16" fill="none" xmlns="http://www.w3.org/2000/svg">
<path fill-rule="evenodd" clip-rule="evenodd" d="M16.6641 7.99999C16.6641 12.4182 13.0824 16 8.66408 16C4.24579 16 0.664062 12.4182 0.664062 7.99999C0.664062 3.58172 4.24579 0 8.66408 0C13.0824 0 16.6641 3.58172 16.6641 7.99999ZM7.90087 7.23681V4.76642C7.90087 4.66619 7.92062 4.56695 7.95897 4.47435C7.99732 4.38175 8.05354 4.29762 8.12442 4.22675C8.19528 4.15588 8.27942 4.09967 8.37201 4.06131C8.46461 4.02295 8.56385 4.00322 8.66407 4.00322C8.76431 4.00322 8.86357 4.02295 8.95612 4.06131C9.04876 4.09967 9.13285 4.15588 9.2037 4.22675C9.27464 4.29762 9.3308 4.38175 9.3692 4.47435C9.40751 4.56695 9.42728 4.66619 9.42728 4.76642V7.23681H11.8977C11.9979 7.23681 12.0971 7.25656 12.1898 7.29491C12.2823 7.33326 12.3665 7.38948 12.4374 7.46035C12.5082 7.53122 12.5645 7.61536 12.6028 7.70795C12.6412 7.80054 12.6609 7.89978 12.6609 8.00001C12.6609 8.10026 12.6412 8.19953 12.6028 8.29207C12.5645 8.38471 12.5082 8.4688 12.4374 8.53965C12.3665 8.6105 12.2823 8.66676 12.1898 8.70516C12.0971 8.74346 11.9979 8.76324 11.8977 8.76324H9.42728V11.2336C9.42728 11.3338 9.40751 11.4331 9.3692 11.5256C9.3308 11.6183 9.27464 11.7024 9.2037 11.7733C9.13285 11.8442 9.04876 11.9003 8.95612 11.9387C8.86357 11.977 8.76431 11.9968 8.66407 11.9968C8.56385 11.9968 8.46461 11.977 8.37201 11.9387C8.27942 11.9003 8.19528 11.8442 8.12442 11.7733C8.05354 11.7024 7.99732 11.6183 7.95897 11.5256C7.92062 11.4331 7.90087 11.3338 7.90087 11.2336V8.76324H5.43047C5.33025 8.76324 5.231 8.74346 5.13841 8.70516C5.04581 8.66676 4.96167 8.6105 4.89081 8.53965C4.81994 8.4688 4.76372 8.38471 4.72537 8.29207C4.68701 8.19953 4.66727 8.10026 4.66727 8.00001C4.66727 7.89978 4.68701 7.80054 4.72537 7.70795C4.76372 7.61536 4.81994 7.53122 4.89081 7.46035C4.96167 7.38948 5.04581 7.33326 5.13841 7.29491C5.231 7.25656 5.33025 7.23681 5.43047 7.23681H7.90087Z" fill="#CED0D6"/>
</svg>
