<svg width="16" height="16" viewBox="0 0 16 16" fill="none" xmlns="http://www.w3.org/2000/svg">
<g clip-path="url(#clip0_7357_19308)">
<path fill-rule="evenodd" clip-rule="evenodd" d="M11.8536 11.3536C11.6583 11.5488 11.3417 11.5488 11.1464 11.3536C10.9512 11.1583 10.9512 10.8417 11.1464 10.6464L13.2929 8.5H7.5C7.22386 8.5 7 8.27614 7 8C7 7.72386 7.22386 7.5 7.5 7.5L13.2929 7.5L11.1464 5.35355C10.9512 5.15829 10.9512 4.84171 11.1464 4.64645C11.3417 4.45118 11.6583 4.45118 11.8536 4.64645L14.8536 7.64645C15.0488 7.84171 15.0488 8.15829 14.8536 8.35355L11.8536 11.3536Z" fill="#CED0D6"/>
<path d="M8.14724 9.76417L6.15892 12.7478C5.9354 13.0832 5.37284 13.0832 5.14933 12.7478L2.31764 8.49862C2.11232 8.19052 2.11227 7.81192 2.31751 7.50378L5.14926 3.25228C5.37275 2.91674 5.9355 2.91674 6.15898 3.25228L8.14658 6.23639L8.9994 5.5035L7.1687 2.75496C6.49824 1.74835 4.81 1.74835 4.13954 2.75495L1.30779 7.00645C0.89731 7.62274 0.897408 8.37994 1.30805 8.99614L4.13974 13.2453C4.81029 14.2516 6.49796 14.2516 7.16851 13.2453L9 10.497L8.14724 9.76417Z" fill="#BD5757"/>
</g>
<defs>
<clipPath id="clip0_7357_19308">
<rect width="16" height="16" fill="white"/>
</clipPath>
</defs>
</svg>
