<svg width="16" height="16" viewBox="0 0 16 16" fill="none" xmlns="http://www.w3.org/2000/svg">
<path d="M1.53348 5.70094L7.17821 1.28389C7.41378 1.09982 7.70272 1 8 1C8.29728 1 8.58622 1.09982 8.82179 1.28389L14.4733 5.69411C14.6769 5.85279 14.8316 6.06722 14.9191 6.31215C15.0067 6.55708 15.0236 6.82231 14.9677 7.07662C14.9117 7.33093 14.7854 7.56374 14.6036 7.74762C14.4217 7.93151 14.1919 8.05883 13.9411 8.1146L13.7256 8.16246L13.1732 13.7692C13.1398 14.1066 12.9842 14.4193 12.7365 14.6467C12.4888 14.8741 12.1667 15 11.8328 15H10.6944C10.5157 15 10.3444 14.928 10.2181 14.7997C10.0918 14.6715 10.0208 14.4976 10.0208 14.3162V10.8975C10.0208 10.3534 9.80788 9.8317 9.42891 9.44701C9.04994 9.06233 8.53595 8.84621 8 8.84621C7.46405 8.84621 6.95006 9.06233 6.57109 9.44701C6.19212 9.8317 5.97921 10.3534 5.97921 10.8975V14.3162C5.97921 14.4976 5.90825 14.6715 5.78192 14.7997C5.6556 14.928 5.48427 15 5.30562 15H4.16724C3.83326 15 3.51119 14.8741 3.26351 14.6467C3.01582 14.4193 2.86018 14.1066 2.82679 13.7692L2.27444 8.16246L2.05889 8.1146C1.80814 8.05883 1.5783 7.93151 1.39644 7.74762C1.21458 7.56374 1.08825 7.33093 1.03234 7.07662C0.976434 6.82231 0.993264 6.55708 1.08085 6.31215C1.16844 6.06722 1.32314 5.85279 1.52675 5.69411L1.53348 5.70094Z" fill="white"/>
</svg>
