<svg width="16" height="16" viewBox="0 0 16 16" fill="none" xmlns="http://www.w3.org/2000/svg">
<path d="M4 2C3.44772 2 3 2.44772 3 3V13C3 13.5523 3.44772 14 4 14H5.5C5.77614 14 6 13.7761 6 13.5C6 13.2239 5.77614 13 5.5 13H4V3L5.5 3C5.77614 3 6 2.77614 6 2.5C6 2.22386 5.77614 2 5.5 2H4Z" fill="#6C707E"/>
<path d="M10 2.5C10 2.77614 10.2239 3 10.5 3H12V13H10.5C10.2239 13 10 13.2239 10 13.5C10 13.7761 10.2239 14 10.5 14H12C12.5523 14 13 13.5523 13 13V3C13 2.44772 12.5523 2 12 2H10.5C10.2239 2 10 2.22386 10 2.5Z" fill="#6C707E"/>
</svg>
