<svg width="16" height="16" viewBox="0 0 16 16" fill="none" xmlns="http://www.w3.org/2000/svg">
<g clip-path="url(#clip0_7652_20349)">
<path d="M6.85352 3.14645C6.65825 2.95118 6.34175 2.95118 6.14648 3.14645L2.14648 7.14645C2.05272 7.24021 2 7.36735 2 7.49996C2 7.63257 2.05272 7.75971 2.14648 7.85348L6.14648 11.8535C6.34174 12.0487 6.65825 12.0487 6.85351 11.8535C7.04878 11.6582 7.04878 11.3417 6.85351 11.1464L3.70703 7.99996L13.5039 7.99996C13.78 7.99996 14.0039 7.7761 14.0039 7.49996C14.0039 7.22382 13.78 6.99996 13.5039 6.99996L3.70703 6.99996L6.85352 3.85348C7.04878 3.65821 7.04878 3.34171 6.85352 3.14645Z" fill="#CED0D6"/>
</g>
<defs>
<clipPath id="clip0_7652_20349">
<rect width="16" height="16" fill="white"/>
</clipPath>
</defs>
</svg>
