<svg width="16" height="16" viewBox="0 0 16 16" fill="none" xmlns="http://www.w3.org/2000/svg">
<path d="M6.85352 3.64645C6.65825 3.45118 6.34175 3.45118 6.14648 3.64645L2.14648 7.64645C2.05272 7.74021 2 7.86735 2 7.99996C2 8.13257 2.05272 8.25971 2.14648 8.35348L6.14648 12.3535C6.34175 12.5487 6.65825 12.5487 6.85352 12.3535C7.04878 12.1582 7.04878 11.8417 6.85352 11.6464L3.70703 8.49996L13.5039 8.49996C13.78 8.49996 14.0039 8.2761 14.0039 7.99996C14.0039 7.72382 13.78 7.49996 13.5039 7.49996L3.70703 7.49996L6.85352 4.35348C7.04878 4.15822 7.04878 3.84171 6.85352 3.64645Z" fill="#CED0D6"/>
</svg>
