<svg width="18" height="18" viewBox="0 0 18 18" fill="none" xmlns="http://www.w3.org/2000/svg">
<path d="M14.625 10.125C15.2463 10.125 15.75 10.6287 15.75 11.25V14.625C15.75 15.2463 15.2463 15.75 14.625 15.75H3.375C2.75368 15.75 2.25 15.2463 2.25 14.625V11.25C2.25 10.6287 2.75368 10.125 3.375 10.125H14.625ZM4.49805 12.374V13.499H6.74805V12.374H4.49805ZM14.625 2.25C15.2463 2.25 15.75 2.75368 15.75 3.375V6.75C15.75 7.37132 15.2463 7.875 14.625 7.875H3.375C2.75368 7.875 2.25 7.37132 2.25 6.75V3.375C2.25 2.75368 2.75368 2.25 3.375 2.25H14.625ZM4.49805 4.49902V5.62402H6.74805V4.49902H4.49805Z" fill="#548AF7"/>
</svg>
