<svg width="17" height="16" viewBox="0 0 17 16" fill="none" xmlns="http://www.w3.org/2000/svg">
<path d="M1 3.86667C1 2.83574 1.73127 2 2.63333 2H6.1217C6.39413 2 6.65477 2.11115 6.84336 2.30775L8.46667 4L13 4C14.1046 4 15 4.89543 15 6V8.23047C14.5649 8.07809 14 8 13.5 8H9V14H2.63333C1.73127 14 1 13.1643 1 12.1333V3.86667Z" fill="#EDF3FF"/>
<path d="M2.63333 3L6.1217 3L8.04022 5H13C13.5523 5 14 5.44771 14 6V8.01562C14.3437 8.04431 14.6812 8.1129 15 8.22455V6C15 4.89543 14.1046 4 13 4L8.46667 4L6.84336 2.30775C6.65477 2.11115 6.39413 2 6.1217 2H2.63333C1.73127 2 1 2.83574 1 3.86667V12.1333C1 13.1643 1.73127 14 2.63333 14H9V13H2.63333C2.40481 13 2 12.7416 2 12.1333V3.86667C2 3.25841 2.40481 3 2.63333 3Z" fill="#3574F0"/>
<path d="M13.328 16C12.6997 16 12.132 15.8476 11.625 15.5429C11.118 15.2382 10.7193 14.8203 10.429 14.2892C10.143 13.7537 10 13.1573 10 12.5C10 11.8427 10.143 11.2484 10.429 10.7174C10.7193 10.1819 11.118 9.76182 11.625 9.45709C12.132 9.15236 12.6997 9 13.328 9C13.861 9 14.3398 9.09142 14.7645 9.27425C15.1892 9.45274 15.5423 9.72264 15.824 10.084C16.1057 10.4409 16.2985 10.8806 16.4025 11.403H15.3625C15.2672 11.0808 15.1177 10.8109 14.914 10.5933C14.7103 10.3756 14.472 10.2146 14.199 10.1101C13.926 10.0012 13.6357 9.94683 13.328 9.94683C12.899 9.94683 12.5133 10.0557 12.171 10.2733C11.833 10.491 11.5687 10.7935 11.378 11.181C11.1873 11.5684 11.092 12.0081 11.092 12.5C11.092 12.9876 11.1873 13.4251 11.378 13.8125C11.5687 14.1999 11.833 14.5047 12.171 14.7267C12.5133 14.9443 12.899 15.0532 13.328 15.0532C13.6357 15.0532 13.926 15.0009 14.199 14.8965C14.472 14.7876 14.7103 14.6244 14.914 14.4067C15.1177 14.1891 15.2672 13.9192 15.3625 13.597H16.4025C16.3028 14.102 16.1078 14.5351 15.8175 14.8965C15.5272 15.2578 15.1675 15.532 14.7385 15.7192C14.3095 15.9064 13.8393 16 13.328 16Z" fill="#3574F0"/>
</svg>
