<svg width="16" height="16" viewBox="0 0 16 16" fill="none" xmlns="http://www.w3.org/2000/svg">
<path d="M2.65007 10.37C2.66341 9.85668 2.49341 9.44668 2.14007 9.14002C1.78674 8.83335 1.31007 8.68002 0.710072 8.68002H0V7.24002H0.710072C1.31007 7.24002 1.78674 7.08668 2.14007 6.78002C2.49341 6.47335 2.66341 6.06335 2.65007 5.55002L2.61007 3.44C2.59674 2.74667 2.74007 2.14 3.04007 1.62C3.34674 1.1 3.78341 0.7 4.35007 0.420001C4.91674 0.14 5.58341 0 6.35007 0H7.33333V1.34H6.36007C5.66674 1.34 5.11674 1.53333 4.71007 1.92C4.31007 2.3 4.11341 2.81667 4.12007 3.47L4.16007 5.56002C4.17341 6.24002 3.99007 6.79668 3.61007 7.23002C3.23007 7.65668 2.71674 7.89335 2.07007 7.94002C2.71674 8.06002 3.23007 8.34002 3.61007 8.78002C3.99007 9.21335 4.17341 9.74002 4.16007 10.36L4.12007 12.73C4.10674 13.3167 4.28341 13.7833 4.65007 14.13C5.02341 14.4833 5.52674 14.66 6.16007 14.66H7.33333V16H6.15007C5.43674 16 4.81007 15.8667 4.27007 15.6C3.73674 15.34 3.32341 14.9633 3.03007 14.47C2.7434 13.9833 2.6034 13.4133 2.61007 12.76L2.65007 10.37Z" fill="#CED0D6"/>
<path d="M13.3527 10.37C13.3394 9.85668 13.5094 9.44668 13.8627 9.14002C14.2161 8.83335 14.6927 8.68002 15.2927 8.68002H16V7.24002H15.2927C14.6927 7.24002 14.2161 7.08668 13.8627 6.78002C13.5094 6.47335 13.3394 6.06335 13.3527 5.55002L13.3927 3.44C13.4061 2.74667 13.2594 2.14 12.9527 1.62C12.6527 1.1 12.2194 0.7 11.6527 0.420001C11.0861 0.14 10.4194 0 9.65273 0H8.66667V1.34H9.64273C10.3361 1.34 10.8827 1.53333 11.2827 1.92C11.6894 2.3 11.8894 2.81667 11.8827 3.47L11.8427 5.56002C11.8294 6.24002 12.0127 6.79668 12.3927 7.23002C12.7727 7.65668 13.2861 7.89335 13.9327 7.94002C13.2861 8.06002 12.7727 8.34002 12.3927 8.78002C12.0127 9.21335 11.8294 9.74002 11.8427 10.36L11.8827 12.73C11.8961 13.3167 11.7161 13.7833 11.3427 14.13C10.9761 14.4833 10.4761 14.66 9.84273 14.66H8.66667V16H9.85273C10.5661 16 11.1894 15.8667 11.7227 15.6C12.2627 15.34 12.6761 14.9633 12.9627 14.47C13.2561 13.9833 13.3994 13.4133 13.3927 12.76L13.3527 10.37Z" fill="#CED0D6"/>
</svg>
