<svg width="18" height="18" viewBox="0 0 18 18" fill="none" xmlns="http://www.w3.org/2000/svg">
<path d="M14.6863 10.2725C14.3948 10.524 14.2548 10.864 14.2663 11.2926L14.3005 13.6243C14.3063 14.1844 14.1805 14.673 13.9234 15.0902C13.6662 15.5132 13.3004 15.836 12.8261 16.0589C12.3517 16.2875 11.8002 16.4018 11.1716 16.4018H10.7772C10.4032 16.4018 10.1 16.0986 10.1 15.7246C10.1 15.3506 10.4032 15.0474 10.7772 15.0474H11.1287C11.6545 15.0474 12.0688 14.9045 12.3717 14.6188C12.6803 14.333 12.8289 13.9444 12.8175 13.4529L12.7832 11.1983C12.7718 10.6725 12.9289 10.2268 13.2547 9.86101C13.5862 9.48954 14.0319 9.25237 14.592 9.1495C14.0319 9.10378 13.5862 8.90089 13.2547 8.54085C12.9289 8.1808 12.7718 7.71217 12.7832 7.13496L12.8175 5.11185C12.8232 4.57464 12.6603 4.14887 12.3289 3.83455C11.9974 3.51451 11.5459 3.35449 10.9744 3.35449H10.7772C10.4032 3.35449 10.1 3.05128 10.1 2.67726C10.1 2.30324 10.4032 2.00003 10.7772 2.00003H11.0173C11.6916 2.00003 12.2774 2.12005 12.7746 2.36008C13.2718 2.60011 13.6519 2.94301 13.9148 3.38878C14.1834 3.83455 14.312 4.35461 14.3005 4.94897L14.2663 7.03209C14.2548 7.46643 14.392 7.81219 14.6777 8.06936C14.9692 8.32082 15.3635 8.44655 15.8607 8.44655C16.1586 8.44653 16.4 8.68796 16.4 8.98579V9.34741C16.4 9.64525 16.1586 9.88671 15.8607 9.88673C15.3693 9.88673 14.9778 10.0153 14.6863 10.2725Z" fill="#3574F0"/>
<path d="M4.13377 11.2926C4.1452 10.864 4.00519 10.5239 3.71372 10.2725C3.42226 10.0153 3.03078 9.8867 2.53929 9.8867C2.24144 9.88668 2 9.64522 2 9.34737V8.98577C2 8.68793 2.24145 8.4465 2.53929 8.44652C3.03649 8.44652 3.42797 8.32079 3.71372 8.06933C4.00519 7.81215 4.1452 7.4664 4.13377 7.03206L4.09948 4.94894C4.08805 4.35458 4.21378 3.83452 4.47667 3.38875C4.74528 2.94297 5.12818 2.60008 5.62539 2.36005C6.12259 2.12002 6.70838 2 7.38275 2H7.62278C7.9968 2 8.30001 2.3032 8.30001 2.67723C8.30001 3.05125 7.9968 3.35445 7.62278 3.35445H7.42561C6.85411 3.35445 6.40263 3.51447 6.07116 3.83451C5.73969 4.14884 5.57681 4.57461 5.58253 5.11182L5.61682 7.13493C5.62825 7.71214 5.46823 8.18077 5.13676 8.54082C4.811 8.90086 4.36809 9.10375 3.80802 9.14947C4.36809 9.25234 4.811 9.48951 5.13676 9.86098C5.46823 10.2267 5.62825 10.6725 5.61682 11.1983L5.58253 13.4529C5.5711 13.9443 5.71683 14.333 6.01972 14.6187C6.32833 14.9045 6.74553 15.0473 7.27131 15.0473H7.62278C7.9968 15.0473 8.30001 15.3505 8.30001 15.7246C8.30001 16.0986 7.9968 16.4018 7.62278 16.4018H7.22845C6.5998 16.4018 6.0483 16.2875 5.57395 16.0589C5.09961 15.836 4.73385 15.5131 4.47667 15.0902C4.2195 14.673 4.09377 14.1844 4.09948 13.6243L4.13377 11.2926Z" fill="#3574F0"/>
</svg>
