<svg width="16" height="16" viewBox="0 0 16 16" fill="none" xmlns="http://www.w3.org/2000/svg">
<circle cx="7.99957" cy="7.99957" r="6.22222" fill="#25324D"/>
<path d="M7.99966 1C9.85546 1.00209 11.6346 1.74052 12.9469 3.05273C14.2592 4.36504 14.9976 6.14413 14.9997 8C14.9997 9.38443 14.5891 10.7376 13.82 11.8887C13.0508 13.0398 11.9574 13.937 10.6784 14.4668C9.39935 14.9965 7.99221 15.1353 6.63442 14.8652C5.27672 14.5952 4.02935 13.929 3.05044 12.9502C2.07147 11.9712 1.40452 10.7231 1.13442 9.36523C0.864429 8.0075 1.00311 6.60024 1.53286 5.32129C2.06267 4.04221 2.95984 2.94886 4.11098 2.17969C5.26204 1.41059 6.6153 1.00005 7.99966 1ZM6.49966 11C6.10223 11.0005 5.7212 11.1585 5.44008 11.4395C5.15887 11.7207 5.00009 12.1023 4.99966 12.5V13.1885C5.90999 13.72 6.94549 14 7.99966 14C9.0538 14 10.0893 13.72 10.9997 13.1885V12.5C10.9992 12.1023 10.8414 11.7207 10.5602 11.4395C10.279 11.1583 9.89728 11.0004 9.49966 11H6.49966ZM7.99966 1.9873C6.78422 1.98736 5.59731 2.35645 4.59633 3.0459C3.59533 3.7354 2.82747 4.71299 2.39419 5.84863C1.96092 6.98438 1.88311 8.22515 2.17055 9.40625C2.45801 10.5873 3.09691 11.6533 4.00356 12.4629C4.0135 11.8071 4.28082 11.1814 4.7477 10.7207C5.21457 10.2601 5.8438 10.0012 6.49966 10H9.49966C10.1555 10.0011 10.7847 10.2601 11.2516 10.7207C11.7185 11.1814 11.9858 11.807 11.9957 12.4629C12.9025 11.6533 13.5423 10.5873 13.8297 9.40625C14.1172 8.22515 14.0394 6.98438 13.6061 5.84863C13.1728 4.713 12.4049 3.73542 11.404 3.0459C10.4029 2.35635 9.21523 1.9873 7.99966 1.9873ZM7.99966 4C8.66263 4 9.29841 4.26367 9.76723 4.73242C10.2361 5.20126 10.4997 5.83696 10.4997 6.5C10.4997 6.99435 10.3534 7.4776 10.0788 7.88867C9.80407 8.29977 9.41346 8.62035 8.95669 8.80957C8.49993 8.99877 7.99725 9.04856 7.51235 8.95215C7.0274 8.85569 6.58171 8.61721 6.23208 8.26758C5.88252 7.91797 5.64396 7.47219 5.54751 6.9873C5.45118 6.5025 5.50093 5.99963 5.69008 5.54297C5.87932 5.08625 6.19993 4.69556 6.61098 4.4209C7.02199 4.14632 7.50537 4.00005 7.99966 4ZM8.57387 5.11426C8.29988 5.00077 7.99854 4.97149 7.70766 5.0293C7.41669 5.08717 7.14889 5.22967 6.93911 5.43945C6.72949 5.64912 6.58686 5.91626 6.52895 6.20703C6.47107 6.498 6.50038 6.80013 6.61391 7.07422C6.72745 7.34826 6.92001 7.58227 7.16665 7.74707C7.41324 7.91184 7.70308 7.99995 7.99966 8C8.39728 7.99955 8.77901 7.84167 9.0602 7.56055C9.34141 7.27934 9.4992 6.89769 9.49966 6.5C9.49966 6.20335 9.41153 5.91365 9.24673 5.66699C9.0819 5.42032 8.84796 5.22779 8.57387 5.11426Z" fill="#548AF7"/>
</svg>
