<svg width="16" height="16" viewBox="0 0 16 16" fill="none" xmlns="http://www.w3.org/2000/svg">
<path d="M14.3535 9.83111L13 8.52424V6.79311C12.9984 5.59681 12.5374 4.44357 11.7062 3.5564C10.875 2.66922 9.73266 2.11113 8.5 1.99004V1.5C8.5 1.22386 8.27614 1 8 1C7.72386 1 7.5 1.22386 7.5 1.5V1.99004C6.26734 2.11113 5.12496 2.66922 4.29377 3.5564C3.46257 4.44357 3.0016 5.59681 3 6.79311V8.52424L1.64645 9.83111C1.55269 9.92163 1.50002 10.0444 1.5 10.1724V11.6207C1.5 11.7487 1.55268 11.8715 1.64645 11.9621C1.74021 12.0526 1.86739 12.1035 2 12.1035H5.5V12.4785C5.48916 13.0909 5.71276 13.6856 6.12794 14.1487C6.54313 14.6119 7.1207 14.9108 7.75 14.9882C8.09757 15.0215 8.44852 14.9842 8.78026 14.8787C9.112 14.7731 9.4172 14.6018 9.67622 14.3755C9.93524 14.1493 10.1423 13.8732 10.2842 13.565C10.4261 13.2569 10.4996 12.9235 10.5 12.5862V12.1035H14C14.1326 12.1035 14.2598 12.0526 14.3536 11.9621C14.4473 11.8715 14.5 11.7487 14.5 11.6207V10.1724C14.5 10.0444 14.4473 9.92163 14.3535 9.83111ZM9.5 12.5862C9.5 12.9703 9.34196 13.3387 9.06066 13.6103C8.77936 13.8819 8.39782 14.0345 8 14.0345C7.60218 14.0345 7.22064 13.8819 6.93934 13.6103C6.65804 13.3387 6.5 12.9703 6.5 12.5862V12.1035H9.5V12.5862ZM13.5 11.1379H2.5V10.3723L3.8535 9.06546C3.94727 8.97494 3.99997 8.85217 4 8.72415V6.79311C4 5.76882 4.42143 4.78649 5.17157 4.06221C5.92172 3.33793 6.93913 2.93104 8 2.93104C9.06087 2.93104 10.0783 3.33793 10.8284 4.06221C11.5786 4.78649 12 5.76882 12 6.79311V8.72415C12 8.85217 12.0527 8.97494 12.1465 9.06546L13.5 10.3723V11.1379Z" fill="#494B57"/>
</svg>
