<svg width="16" height="16" viewBox="0 0 16 16" fill="none" xmlns="http://www.w3.org/2000/svg">
<path d="M13.1825 1.77734H2.51584C2.28009 1.77734 2.054 1.8866 1.8873 2.08108C1.7206 2.27557 1.62695 2.53934 1.62695 2.81438V13.1848C1.62695 13.4598 1.7206 13.7236 1.8873 13.918C2.054 14.1125 2.28009 14.2218 2.51584 14.2218H13.1825C13.4183 14.2218 13.6443 14.1125 13.811 13.918C13.9777 13.7236 14.0714 13.4598 14.0714 13.1848V2.81438C14.0714 2.53934 13.9777 2.27557 13.811 2.08108C13.6443 1.8866 13.4183 1.77734 13.1825 1.77734ZM2.66862 2.81438H6.0714V13.1848H2.66862V7.99957V2.81438ZM13.0297 13.1848H7.11306V7.99957V2.81438H10.1478H13.0297V7.99957V13.1848Z" fill="#494B57"/>
</svg>
