<svg width="16" height="16" viewBox="0 0 16 16" fill="none" xmlns="http://www.w3.org/2000/svg">
<circle cx="7.99957" cy="7.99957" r="6.22222" fill="#EDF3FF"/>
<path d="M8.00061 1C9.85636 1.00218 11.6356 1.74051 12.9479 3.05273C14.2601 4.36502 14.9985 6.1442 15.0006 8C15.0006 9.38431 14.5899 10.7376 13.8209 11.8887C13.0518 13.0397 11.9583 13.937 10.6793 14.4668C9.40024 14.9966 7.99226 15.1353 6.6344 14.8652C5.27672 14.5951 4.02928 13.929 3.05041 12.9502C2.07144 11.9712 1.40449 10.7231 1.1344 9.36523C0.864433 8.00757 1.00314 6.60018 1.53283 5.32129C2.06261 4.04229 2.95992 2.94885 4.11096 2.17969C5.2621 1.41052 6.61614 1 8.00061 1ZM6.50061 11C6.10299 11.0004 5.72125 11.1583 5.44006 11.4395C5.15885 11.7207 5.00104 12.1023 5.00061 12.5V13.1885C5.91094 13.72 6.94648 14 8.00061 14C9.05475 13.9999 10.0903 13.72 11.0006 13.1885V12.5C11.0002 12.1023 10.8414 11.7207 10.5602 11.4395C10.2791 11.1585 9.89803 11.0005 9.50061 11H6.50061ZM8.00061 1.9873C6.78503 1.9873 5.59739 2.35635 4.59631 3.0459C3.59534 3.73542 2.82742 4.71299 2.39416 5.84863C1.96089 6.98438 1.88308 8.22515 2.17053 9.40625C2.45798 10.5873 3.0978 11.6533 4.00451 12.4629C4.01446 11.8072 4.28092 11.1814 4.74768 10.7207C5.21461 10.26 5.84466 10.0011 6.50061 10H9.50061C10.1564 10.0012 10.7857 10.2601 11.2526 10.7207C11.7194 11.1814 11.9868 11.8071 11.9967 12.4629C12.9033 11.6533 13.5423 10.5873 13.8297 9.40625C14.1172 8.22515 14.0393 6.98438 13.6061 5.84863C13.1728 4.71298 12.4049 3.7354 11.4039 3.0459C10.403 2.35644 9.21604 1.98737 8.00061 1.9873ZM8.00061 4C8.66353 4.00009 9.29942 4.26366 9.76819 4.73242C10.2369 5.20125 10.5006 5.83704 10.5006 6.5C10.5006 6.99442 10.3534 7.47757 10.0787 7.88867C9.80403 8.29979 9.41348 8.62035 8.95666 8.80957C8.49991 8.99871 7.9972 9.0486 7.51233 8.95215C7.02744 8.85566 6.58164 8.61717 6.23205 8.26758C5.8826 7.918 5.64489 7.47211 5.54846 6.9873C5.4521 6.50247 5.50187 5.99967 5.69104 5.54297C5.88027 5.08637 6.2 4.69551 6.61096 4.4209C7.02208 4.14619 7.50615 4 8.00061 4ZM8.57385 5.11426C8.29986 5.00085 7.99848 4.97144 7.70764 5.0293C7.41678 5.08717 7.14979 5.22979 6.94006 5.43945C6.73035 5.64916 6.58684 5.91617 6.52893 6.20703C6.47105 6.498 6.50133 6.80013 6.61486 7.07422C6.72837 7.34808 6.92017 7.58232 7.16662 7.74707C7.4133 7.91189 7.70394 8 8.00061 8C8.39802 7.99946 8.77908 7.84147 9.06018 7.56055C9.34138 7.27934 9.50016 6.89769 9.50061 6.5C9.50061 6.20346 9.41236 5.91359 9.24768 5.66699C9.08286 5.42032 8.84794 5.22779 8.57385 5.11426Z" fill="#3574F0"/>
</svg>
