<svg width="26" height="26" viewBox="0 0 26 26" fill="none" xmlns="http://www.w3.org/2000/svg">
<path d="M6 0.5H20C23.0376 0.5 25.5 2.96243 25.5 6V20C25.5 23.0376 23.0376 25.5 20 25.5H6C2.96243 25.5 0.5 23.0376 0.5 20V6C0.5 2.96243 2.96243 0.5 6 0.5Z" fill="#F7F8FA"/>
<path d="M6 0.5H20C23.0376 0.5 25.5 2.96243 25.5 6V20C25.5 23.0376 23.0376 25.5 20 25.5H6C2.96243 25.5 0.5 23.0376 0.5 20V6C0.5 2.96243 2.96243 0.5 6 0.5Z" stroke="#C9CCD6"/>
<path d="M12.9999 11.875C14.8639 11.875 16.3749 10.364 16.3749 8.5C16.3749 6.63604 14.8639 5.125 12.9999 5.125C11.136 5.125 9.62494 6.63604 9.62494 8.5C9.62494 10.364 11.136 11.875 12.9999 11.875Z" fill="#EBECF0"/>
<path d="M6.36605 18.634C6.69943 16.7164 7.99161 13 13.0001 13C18.0087 13 19.3008 16.7164 19.6342 18.634C19.7406 19.2461 19.2465 19.75 18.6251 19.75H7.37514C6.75382 19.75 6.25963 19.2461 6.36605 18.634Z" fill="#EBECF0"/>
<path fill-rule="evenodd" clip-rule="evenodd" d="M16.3749 8.5C16.3749 10.364 14.8639 11.875 12.9999 11.875C11.136 11.875 9.62494 10.364 9.62494 8.5C9.62494 6.63604 11.136 5.125 12.9999 5.125C14.8639 5.125 16.3749 6.63604 16.3749 8.5ZM15.2499 8.5C15.2499 9.74264 14.2426 10.75 12.9999 10.75C11.7573 10.75 10.7499 9.74264 10.7499 8.5C10.7499 7.25736 11.7573 6.25 12.9999 6.25C14.2426 6.25 15.2499 7.25736 15.2499 8.5Z" fill="#6C707E"/>
<path fill-rule="evenodd" clip-rule="evenodd" d="M13.0001 13C7.99161 13 6.69943 16.7164 6.36605 18.634C6.25963 19.2461 6.75382 19.75 7.37514 19.75H18.6251C19.2465 19.75 19.7406 19.2461 19.6342 18.634C19.3008 16.7164 18.0087 13 13.0001 13ZM17.2122 15.8253C17.9596 16.707 18.3196 17.787 18.4881 18.625H7.51222C7.68065 17.787 8.04071 16.707 8.78807 15.8253C9.5583 14.9167 10.8158 14.125 13.0001 14.125C15.1845 14.125 16.442 14.9167 17.2122 15.8253Z" fill="#6C707E"/>
</svg>
