<svg xmlns="http://www.w3.org/2000/svg" width="17" height="16" fill="none" viewBox="0 0 17 16"><path fill="#CED0D6" stroke="#43454A" d="M1.5498.5H3.669c.1276 0 .251.049.3437.1367l.9434.8936.1445.1367H7.5c.8284 0 1.5.6716 1.5 1.5V5.911c0 .3425-.2631.5888-.5498.5889H1.5498C1.2631 6.4999 1 6.2536 1 5.9111V1.089C1 .7464 1.2631.5 1.5498.5Z"/><path fill="#CED0D6" stroke="#43454A" d="M3.5498 3.5h2.1191a.501.501 0 0 1 .3438.1367l.9434.8936.1445.1367H9.5c.8284 0 1.5.6716 1.5 1.5V8.911c0 .3425-.2631.5888-.5498.5889H3.5498C3.2631 9.4999 3 9.2536 3 8.9111V4.089c0-.3425.2631-.5888.5498-.5889Z"/><path fill="#CED0D6" stroke="#43454A" d="M5.5498 6.5h2.1191a.501.501 0 0 1 .3438.1367l.9433.8936.1446.1367H11.5c.8284 0 1.5.6716 1.5 1.5v2.7441c0 .3425-.2631.5888-.5498.5889H5.5498C5.2631 12.4999 5 12.2536 5 11.9111V7.0889c0-.3425.2631-.5888.5498-.5889Z"/><path fill="#CED0D6" stroke="#43454A" d="M7.5498 9.5H9.669a.501.501 0 0 1 .3437.1367l.9434.8936.1445.1367H13.5c.8284 0 1.5.6716 1.5 1.5v2.7441c0 .3425-.2631.5888-.5498.5889H7.5498C7.2631 15.4999 7 15.2536 7 14.9111v-4.8222c0-.3425.2631-.5888.5498-.5889Z"/></svg>