<svg xmlns="http://www.w3.org/2000/svg" width="17" height="16" fill="none" viewBox="0 0 17 16"><path fill="#fff" stroke="#6C707E" d="M1.5498.5h2.11915c.12768.00008.25098.04896.34375.13672l.94335.89355.14454.13672H7.5c.82843 0 1.5.67158 1.5 1.5v2.74414c-.00001.34244-.26311.58876-.5498.58887H1.5498c-.28669-.00011-.54979-.24643-.5498-.58887V1.08887C1.00001.74643 1.26311.50011 1.5498.5Z"/><path fill="#fff" stroke="#6C707E" d="M3.5498 3.5h2.11915c.12768.00008.25098.04896.34375.13672l.94335.89355.14454.13672H9.5c.8284 0 1.5.67158 1.5 1.5v2.74414c0 .34244-.2631.58876-.5498.58887H3.5498c-.28669-.00011-.54979-.24643-.5498-.58887V4.08887c.00001-.34244.26311-.58876.5498-.58887Z"/><path fill="#fff" stroke="#6C707E" d="M5.5498 6.5h2.11915c.12768.00008.25098.04896.34375.13672l.94335.89355.14454.13672H11.5c.8284 0 1.5.67158 1.5 1.5v2.74411c0 .3425-.2631.5888-.5498.5889H5.5498c-.28669-.0001-.54979-.2464-.5498-.5889V7.08887c.00001-.34244.26311-.58876.5498-.58887Z"/><path fill="#fff" stroke="#6C707E" d="M7.5498 9.5h2.11915c.12768.00008.25098.04896.34375.13672l.9434.89358.1445.1367H13.5c.8284 0 1.5.6716 1.5 1.5v2.7441c0 .3425-.2631.5888-.5498.5889H7.5498c-.28669-.0001-.54979-.2464-.5498-.5889v-4.8222c.00001-.34247.26311-.58879.5498-.5889Z"/></svg>