<svg width="18" height="18" viewBox="0 0 18 18" fill="none" xmlns="http://www.w3.org/2000/svg">
<path d="M9.18458 13.0085C9.78554 12.8522 10.4231 12.9489 10.8471 13.373L13.3335 15.8593C13.4706 15.9965 13.6591 16.071 13.8575 16.0665C14.0559 16.0621 14.248 15.979 14.3914 15.8355L15.8374 14.3896C15.9808 14.2462 16.0639 14.0541 16.0684 13.8557C16.0728 13.6573 15.9983 13.4688 15.8612 13.3317L13.3748 10.8453C12.9508 10.4213 12.8541 9.78371 13.0103 9.18276C13.2657 8.18658 13.2674 7.15324 13.0152 6.17906C12.7629 5.20488 12.2651 4.32157 11.5679 3.61148C10.8708 2.90138 9.99709 2.38762 9.02828 2.11807C8.05947 1.84852 7.02708 1.83197 6.02734 2.06995C5.50115 2.19281 5.35993 2.83044 5.72706 3.19757L8.81924 6.28975C8.95638 6.42689 9.03092 6.6154 9.02646 6.81381C9.022 7.01221 8.93891 7.20426 8.79546 7.34771L7.34954 8.79363C7.20609 8.93708 7.01404 9.02017 6.81563 9.02463C6.61723 9.02909 6.42872 8.95456 6.29158 8.81742L3.1994 5.72523C2.83226 5.3581 2.19464 5.49933 2.07178 6.02551C1.83379 7.02525 1.85035 8.05764 2.1199 9.02645C2.38944 9.99526 2.90321 10.869 3.6133 11.5661C4.3234 12.2632 5.2067 12.7611 6.18088 13.0133C7.15506 13.2655 8.1884 13.2639 9.18458 13.0085Z" fill="#CED0D6"/>
</svg>
