<svg width="18" height="18" viewBox="0 0 18 18" fill="none" xmlns="http://www.w3.org/2000/svg">
<path d="M9.18458 13.0105C9.78554 12.8542 10.4231 12.9509 10.8471 13.3749L13.3335 15.8613C13.4706 15.9984 13.6591 16.073 13.8575 16.0685C14.0559 16.064 14.248 15.9809 14.3914 15.8375L15.8374 14.3916C15.9808 14.2481 16.0639 14.0561 16.0684 13.8577C16.0728 13.6593 15.9983 13.4708 15.8612 13.3336L13.3748 10.8472C12.9508 10.4232 12.8541 9.78567 13.0103 9.18471C13.2657 8.18853 13.2674 7.15519 13.0152 6.18101C12.7629 5.20683 12.2651 4.32353 11.5679 3.61343C10.8708 2.90334 9.99709 2.38957 9.02828 2.12002C8.05947 1.85047 7.02708 1.83392 6.02734 2.0719C5.50115 2.19476 5.35993 2.83239 5.72706 3.19952L8.81924 6.2917C8.95638 6.42885 9.03092 6.61735 9.02646 6.81576C9.022 7.01416 8.93891 7.20622 8.79546 7.34966L7.34954 8.79558C7.20609 8.93903 7.01404 9.02213 6.81563 9.02659C6.61723 9.03105 6.42872 8.95651 6.29158 8.81937L3.1994 5.72719C2.83226 5.36005 2.19464 5.50128 2.07178 6.02747C1.83379 7.0272 1.85035 8.05959 2.1199 9.0284C2.38944 9.99722 2.90321 10.8709 3.6133 11.568C4.3234 12.2652 5.2067 12.7631 6.18088 13.0153C7.15506 13.2675 8.1884 13.2658 9.18458 13.0105Z" fill="#494B57"/>
</svg>
