<svg width="16" height="16" viewBox="0 0 16 16" fill="none" xmlns="http://www.w3.org/2000/svg">
<path d="M1.14644 5.85352C0.951185 5.65825 0.951185 5.34175 1.14644 5.14648L4.14644 2.14648L4.22457 2.08203C4.41865 1.95387 4.68261 1.97562 4.85347 2.14648L7.85347 5.14648L7.91793 5.22461C8.04609 5.41869 8.02434 5.68265 7.85347 5.85352C7.68261 6.02438 7.41865 6.04613 7.22457 5.91797L7.14644 5.85352L4.99996 3.70703L4.99996 13.5C4.99996 13.7761 4.7761 14 4.49996 14C4.22382 14 3.99996 13.7761 3.99996 13.5L3.99996 3.70703L1.85347 5.85352C1.65821 6.04877 1.3417 6.04878 1.14644 5.85352Z" fill="#CED0D6"/>
<path d="M11 2.5H14C14.2761 2.5 14.5 2.72386 14.5 3V5C14.5 5.27614 14.2761 5.5 14 5.5H11C10.7239 5.5 10.5 5.27614 10.5 5V3C10.5 2.72386 10.7239 2.5 11 2.5Z" stroke="#CED0D6"/>
<path d="M11 7.5H14C14.2761 7.5 14.5 7.72386 14.5 8V10C14.5 10.2761 14.2761 10.5 14 10.5H11C10.7239 10.5 10.5 10.2761 10.5 10V8C10.5 7.72386 10.7239 7.5 11 7.5Z" stroke="#CED0D6"/>
</svg>
