<svg width="16" height="16" viewBox="0 0 16 16" fill="none" xmlns="http://www.w3.org/2000/svg">
<path d="M6.03809 2C6.29849 2 6.54868 2.10166 6.73535 2.2832L8.5 4H13C14.1046 4 15 4.89543 15 6V8.17383C14.6869 8.06306 14.351 8 14 8H11C9.34315 8 8 9.34315 8 11V14H2.75C1.78364 14 1.00023 13.1645 1 12.1338V3.86621C1.00023 2.83549 1.78364 2 2.75 2H6.03809Z" fill="#FFF4EB"/>
<path d="M6.03809 2C6.29849 2 6.54868 2.10166 6.73535 2.2832L8.5 4H13C14.1046 4 15 4.89543 15 6V8.17383C14.7331 8.07939 14.4498 8.01888 14.1543 8.00391L14 8V6C14 5.48232 13.6067 5.05621 13.1025 5.00488L13 5H8.09375L7.80273 4.7168L6.03809 3H2.75C2.3957 3 2.00022 3.32606 2 3.86621V12.1338C2.00022 12.6739 2.3957 13 2.75 13H8V14H2.75C1.84391 14 1.09841 13.2655 1.00879 12.3242L1 12.1338V3.86621C1.00023 2.83549 1.78364 2 2.75 2H6.03809Z" fill="#E66D17"/>
<rect x="9.5" y="9.5" width="6" height="6" rx="1.5" fill="#EDF3FF" stroke="#3574F0"/>
</svg>
