<svg width="18" height="18" viewBox="0 0 18 18" fill="none" xmlns="http://www.w3.org/2000/svg">
<path d="M2 6.25H11M11 6.25C11 7.49264 12.0073 8.5 13.25 8.5C14.4927 8.5 15.5 7.49264 15.5 6.25C15.5 5.00736 14.4927 4 13.25 4C12.0073 4 11 5.00736 11 6.25ZM6.5 12.25H15.5M6.5 12.25C6.5 13.4927 5.49264 14.5 4.25 14.5C3.00736 14.5 2 13.4927 2 12.25C2 11.0073 3.00736 10 4.25 10C5.49264 10 6.5 11.0073 6.5 12.25Z" stroke="#383A42" stroke-width="1.2" stroke-linecap="round" stroke-linejoin="round"/>
</svg>
