<svg width="104" height="24" viewBox="0 0 104 24" fill="none" xmlns="http://www.w3.org/2000/svg">
<path d="M0 0H6.00018V6H0V0Z" fill="#276EF0"/>
<path opacity="0.6" d="M12 0H18.0002V6H12V0Z" fill="#276EF0"/>
<path opacity="0.6" d="M6 6H12.0002V12H6V6Z" fill="#276EF0"/>
<path opacity="0.45" d="M12 6H18.0002V12H12V6Z" fill="#276EF0"/>
<path opacity="0.3" d="M18 6H24.0002V12H18V6Z" fill="#276EF0"/>
<path opacity="0.6" d="M0 12H6.00018V18H0V12Z" fill="#276EF0"/>
<path opacity="0.45" d="M6 12H12.0002V18H6V12Z" fill="#276EF0"/>
<path opacity="0.3" d="M12 12H18.0002V18H12V12Z" fill="#276EF0"/>
<path opacity="0.15" d="M18 12H24.0002V18H18V12Z" fill="#276EF0"/>
<path opacity="0.3" d="M6 18H12.0002V24H6V18Z" fill="#276EF0"/>
<path opacity="0.15" d="M12 18H18.0002V24H12V18Z" fill="#276EF0"/>
<path d="M41.7024 9.28872L38.2936 9.49769C38.2353 9.20745 38.11 8.94623 37.9177 8.71404C37.7254 8.47604 37.4719 8.28738 37.1573 8.14806C36.8484 8.00294 36.4784 7.93038 36.0472 7.93038C35.4703 7.93038 34.9838 8.05228 34.5875 8.29609C34.1913 8.53409 33.9932 8.85335 33.9932 9.25389C33.9932 9.57315 34.1214 9.84308 34.3778 10.0637C34.6341 10.2842 35.0741 10.4613 35.6976 10.5948L38.1275 11.0824C39.4328 11.3494 40.4059 11.779 41.0469 12.3711C41.6879 12.9632 42.0083 13.741 42.0083 14.7046C42.0083 15.5812 41.749 16.3503 41.2304 17.0121C40.7176 17.6738 40.0126 18.1905 39.1152 18.562C38.2236 18.9277 37.1952 19.1105 36.0297 19.1105C34.2525 19.1105 32.8365 18.7419 31.7818 18.0047C30.7329 17.2617 30.1181 16.2516 29.9375 14.9746L33.5998 14.783C33.7106 15.3229 33.9786 15.735 34.404 16.0194C34.8294 16.2981 35.3742 16.4374 36.0385 16.4374C36.6911 16.4374 37.2156 16.3126 37.6118 16.063C38.0139 15.8076 38.2178 15.4796 38.2236 15.0791C38.2178 14.7424 38.0751 14.4666 37.7954 14.2519C37.5156 14.0313 37.0844 13.8629 36.5017 13.7468L34.1767 13.2854C32.8656 13.0241 31.8896 12.5714 31.2486 11.927C30.6134 11.2827 30.2959 10.4613 30.2959 9.46286C30.2959 8.60374 30.529 7.86362 30.9951 7.2425C31.4671 6.62139 32.1285 6.14249 32.9792 5.8058C33.8358 5.46912 34.8381 5.30078 35.986 5.30078C37.6817 5.30078 39.0161 5.65778 39.9893 6.37178C40.9682 7.08577 41.5393 8.05809 41.7024 9.28872Z" fill="#0F0D0E"/>
<path d="M47.6892 19.1018C46.8326 19.1018 46.0692 18.9538 45.3991 18.6578C44.729 18.3559 44.1987 17.9118 43.8083 17.3255C43.4237 16.7334 43.2314 15.9962 43.2314 15.1139C43.2314 14.3709 43.3684 13.7468 43.6422 13.2418C43.9161 12.7368 44.289 12.3305 44.761 12.0228C45.233 11.7151 45.7691 11.483 46.3693 11.3262C46.9753 11.1695 47.6105 11.0592 48.2748 10.9953C49.0556 10.9141 49.6849 10.8386 50.1628 10.769C50.6406 10.6935 50.9873 10.5832 51.2029 10.4381C51.4185 10.293 51.5263 10.0782 51.5263 9.79374V9.7415C51.5263 9.19003 51.3515 8.76338 51.0019 8.46152C50.6581 8.15967 50.1686 8.00875 49.5334 8.00875C48.8633 8.00875 48.3301 8.15677 47.9339 8.45282C47.5377 8.74306 47.2754 9.10877 47.1472 9.54993L43.7034 9.2713C43.8782 8.45862 44.222 7.75623 44.7348 7.16414C45.2476 6.56624 45.909 6.10766 46.719 5.78839C47.5347 5.46332 48.4787 5.30078 49.5509 5.30078C50.2968 5.30078 51.0106 5.38785 51.6924 5.562C52.38 5.73615 52.9889 6.00607 53.5192 6.37178C54.0553 6.73748 54.4777 7.20768 54.7866 7.78236C55.0954 8.35123 55.2498 9.0333 55.2498 9.82857V18.8493H51.7186V16.9947H51.6137C51.3981 17.4126 51.1097 17.7812 50.7484 18.1005C50.3871 18.414 49.953 18.6607 49.446 18.8406C48.9391 19.0148 48.3535 19.1018 47.6892 19.1018ZM48.7555 16.5419C49.3033 16.5419 49.7869 16.4345 50.2065 16.2197C50.626 15.9991 50.9553 15.7031 51.1942 15.3316C51.4331 14.9601 51.5525 14.5392 51.5525 14.069V12.6497C51.436 12.7252 51.2757 12.7948 51.0718 12.8587C50.8737 12.9168 50.6493 12.9719 50.3988 13.0241C50.1482 13.0706 49.8976 13.1141 49.6471 13.1548C49.3965 13.1896 49.1692 13.2215 48.9653 13.2505C48.5283 13.3144 48.1466 13.416 47.8203 13.5553C47.494 13.6946 47.2405 13.8833 47.0598 14.1213C46.8792 14.3535 46.7889 14.6437 46.7889 14.992C46.7889 15.497 46.9724 15.883 47.3395 16.1501C47.7125 16.4113 48.1845 16.5419 48.7555 16.5419Z" fill="#0F0D0E"/>
<path d="M57.6463 23.8647V5.47493H61.3174V7.72141H61.4835C61.6466 7.3615 61.8826 6.9958 62.1915 6.62429C62.5061 6.24697 62.914 5.93351 63.4152 5.6839C63.9221 5.42849 64.5515 5.30078 65.3032 5.30078C66.2821 5.30078 67.1853 5.55619 68.0128 6.06702C68.8402 6.57204 69.5016 7.33538 69.9969 8.35704C70.4922 9.37289 70.7398 10.6471 70.7398 12.1795C70.7398 13.6714 70.498 14.931 70.0144 15.9585C69.5366 16.9802 68.8839 17.7551 68.0565 18.2833C67.2348 18.8058 66.3142 19.067 65.2944 19.067C64.5719 19.067 63.9571 18.948 63.4501 18.71C62.949 18.472 62.5382 18.173 62.2177 17.8131C61.8972 17.4474 61.6525 17.0788 61.4835 16.7073H61.3699V23.8647H57.6463ZM61.2912 12.1621C61.2912 12.9574 61.4019 13.6511 61.6233 14.2432C61.8448 14.8353 62.1653 15.2967 62.5848 15.6276C63.0044 15.9527 63.5142 16.1152 64.1144 16.1152C64.7204 16.1152 65.2332 15.9498 65.6528 15.6189C66.0723 15.2822 66.3899 14.8178 66.6055 14.2257C66.8269 13.6278 66.9377 12.94 66.9377 12.1621C66.9377 11.3901 66.8299 10.7109 66.6143 10.1246C66.3987 9.53832 66.0811 9.07974 65.6615 8.74887C65.242 8.41799 64.7263 8.25255 64.1144 8.25255C63.5084 8.25255 62.9956 8.41218 62.5761 8.73145C62.1623 9.05072 61.8448 9.5035 61.6233 10.0898C61.4019 10.6761 61.2912 11.3669 61.2912 12.1621Z" fill="#0F0D0E"/>
<path d="M72.7299 18.8493V5.47493H76.4534V18.8493H72.7299Z" fill="#0F0D0E"/>
<path d="M85.0099 19.1105C83.6347 19.1105 82.4518 18.8203 81.4612 18.2398C80.4764 17.6535 79.7189 16.8408 79.1887 15.8018C78.6642 14.7627 78.402 13.5669 78.402 12.2144C78.402 10.8444 78.6671 9.64281 79.1974 8.60955C79.7335 7.57048 80.4939 6.7607 81.4787 6.18022C82.4635 5.59393 83.6347 5.30078 84.9924 5.30078C86.1637 5.30078 87.1893 5.51266 88.0692 5.93641C88.9491 6.36017 89.6454 6.95516 90.1582 7.72141C90.671 8.48765 90.9536 9.3874 91.006 10.4207H87.4923C87.3932 9.75311 87.131 9.21616 86.7056 8.80982C86.2861 8.39767 85.7354 8.1916 85.0536 8.1916C84.4767 8.1916 83.9727 8.34833 83.5415 8.66179C83.1161 8.96945 82.784 9.41933 82.5451 10.0114C82.3062 10.6035 82.1867 11.3204 82.1867 12.1621C82.1867 13.0154 82.3032 13.741 82.5363 14.3389C82.7752 14.9368 83.1103 15.3925 83.5415 15.706C83.9727 16.0194 84.4767 16.1762 85.0536 16.1762C85.479 16.1762 85.8607 16.0891 86.1987 15.915C86.5425 15.7408 86.8251 15.4883 87.0465 15.1574C87.2738 14.8207 87.4223 14.4173 87.4923 13.9471H91.006C90.9478 14.9688 90.668 15.8685 90.1669 16.6464C89.6716 17.4184 88.9869 18.0221 88.1129 18.4575C87.2388 18.8929 86.2045 19.1105 85.0099 19.1105Z" fill="#0F0D0E"/>
<path d="M103.269 19.1992V21.7326H92.6016V19.1992H103.269Z" fill="#276EF0"/>
<path d="M72.7344 0H76.4678V3.73333H72.7344V0Z" fill="#276EF0"/>
</svg>
