<svg width="81" height="80" viewBox="0 0 81 80" fill="none" xmlns="http://www.w3.org/2000/svg" xmlns:xlink="http://www.w3.org/1999/xlink">
<path d="M0.117188 0H20.1175V20H0.117188V0Z"/>
<path opacity="0.6" d="M40.1172 0H60.1175V20H40.1172V0Z" fill="#C9CCD6"/>
<path opacity="0.6" d="M20.1172 20H40.1175V40H20.1172V20Z" fill="#C9CCD6"/>
<path d="M0 0H20.0003V20H0V0Z" fill="#C9CCD6"/>
<path opacity="0.45" d="M40.1172 20H60.1175V40H40.1172V20Z" fill="#C9CCD6"/>
<path opacity="0.3" d="M60.1172 20H80.1175V40H60.1172V20Z" fill="#C9CCD6"/>
<path opacity="0.6" d="M0.117188 40H20.1175V60H0.117188V40Z" fill="#C9CCD6"/>
<path opacity="0.45" d="M20.1172 40H40.1175V60H20.1172V40Z" fill="#C9CCD6"/>
<path opacity="0.3" d="M40.1172 40H60.1175V60H40.1172V40Z" fill="#C9CCD6"/>
<path opacity="0.15" d="M60.1172 40H80.1175V60H60.1172V40Z" fill="#C9CCD6"/>
<path opacity="0.3" d="M20.1172 60H40.1175V80H20.1172V60Z" fill="#C9CCD6"/>
<path opacity="0.15" d="M40.1172 60H60.1175V80H40.1172V60Z" fill="#C9CCD6"/>
</svg>
