<svg width="16" height="16" viewBox="0 0 16 16" fill="none" xmlns="http://www.w3.org/2000/svg">
<g clip-path="url(#clip0_8061_21320)">
<path d="M3.5 13.5H2.5C1.94772 13.5 1.5 13.0523 1.5 12.5V8V3.5C1.5 2.94772 1.94772 2.5 2.5 2.5H3.5" stroke="#9DA0A8" stroke-linecap="square"/>
<path d="M12.5 13.5H13.5C14.0523 13.5 14.5 13.0523 14.5 12.5V3.5C14.5 2.94771 14.0523 2.5 13.5 2.5H12.5" stroke="#9DA0A8" stroke-linecap="square"/>
<path d="M7.03525 4.3995C7.56791 3.86683 8.43227 3.86683 8.96493 4.3995L11.6007 7.03525C12.1333 7.56791 12.1333 8.43227 11.6007 8.96493L8.96493 11.6007C8.43227 12.1333 7.56791 12.1333 7.03525 11.6007L4.3995 8.96493C3.86683 8.43227 3.86683 7.56791 4.3995 7.03525L7.03525 4.3995Z" fill="#433358" stroke="#955AE0"/>
</g>
<defs>
<clipPath id="clip0_8061_21320">
<rect width="16" height="16" fill="white"/>
</clipPath>
</defs>
</svg>
