<svg width="18" height="18" viewBox="0 0 18 18" fill="none" xmlns="http://www.w3.org/2000/svg">
<path d="M18 9C18 9.37273 17.6979 9.6747 17.3252 9.6748H12.5371C12.2212 11.3404 10.7574 12.6004 9 12.6006L8.81543 12.5957C7.14111 12.511 5.76878 11.2815 5.46387 9.6748H0.674805C0.302102 9.6747 -1.6293e-08 9.37273 0 9C2.09535e-07 8.62727 0.302102 8.3253 0.674805 8.32519H5.46484C5.78082 6.6598 7.2427 5.40058 9 5.40039C10.7574 5.40058 12.2212 6.65963 12.5371 8.3252H17.3252C17.6979 8.3253 18 8.62727 18 9ZM11.1006 9C11.1004 7.84051 10.1595 6.9006 9 6.90039C7.84051 6.9006 6.9006 7.84051 6.90039 9C6.9006 10.1595 7.84051 11.1004 9 11.1006C10.1595 11.1004 11.1004 10.1595 11.1006 9Z" fill="#3574F0"/>
</svg>
