<svg width="18" height="18" viewBox="0 0 18 18" fill="none" xmlns="http://www.w3.org/2000/svg">
<g clip-path="url(#clip0_8693_48933)">
<path d="M8.99834 16.4508C13.1129 16.4508 16.4483 13.1153 16.4483 9.00078C16.4483 4.88626 13.1129 1.55078 8.99834 1.55078C4.88382 1.55078 1.54834 4.88626 1.54834 9.00078C1.54834 13.1153 4.88382 16.4508 8.99834 16.4508Z" fill="#FFFFFF" stroke="#3574F0" stroke-width="1.3"/>
<path d="M9 1.55078C9.89939 1.55078 10.8508 2.21462 11.6143 3.58887C12.3653 4.94098 12.8496 6.85286 12.8496 9C12.8496 11.1474 12.3654 13.0599 11.6143 14.4121C10.8508 15.7864 9.89939 16.4502 9 16.4502C8.10061 16.4502 7.14921 15.7864 6.38574 14.4121C5.63461 13.0599 5.15039 11.1474 5.15039 9C5.15045 6.85286 5.63471 4.94098 6.38574 3.58887C7.14921 2.21462 8.10061 1.55078 9 1.55078Z" stroke="#3574F0" stroke-width="1.3"/>
<path d="M15.2953 5.40039H2.69531" stroke="#3574F0" stroke-width="1.3"/>
<path d="M15.2953 12.5996H2.69531" stroke="#3574F0" stroke-width="1.3"/>
<path d="M16.463 5.84961C16.8721 6.81792 17.0984 7.88232 17.0984 8.99961C17.0984 10.1169 16.8721 11.1813 16.463 12.1496H1.53389C1.12476 11.1813 0.898438 10.1169 0.898438 8.99961C0.898438 7.88232 1.12476 6.81792 1.53389 5.84961H16.463Z" fill="white"/>
<path d="M0.898438 11.2503V6.75H1.95366L1.96659 8.55H3.14844L3.13551 6.75H4.19074V11.2503H3.13551L3.14844 9.54863H1.96659L1.95366 11.2503H0.898438Z" fill="#208A3C"/>
<path d="M6.23503 11.2503V7.74863H4.93359V6.75H8.5917V7.74863H7.29026V11.2503H6.23503Z" fill="#208A3C"/>
<path d="M10.4533 11.2503V7.74863H9.15186V6.75H12.8099V7.74863H11.5085V11.2503H10.4533Z" fill="#208A3C"/>
<path d="M13.5527 11.2503V6.75H15.3044C15.6655 6.75 15.9797 6.82151 16.247 6.96452C16.519 7.10753 16.7277 7.30726 16.8731 7.5637C17.0232 7.82014 17.0982 8.12096 17.0982 8.46616C17.0982 8.80644 17.0232 9.10726 16.8731 9.36863C16.723 9.62507 16.5143 9.82479 16.247 9.96781C15.9797 10.1108 15.6655 10.1823 15.3044 10.1823H14.6079V11.2503H13.5527ZM14.6079 9.22068H15.3044C15.5295 9.22068 15.7077 9.14918 15.839 9.00616C15.975 8.86315 16.043 8.68315 16.043 8.46616C16.043 8.24918 15.975 8.06918 15.839 7.92616C15.7077 7.78315 15.5295 7.71164 15.3044 7.71164H14.6079V9.22068Z" fill="#208A3C"/>
</g>
<defs>
<clipPath id="clip0_8693_48933">
<rect width="18" height="18" fill="white"/>
</clipPath>
</defs>
</svg>
