<svg width="16" height="16" viewBox="0 0 16 16" fill="none" xmlns="http://www.w3.org/2000/svg">
<path d="M8 2C9.65685 2 11 3.34315 11 5V6C12.1046 6 13 6.89543 13 8V12L12.9893 12.2041C12.8938 13.1457 12.1457 13.8938 11.2041 13.9893L11 14H5L4.7959 13.9893C3.78722 13.887 3 13.0357 3 12V8C3 6.89543 3.89543 6 5 6V5C5 3.34315 6.34315 2 8 2ZM5 7C4.44772 7 4 7.44772 4 8V12C4 12.5523 4.44772 13 5 13H11C11.5523 13 12 12.5523 12 12V8C12 7.44772 11.5523 7 11 7H5ZM8 8.5C8.27614 8.5 8.5 8.72386 8.5 9V11C8.5 11.2761 8.27614 11.5 8 11.5C7.72386 11.5 7.5 11.2761 7.5 11V9C7.5 8.72386 7.72386 8.5 8 8.5ZM8 3C6.89543 3 6 3.89543 6 5V6H10V5C10 3.89543 9.10457 3 8 3Z" fill="#CED0D6"/>
</svg>
