<svg width="16" height="16" viewBox="0 0 16 16" fill="none" xmlns="http://www.w3.org/2000/svg">
<path d="M7.50004 9C7.46737 9 7.43454 8.99758 7.40238 8.99121L7.39945 8.99023C7.34043 8.97819 7.28582 8.95471 7.23637 8.92383C7.22414 8.91621 7.21288 8.90721 7.20121 8.89844C7.18672 8.88753 7.17243 8.87664 7.15922 8.86426C7.15519 8.86049 7.15045 8.85745 7.14652 8.85352C7.14209 8.84909 7.13903 8.84342 7.1348 8.83887C7.12187 8.82491 7.10997 8.81029 7.09867 8.79492C7.09039 8.78368 7.08245 8.77248 7.07523 8.76074C7.06486 8.74385 7.05624 8.72615 7.04789 8.70801C7.0441 8.69976 7.03949 8.69199 7.03617 8.68359C7.02817 8.66336 7.02198 8.64252 7.01664 8.62109C7.01411 8.61095 7.01071 8.60107 7.00883 8.59082C7.00341 8.56133 7.00004 8.53104 7.00004 8.5V4.5C7.00004 4.22386 7.2239 4 7.50004 4C7.77618 4 8.00004 4.22386 8.00004 4.5V7.29297L13.1465 2.14648C13.3418 1.95122 13.6583 1.95122 13.8536 2.14648C14.0488 2.34175 14.0488 2.65825 13.8536 2.85352L8.70707 8H11.5C11.7762 8 12 8.22386 12 8.5C12 8.77614 11.7762 9 11.5 9H7.50004Z" fill="#CED0D6"/>
<path d="M2.5 4.5V12C2.5 12.8284 3.17157 13.5 4 13.5H11.5" stroke="#CED0D6" stroke-linecap="round"/>
</svg>
