<svg width="16" height="16" viewBox="0 0 16 16" fill="none" xmlns="http://www.w3.org/2000/svg">
<path d="M9.2041 1.01074C10.2128 1.113 11 1.96435 11 3H13L13.1025 3.00488C13.6067 3.05621 14 3.48232 14 4V6H13V13L12.9893 13.2041C12.8938 14.1457 12.1457 14.8938 11.2041 14.9893L11 15H5L4.7959 14.9893C3.85435 14.8938 3.1062 14.1457 3.01074 13.2041L3 13V6H2V4C2 3.48232 2.39333 3.05621 2.89746 3.00488L3 3H5C5 1.96435 5.78722 1.113 6.7959 1.01074L7 1H9L9.2041 1.01074ZM4 13C4 13.5523 4.44772 14 5 14H11C11.5523 14 12 13.5523 12 13V6H4V13ZM6.5 7C6.77614 7 7 7.22386 7 7.5V11.5C7 11.7761 6.77614 12 6.5 12C6.22386 12 6 11.7761 6 11.5V7.5C6 7.22386 6.22386 7 6.5 7ZM9.5 7C9.77614 7 10 7.22386 10 7.5V11.5C10 11.7761 9.77614 12 9.5 12C9.22386 12 9 11.7761 9 11.5V7.5C9 7.22386 9.22386 7 9.5 7ZM3 5H13V4H3V5ZM7 2C6.48232 2 6.05621 2.39333 6.00488 2.89746L6 3H10C10 2.44772 9.55228 2 9 2H7Z" fill="#CED0D6"/>
</svg>
