<svg width="16" height="16" viewBox="0 0 16 16" fill="none" xmlns="http://www.w3.org/2000/svg">
<circle cx="8" cy="8" r="6.5" fill="#3D3223" stroke="#D6AE58"/>
<path d="M5.99902 4.98047H8.51882C8.92589 4.98047 9.28279 5.055 9.58952 5.20407C9.89912 5.35314 10.1371 5.56527 10.3033 5.84047C10.4725 6.11567 10.557 6.43387 10.557 6.79507C10.557 7.15914 10.471 7.47877 10.299 7.75397C10.1299 8.02917 9.88909 8.24274 9.57662 8.39467C9.26416 8.5466 8.90009 8.62257 8.48442 8.62257H6.97942V11.0005H5.99902V4.98047ZM8.47582 7.77547C8.68796 7.77547 8.87429 7.73677 9.03482 7.65937C9.19536 7.5791 9.31862 7.46587 9.40462 7.31967C9.49062 7.1706 9.53362 6.99717 9.53362 6.79937C9.53362 6.60157 9.49062 6.42957 9.40462 6.28337C9.31862 6.13717 9.19536 6.02537 9.03482 5.94797C8.87429 5.8677 8.68796 5.82757 8.47582 5.82757H6.97942V7.77547H8.47582Z" fill="#D6AE58"/>
</svg>
