<svg width="24" height="16" viewBox="0 0 24 16" fill="none" xmlns="http://www.w3.org/2000/svg">
<path d="M2.61533 12.919C2.53844 12.919 2.5 12.8696 2.5 12.7706V4.22938C2.5 4.13043 2.53844 4.08096 2.61533 4.08096H4.1915C4.99453 4.08096 5.58399 4.31034 5.95988 4.76912C6.34431 5.22789 6.53653 5.94753 6.53653 6.92804C6.53653 7.83658 6.34004 8.53373 5.94706 9.01949C5.56263 9.50525 4.99453 9.74813 4.24275 9.74813H3.84551V12.7706C3.84551 12.8696 3.80707 12.919 3.73018 12.919H2.61533ZM3.84551 8.46627H4.1915C4.54176 8.46627 4.79377 8.34033 4.94754 8.08846C5.10986 7.83658 5.19102 7.45427 5.19102 6.94153C5.19102 6.37481 5.10986 5.97001 4.94754 5.72714C4.79377 5.48426 4.5503 5.36282 4.21713 5.36282H3.84551V8.46627Z" fill="#E08855"/>
<path d="M9.59766 13C8.83734 13 8.25642 12.7661 7.8549 12.2984C7.46193 11.8306 7.26544 11.1334 7.26544 10.2069V6.8066C7.26544 5.87106 7.46193 5.16941 7.8549 4.70165C8.25642 4.23388 8.83734 4 9.59766 4C10.3494 4 10.9261 4.23388 11.3276 4.70165C11.7291 5.16941 11.9299 5.87106 11.9299 6.8066V10.2069C11.9299 11.1334 11.7291 11.8306 11.3276 12.2984C10.9261 12.7661 10.3494 13 9.59766 13ZM9.59766 11.7046C9.93083 11.7046 10.1786 11.5832 10.3409 11.3403C10.5117 11.0975 10.5972 10.6972 10.5972 10.1394V6.87406C10.5972 6.30735 10.5117 5.90255 10.3409 5.65967C10.1786 5.41679 9.93083 5.29535 9.59766 5.29535C9.26448 5.29535 9.01247 5.41679 8.84161 5.65967C8.67929 5.90255 8.59814 6.30735 8.59814 6.87406V10.1394C8.59814 10.6972 8.67929 11.0975 8.84161 11.3403C9.01247 11.5832 9.26448 11.7046 9.59766 11.7046Z" fill="#E08855"/>
<path d="M14.6804 13C14.1678 13 13.7534 12.8921 13.4374 12.6762C13.1298 12.4603 12.912 12.1589 12.7838 11.7721C12.6642 11.3853 12.6258 10.931 12.6685 10.4093C12.677 10.3013 12.7155 10.2474 12.7838 10.2474H13.873C13.9499 10.2474 13.9841 10.2969 13.9756 10.3958C13.9329 10.8366 13.9756 11.1739 14.1037 11.4078C14.2319 11.6327 14.4369 11.7451 14.7188 11.7451C14.9751 11.7451 15.163 11.6642 15.2826 11.5022C15.4108 11.3403 15.4748 11.084 15.4748 10.7331C15.4748 10.4273 15.4279 10.1709 15.3339 9.96402C15.2485 9.74813 15.1032 9.55922 14.8982 9.3973L13.8218 8.50675C13.4374 8.1919 13.1512 7.85457 12.9632 7.49475C12.7753 7.12594 12.6856 6.67166 12.6941 6.13193C12.7027 5.45727 12.8735 4.93553 13.2067 4.56672C13.5399 4.18891 14.0268 4 14.6675 4C15.4022 4 15.9404 4.22039 16.2822 4.66117C16.6239 5.10195 16.7606 5.71814 16.6922 6.50974C16.6837 6.63568 16.6452 6.69865 16.5769 6.69865H15.4748C15.3894 6.69865 15.3552 6.63568 15.3723 6.50974C15.4065 6.13193 15.3681 5.83058 15.257 5.6057C15.1459 5.37181 14.9665 5.25487 14.7188 5.25487C14.5052 5.25487 14.3386 5.32684 14.219 5.47076C14.0994 5.61469 14.0354 5.83958 14.0268 6.14543C14.0268 6.44228 14.0781 6.68966 14.1806 6.88756C14.2917 7.08546 14.4497 7.26537 14.6547 7.42729L15.6927 8.27736C15.9746 8.49325 16.1967 8.71814 16.359 8.95202C16.5214 9.17691 16.6367 9.43328 16.705 9.72114C16.7819 10 16.8161 10.3328 16.8075 10.7196C16.8075 11.4393 16.6367 12.0015 16.295 12.4063C15.9532 12.8021 15.415 13 14.6804 13Z" fill="#E08855"/>
<path d="M18.8218 12.919C18.7449 12.919 18.7065 12.8696 18.7065 12.7706V5.36282H17.3738C17.2883 5.36282 17.2456 5.31334 17.2456 5.21439V4.22938C17.2456 4.13043 17.2883 4.08096 17.3738 4.08096H21.3847C21.4616 4.08096 21.5 4.13043 21.5 4.22938V5.21439C21.5 5.31334 21.4616 5.36282 21.3847 5.36282H20.052V12.7706C20.052 12.8696 20.0093 12.919 19.9238 12.919H18.8218Z" fill="#E08855"/>
</svg>
