<svg width="24" height="16" viewBox="0 0 24 16" fill="none" xmlns="http://www.w3.org/2000/svg">
<path d="M7.6442 13C7.54807 13 7.5 12.9496 7.5 12.8489V4.15114C7.5 4.05038 7.54807 4 7.6442 4H9.3353C10.2879 4 11.0002 4.30687 11.4721 4.92061C11.9528 5.53435 12.1931 6.47328 12.1931 7.7374V8.96031C12.1931 10.3252 11.9572 11.342 11.4852 12.0107C11.022 12.6702 10.3229 13 9.38774 13H7.6442ZM8.87647 11.6947H9.3353C9.86841 11.6947 10.2486 11.4794 10.4758 11.0489C10.7118 10.6092 10.8298 9.92672 10.8298 9.00153V7.7374C10.8298 6.90382 10.7074 6.29008 10.4627 5.89618C10.218 5.50229 9.82908 5.30534 9.29597 5.30534H8.87647V11.6947Z" fill="#DB5C5C"/>
<path d="M13.2896 13C13.2022 13 13.1585 12.9496 13.1585 12.8489V4.15114C13.1585 4.05038 13.1978 4 13.2765 4H16.7636C16.8422 4 16.8815 4.05038 16.8815 4.15114V5.1542C16.8815 5.25496 16.8422 5.30534 16.7636 5.30534H14.535V7.80611H16.5669C16.6456 7.80611 16.6849 7.85649 16.6849 7.95725V8.90534C16.6849 9.00611 16.6456 9.05649 16.5669 9.05649H14.535V11.6947H16.7636C16.8422 11.6947 16.8815 11.745 16.8815 11.8458V12.8489C16.8815 12.9496 16.8422 13 16.7636 13H13.2896Z" fill="#DB5C5C"/>
<path d="M18.0391 13C17.9518 13 17.9081 12.9496 17.9081 12.8489V4.15114C17.9081 4.05038 17.9518 4 18.0391 4H19.1534C19.2408 4 19.2845 4.05038 19.2845 4.15114V11.6947H21.3689C21.4563 11.6947 21.5 11.745 21.5 11.8458V12.8489C21.5 12.9496 21.4563 13 21.3689 13H18.0391Z" fill="#DB5C5C"/>
</svg>
