<svg width="16" height="16" viewBox="0 0 16 16" fill="none" xmlns="http://www.w3.org/2000/svg">
<mask id="path-1-inside-1_7673_20594" fill="white">
<path d="M5.56657 12.7091L3.29515 10.4371C2.99394 10.7384 2.82472 11.147 2.82472 11.5731C2.82472 11.9991 2.99394 12.4078 3.29515 12.7091C3.59636 13.0103 4.00489 13.1796 4.43086 13.1796C4.85684 13.1796 5.26537 13.0103 5.56657 12.7091Z"/>
<path d="M13.6562 2.34094C12.2099 0.900516 9.50873 0.0993917 6.91286 2.69587L5.49322 4.11584L1.66784 5.39127C0.97948 5.62078 0.77324 6.49462 1.28631 7.00781L8.99031 14.7136C9.50339 15.2268 10.377 15.0205 10.6065 14.332L11.8816 10.5057L13.3012 9.08576C15.8971 6.48928 15.1033 3.79455 13.6632 2.34799L13.6597 2.34446L13.6562 2.34094Z"/>
</mask>
<path d="M5.56657 12.7091L6.39399 13.5363C6.85077 13.0794 6.85077 12.3387 6.39399 11.8818L5.56657 12.7091ZM3.29515 10.4371L4.12256 9.60988C3.90314 9.3904 3.6055 9.2671 3.29515 9.2671C2.9848 9.2671 2.68716 9.3904 2.46774 9.60988L3.29515 10.4371ZM6.91286 2.69587L7.74027 3.52309L6.91286 2.69587ZM13.6562 2.34094L14.4823 1.51245L14.4818 1.51196L13.6562 2.34094ZM5.49322 4.11584L5.86328 5.22578C6.03561 5.16832 6.1922 5.07153 6.32063 4.94306L5.49322 4.11584ZM1.66784 5.39127L2.0379 6.5012H2.0379L1.66784 5.39127ZM1.28631 7.00781L2.11372 6.1806L1.28631 7.00781ZM8.99031 14.7136L8.1629 15.5408L8.99031 14.7136ZM10.6065 14.332L9.49649 13.9621L10.6065 14.332ZM11.8816 10.5057L11.0542 9.67851C10.9258 9.80695 10.829 9.96352 10.7716 10.1358L11.8816 10.5057ZM13.3012 9.08576L14.1287 9.91298L13.3012 9.08576ZM13.6632 2.34799L14.4924 1.52254L14.492 1.5221L13.6632 2.34799ZM13.6597 2.34446L14.4885 1.51857L14.4859 1.51597L13.6597 2.34446ZM5.56657 12.7091L6.39399 11.8818L4.12256 9.60988L3.29515 10.4371L2.46774 11.2643L4.73916 13.5363L5.56657 12.7091ZM3.29515 10.4371L2.46774 9.60988C1.94714 10.1306 1.65472 10.8368 1.65472 11.5731H2.82472H3.99472C3.99472 11.4572 4.04074 11.3462 4.12256 11.2643L3.29515 10.4371ZM2.82472 11.5731H1.65472C1.65472 12.3094 1.94714 13.0156 2.46774 13.5363L3.29515 12.7091L4.12256 11.8818C4.04074 11.8 3.99472 11.6889 3.99472 11.5731H2.82472ZM3.29515 12.7091L2.46774 13.5363C2.98834 14.057 3.6945 14.3496 4.43086 14.3496V13.1796V12.0096C4.31528 12.0096 4.20438 11.9637 4.12256 11.8818L3.29515 12.7091ZM4.43086 13.1796V14.3496C5.16723 14.3496 5.87338 14.057 6.39399 13.5363L5.56657 12.7091L4.73916 11.8818C4.65735 11.9637 4.54645 12.0096 4.43086 12.0096V13.1796ZM6.91286 2.69587L7.74027 3.52309C8.83785 2.42525 9.85247 2.13509 10.6604 2.17326C11.5033 2.21308 12.2767 2.61826 12.8306 3.16992L13.6562 2.34094L14.4818 1.51196C13.5895 0.623193 12.2892 -0.0923998 10.7708 -0.16413C9.21767 -0.237507 7.58374 0.37001 6.08545 1.86865L6.91286 2.69587ZM5.49322 4.11584L6.32063 4.94306L7.74027 3.52309L6.91286 2.69587L6.08545 1.86865L4.66581 3.28863L5.49322 4.11584ZM1.66784 5.39127L2.0379 6.5012L5.86328 5.22578L5.49322 4.11584L5.12315 3.00591L1.29777 4.28134L1.66784 5.39127ZM1.28631 7.00781L2.11372 6.1806C2.21537 6.28226 2.17477 6.45557 2.0379 6.5012L1.66784 5.39127L1.29777 4.28134C-0.215809 4.78598 -0.668886 6.70698 0.458899 7.83503L1.28631 7.00781ZM8.99031 14.7136L8.1629 15.5408C9.29114 16.6693 11.2121 16.2154 11.7165 14.7019L10.6065 14.332L9.49649 13.9621C9.54198 13.8256 9.71563 13.7843 9.81773 13.8864L8.99031 14.7136ZM10.6065 14.332L11.7165 14.7019L12.9916 10.8756L11.8816 10.5057L10.7716 10.1358L9.49649 13.9621L10.6065 14.332ZM11.8816 10.5057L12.709 11.3329L14.1287 9.91298L13.3012 9.08576L12.4738 8.25854L11.0542 9.67851L11.8816 10.5057ZM13.3012 9.08576L14.1287 9.91298C15.6259 8.41542 16.2355 6.7839 16.1645 5.23215C16.095 3.71468 15.3812 2.41532 14.4924 1.52254L13.6632 2.34799L12.8341 3.17344C13.3854 3.72721 13.7885 4.49851 13.8269 5.33916C13.8639 6.14553 13.5725 7.15961 12.4738 8.25854L13.3012 9.08576ZM13.6597 2.34446L12.831 3.17034L12.8345 3.17387L13.6632 2.34799L14.492 1.5221L14.4885 1.51857L13.6597 2.34446ZM13.6597 2.34446L14.4859 1.51597L14.4823 1.51245L13.6562 2.34094L12.8301 3.16943L12.8336 3.17295L13.6597 2.34446ZM8.99031 14.7136L9.81773 13.8864L2.11372 6.1806L1.28631 7.00781L0.458899 7.83503L8.1629 15.5408L8.99031 14.7136Z" fill="#CED0D6" mask="url(#path-1-inside-1_7673_20594)"/>
</svg>
