<svg width="16" height="16" viewBox="0 0 16 16" fill="none" xmlns="http://www.w3.org/2000/svg">
<g clip-path="url(#clip0_7664_20376)">
<mask id="path-1-inside-1_7664_20376" fill="white">
<path d="M5.2624 13.2977L2.70704 10.7417C2.36818 11.0807 2.17781 11.5404 2.17781 12.0197C2.17781 12.499 2.36818 12.9587 2.70704 13.2977C3.04591 13.6366 3.5055 13.827 3.98472 13.827C4.46394 13.827 4.92354 13.6366 5.2624 13.2977Z"/>
<path d="M14.3632 1.63356C12.7362 0.0130801 9.69732 -0.888184 6.77697 2.03286L5.17987 3.63033L0.876317 5.06518C0.101915 5.32337 -0.130105 6.30645 0.4471 6.88379L9.1141 15.5528C9.69131 16.1302 10.6742 15.8981 10.9323 15.1235L12.3668 10.8189L13.9639 9.22148C16.8843 6.30044 15.9912 3.26887 14.3711 1.64149L14.3672 1.63751L14.3632 1.63356Z"/>
</mask>
<path d="M5.2624 13.2977L6.08981 14.1249C6.54659 13.668 6.54659 12.9274 6.08981 12.4705L5.2624 13.2977ZM2.70704 10.7417L3.53446 9.91452C3.31503 9.69504 3.01739 9.57173 2.70704 9.57173C2.39669 9.57173 2.09906 9.69504 1.87963 9.91452L2.70704 10.7417ZM6.77697 2.03286L7.60438 2.86007V2.86007L6.77697 2.03286ZM14.3632 1.63356L15.1894 0.805067L15.1889 0.804575L14.3632 1.63356ZM5.17987 3.63033L5.54993 4.74026C5.72226 4.6828 5.87885 4.58601 6.00728 4.45754L5.17987 3.63033ZM0.876317 5.06518L1.24638 6.17511H1.24638L0.876317 5.06518ZM0.4471 6.88379L1.27451 6.05657L0.4471 6.88379ZM9.1141 15.5528L8.28669 16.38H8.28669L9.1141 15.5528ZM10.9323 15.1235L9.8223 14.7536V14.7536L10.9323 15.1235ZM12.3668 10.8189L11.5394 9.99173C11.411 10.1202 11.3142 10.2767 11.2568 10.449L12.3668 10.8189ZM13.9639 9.22148L14.7913 10.0487L13.9639 9.22148ZM14.3711 1.64149L15.2003 0.816036L15.1999 0.815599L14.3711 1.64149ZM14.3672 1.63751L15.1959 0.811625L15.1933 0.809025L14.3672 1.63751ZM5.2624 13.2977L6.08981 12.4705L3.53446 9.91452L2.70704 10.7417L1.87963 11.569L4.43498 14.1249L5.2624 13.2977ZM2.70704 10.7417L1.87963 9.91452C1.32138 10.4729 1.00781 11.2302 1.00781 12.0197H2.17781H3.34781C3.34781 11.8506 3.41498 11.6885 3.53446 11.569L2.70704 10.7417ZM2.17781 12.0197H1.00781C1.00781 12.8093 1.32138 13.5665 1.87963 14.1249L2.70704 13.2977L3.53446 12.4705C3.41498 12.351 3.34781 12.1888 3.34781 12.0197H2.17781ZM2.70704 13.2977L1.87963 14.1249C2.43789 14.6833 3.19511 14.997 3.98472 14.997V13.827V12.657C3.81589 12.657 3.65392 12.59 3.53446 12.4705L2.70704 13.2977ZM3.98472 13.827V14.997C4.77433 14.997 5.53155 14.6833 6.08981 14.1249L5.2624 13.2977L4.43498 12.4705C4.31552 12.59 4.15355 12.657 3.98472 12.657V13.827ZM6.77697 2.03286L7.60438 2.86007C8.8642 1.59996 10.0443 1.25369 10.9999 1.29883C11.9903 1.34562 12.8933 1.82085 13.5376 2.46254L14.3632 1.63356L15.1889 0.804575C14.2061 -0.174216 12.7762 -0.959857 11.1103 -1.03856C9.40955 -1.11891 7.61009 -0.455286 5.94955 1.20564L6.77697 2.03286ZM5.17987 3.63033L6.00728 4.45754L7.60438 2.86007L6.77697 2.03286L5.94955 1.20564L4.35246 2.80311L5.17987 3.63033ZM0.876317 5.06518L1.24638 6.17511L5.54993 4.74026L5.17987 3.63033L4.80981 2.52039L0.506252 3.95525L0.876317 5.06518ZM0.4471 6.88379L1.27451 6.05657C1.27838 6.06045 1.2875 6.07309 1.29223 6.09082C1.29616 6.10557 1.29523 6.11654 1.29357 6.12356C1.29191 6.13058 1.28784 6.14083 1.27769 6.1523C1.26549 6.16609 1.25164 6.17336 1.24638 6.17511L0.876317 5.06518L0.506252 3.95525C-1.09337 4.48858 -1.57223 6.51881 -0.380312 7.71101L0.4471 6.88379ZM9.1141 15.5528L8.28669 16.38C9.47907 17.5727 11.5092 17.093 12.0423 15.4934L10.9323 15.1235L9.8223 14.7536C9.82402 14.7485 9.83124 14.7346 9.84503 14.7224C9.85652 14.7123 9.86684 14.7081 9.87398 14.7064C9.88111 14.7048 9.89222 14.7038 9.90709 14.7078C9.92494 14.7126 9.93764 14.7217 9.94152 14.7256L9.1141 15.5528ZM10.9323 15.1235L12.0423 15.4934L13.4768 11.1889L12.3668 10.8189L11.2568 10.449L9.8223 14.7536L10.9323 15.1235ZM12.3668 10.8189L13.1942 11.6462L14.7913 10.0487L13.9639 9.22148L13.1365 8.39426L11.5394 9.99173L12.3668 10.8189ZM13.9639 9.22148L14.7913 10.0487C16.4508 8.38886 17.1167 6.59199 17.039 4.89285C16.9627 3.228 16.1791 1.79923 15.2003 0.816036L14.3711 1.64149L13.542 2.46693C14.1833 3.11112 14.6562 4.01183 14.7014 4.99987C14.7451 5.95362 14.3974 7.13305 13.1365 8.39426L13.9639 9.22148ZM14.3672 1.63751L13.5384 2.4634L13.5424 2.46737L14.3711 1.64149L15.1999 0.815599L15.1959 0.811629L14.3672 1.63751ZM14.3672 1.63751L15.1933 0.809025L15.1894 0.805068L14.3632 1.63356L13.5371 2.46205L13.541 2.466L14.3672 1.63751ZM9.1141 15.5528L9.94152 14.7256L1.27451 6.05657L0.4471 6.88379L-0.380312 7.71101L8.28669 16.38L9.1141 15.5528Z" fill="#CED0D6" mask="url(#path-1-inside-1_7664_20376)"/>
</g>
<defs>
<clipPath id="clip0_7664_20376">
<rect width="16" height="16" fill="white"/>
</clipPath>
</defs>
</svg>
