<svg width="18" height="18" viewBox="0 0 18 18" fill="none" xmlns="http://www.w3.org/2000/svg">
<path d="M2.53348 6.70094L8.17821 2.28389C8.41378 2.09982 8.70272 2 9 2C9.29728 2 9.58622 2.09982 9.82179 2.28389L15.4733 6.69411C15.6769 6.85279 15.8316 7.06722 15.9191 7.31215C16.0067 7.55708 16.0236 7.82231 15.9677 8.07662C15.9117 8.33093 15.7854 8.56374 15.6036 8.74762C15.4217 8.93151 15.1919 9.05883 14.9411 9.1146L14.7256 9.16246L14.1732 14.7692C14.1398 15.1066 13.9842 15.4193 13.7365 15.6467C13.4888 15.8741 13.1667 16 12.8328 16H11.6944C11.5157 16 11.3444 15.928 11.2181 15.7997C11.0918 15.6715 11.0208 15.4976 11.0208 15.3162V11.8975C11.0208 11.3534 10.8079 10.8317 10.4289 10.447C10.0499 10.0623 9.53595 9.84621 9 9.84621C8.46405 9.84621 7.95006 10.0623 7.57109 10.447C7.19212 10.8317 6.97921 11.3534 6.97921 11.8975V15.3162C6.97921 15.4976 6.90825 15.6715 6.78192 15.7997C6.6556 15.928 6.48427 16 6.30562 16H5.16724C4.83326 16 4.51119 15.8741 4.26351 15.6467C4.01582 15.4193 3.86018 15.1066 3.82679 14.7692L3.27444 9.16246L3.05889 9.1146C2.80814 9.05883 2.5783 8.93151 2.39644 8.74762C2.21458 8.56374 2.08825 8.33093 2.03234 8.07662C1.97643 7.82231 1.99326 7.55708 2.08085 7.31215C2.16844 7.06722 2.32314 6.85279 2.52675 6.69411L2.53348 6.70094Z" fill="#CED0D6"/>
</svg>
