<svg width="18" height="18" viewBox="0 0 18 18" fill="none" xmlns="http://www.w3.org/2000/svg">
<path d="M9 1.59961C9.20487 1.59961 9.40505 1.66865 9.56934 1.79688L9.57031 1.79785L16.0293 6.83789C16.1715 6.9487 16.2807 7.09984 16.3428 7.27344C16.4047 7.44688 16.4165 7.635 16.377 7.81543C16.3372 7.99607 16.2476 8.16112 16.1201 8.29004C15.9927 8.41872 15.8323 8.50641 15.6592 8.54492L15.4131 8.59961L14.9893 8.69434L14.9463 9.12695L14.3154 15.5342C14.2917 15.7741 14.1811 15.9951 14.0078 16.1543C13.8346 16.3133 13.6102 16.4004 13.3799 16.4004H12.0791C12.037 16.4003 11.9944 16.3826 11.9619 16.3496C11.9294 16.3163 11.9092 16.2694 11.9092 16.2188V12.3115C11.9092 11.5335 11.6052 10.7853 11.0605 10.2324C10.5156 9.67934 9.77453 9.36719 9 9.36719C8.22547 9.36719 7.48436 9.67934 6.93945 10.2324C6.39484 10.7853 6.09082 11.5335 6.09082 12.3115V16.2188C6.09077 16.2694 6.07065 16.3163 6.03809 16.3496C6.00557 16.3826 5.96295 16.4003 5.9209 16.4004H4.62012C4.38985 16.4004 4.16539 16.3133 3.99219 16.1543C3.81887 15.9951 3.70832 15.7741 3.68457 15.5342L3.05371 9.12695L3.01074 8.69434L2.58691 8.59961L2.33984 8.54492H2.34082C2.16766 8.50641 2.00726 8.41872 1.87988 8.29004C1.75238 8.16112 1.66276 7.99607 1.62305 7.81543C1.58346 7.635 1.59528 7.44688 1.65723 7.27344C1.70308 7.14521 1.77465 7.02901 1.86621 6.93262L1.97949 6.84473L8.43066 1.79688C8.59495 1.66865 8.79513 1.59961 9 1.59961Z" stroke="#F0F1F2" stroke-width="1.2"/>
</svg>
