<svg width="16" height="16" viewBox="0 0 16 16" fill="none" xmlns="http://www.w3.org/2000/svg">
<g clip-path="url(#clip0_7357_19269)">
<path fill-rule="evenodd" clip-rule="evenodd" d="M6.06055 11.3536C5.86529 11.5488 5.54871 11.5488 5.35344 11.3536C5.15818 11.1583 5.15818 10.8417 5.35344 10.6464L7.49991 8.5L1.49993 8.5C1.22378 8.5 0.999925 8.27614 0.999925 8C0.999925 7.72386 1.22378 7.5 1.49993 7.5L7.49991 7.5L5.35344 5.35355C5.15818 5.15829 5.15818 4.84171 5.35344 4.64645C5.54871 4.45118 5.86529 4.45118 6.06056 4.64645L9.06058 7.64645C9.15435 7.74022 9.20703 7.86739 9.20703 8C9.20703 8.13261 9.15435 8.25979 9.06058 8.35355L6.06055 11.3536Z" fill="#CED0D6"/>
<path d="M8.43183 5.23285L9.84116 3.25218C10.0647 2.91678 10.6272 2.91678 10.8508 3.25218L13.6824 7.50138C13.8878 7.80948 13.8878 8.18808 13.6826 8.49622L10.8508 12.7477C10.6273 13.0833 10.0646 13.0833 9.8411 12.7477L8.43287 10.7671L7.58005 11.5L8.83138 13.245C9.50184 14.2517 11.1901 14.2517 11.8605 13.245L14.6923 8.99355C15.1028 8.37726 15.1027 7.62006 14.692 7.00386L11.8603 2.75466C11.1898 1.74845 9.50212 1.74845 8.83157 2.75466L7.57907 4.5L8.43183 5.23285Z" fill="#5FAD65"/>
</g>
<defs>
<clipPath id="clip0_7357_19269">
<rect width="16" height="16" fill="white"/>
</clipPath>
</defs>
</svg>
