<svg width="16" height="16" viewBox="0 0 16 16" fill="none" xmlns="http://www.w3.org/2000/svg">
<path fill-rule="evenodd" clip-rule="evenodd" d="M2.16667 2.16667H13.8333C14.1428 2.16667 14.4395 2.28958 14.6583 2.50838C14.8771 2.72717 15 3.02391 15 3.33333C15 3.64275 14.8771 3.9395 14.6583 4.15829C14.4395 4.37708 14.1428 4.5 13.8333 4.5H2.16667C1.85725 4.5 1.5605 4.37708 1.34171 4.15829C1.12292 3.9395 1 3.64275 1 3.33333C1 3.02391 1.12292 2.72717 1.34171 2.50838C1.5605 2.28958 1.85725 2.16667 2.16667 2.16667ZM5.41 15C5.14992 15 4.89729 14.9131 4.69226 14.7531C4.48722 14.5931 4.34153 14.3691 4.27833 14.1168L2.34867 6.39C2.32745 6.3042 2.32602 6.2147 2.34446 6.12827C2.3629 6.04183 2.40075 5.96071 2.45513 5.89104C2.50952 5.82138 2.57903 5.76498 2.6584 5.72611C2.73778 5.68724 2.82495 5.66691 2.91333 5.66667H13.0867C13.1753 5.66669 13.2627 5.6869 13.3423 5.72576C13.422 5.76462 13.4917 5.82111 13.5462 5.89095C13.6008 5.96078 13.6387 6.04212 13.6571 6.12879C13.6755 6.21547 13.6739 6.30519 13.6525 6.39117L11.7205 14.1168C11.6573 14.3691 11.5116 14.5931 11.3066 14.7531C11.1015 14.9131 10.8489 15 10.5888 15H5.41117H5.41ZM6.83333 1H9.16667C9.47609 1 9.77283 1.12292 9.99162 1.34171C10.2104 1.5605 10.3333 1.85725 10.3333 2.16667H5.66667C5.66667 1.85725 5.78958 1.5605 6.00838 1.34171C6.22717 1.12292 6.52391 1 6.83333 1Z" fill="#3574F0"/>
</svg>
