<svg width="200" height="200" viewBox="0 0 200 200" fill="none" xmlns="http://www.w3.org/2000/svg">
<path d="M139.867 124.998C146.6 127.965 135.634 128.331 120.9 129.498C106.167 130.698 97.8335 129.631 86.8669 129.465C75.9335 129.298 59.7335 130.065 58.6335 126.798C57.5002 123.531 66.6668 121.331 67.5002 119.498C68.3002 117.698 48.0335 118.698 48.5335 116.598C48.7002 115.898 49.3335 115.265 50.3669 114.698C59.3002 109.731 98.0002 109.265 116.834 109.131C137.834 108.965 159.6 108.665 168.267 113.631C169.434 114.298 169.934 114.865 169.9 115.365C169.767 118.631 147.767 118.798 141.2 119.831C133.534 120.998 133.134 122.031 139.867 124.998Z" fill="#C7D4FF"/>
<path d="M130 119.532C134.966 121.466 126.866 121.666 116 122.432C105.1 123.166 98.9331 122.499 90.8664 122.366C82.7664 122.232 70.8331 122.732 69.9998 120.599C69.1664 118.466 75.9331 117.066 76.5331 115.899C77.1331 114.732 62.1331 115.366 62.4998 113.966C62.6331 113.499 63.0998 113.099 63.8331 112.732C70.4331 109.532 99.0331 109.299 112.933 109.199C128.433 109.099 147.966 108.066 150.933 111.232C152.366 112.766 135.8 115.532 130.933 116.166C125.3 116.932 125 117.599 130 119.532Z" fill="#99ADF9"/>
<path d="M139.867 124.999C146.6 127.966 135.634 128.333 120.9 129.499C106.167 130.699 97.8335 129.633 86.8669 129.466C75.9335 129.299 59.7335 130.066 58.6335 126.799C57.5002 123.533 66.6668 121.333 67.5002 119.499C68.3002 117.699 48.0335 118.699 48.5335 116.599C48.7002 115.899 49.3335 115.266 50.3669 114.699C50.6335 115.199 51.7002 115.699 54.6668 115.933C61.4335 116.433 71.0002 116.799 71.5668 118.233C72.1335 119.666 62.1669 123.599 63.4335 125.599C64.7002 127.566 91.5335 126.766 107.567 127.333C123.6 127.899 137.867 126.866 136.034 125.766C134.2 124.666 129.734 122.233 133.1 120.033C136.467 117.833 155.034 117.466 162.867 116.699C166.067 116.399 168.334 115.866 169.867 115.366C169.734 118.633 147.734 118.799 141.167 119.833C133.534 120.999 133.134 122.033 139.867 124.999Z" fill="#99ADF9"/>
<path d="M158 112.965C155.967 113.132 156.133 115.132 159.6 114.665C163.033 114.232 161.967 112.632 158 112.965Z" fill="#99ADF9"/>
<path d="M145.967 114.466C143.933 114.633 144.1 116.633 147.567 116.166C151.033 115.766 149.933 114.133 145.967 114.466Z" fill="#99ADF9"/>
<path d="M58.4003 113.633C56.3669 113.8 56.5336 115.8 60.0003 115.333C63.4669 114.933 62.3669 113.333 58.4003 113.633Z" fill="#99ADF9"/>
<path d="M69.2665 120.532C67.2331 120.698 67.3998 122.698 70.8665 122.232C74.2998 121.798 73.2331 120.198 69.2665 120.532Z" fill="#99ADF9"/>
<path d="M176.767 123.333C174.467 124.899 170.934 125.233 165.701 125.299C161.934 125.366 159.801 124.166 160.067 122.999C160.267 122.133 161.834 121.299 165.034 120.966C171.001 120.366 176.467 121.099 177.201 122.266C177.434 122.599 177.301 122.966 176.767 123.333Z" fill="#C7D4FF"/>
<path d="M63.9002 108.733C61.1335 110.333 56.8002 110.766 50.3335 110.966C45.7002 111.1 43.0335 109.966 43.3668 108.8C43.6002 107.933 45.5002 107.033 49.4335 106.666C56.7335 105.933 63.5002 106.533 64.4668 107.7C64.7335 108 64.5668 108.333 63.9002 108.733Z" fill="#C7D4FF"/>
<path d="M169.934 59.3665C169.934 59.3665 174.467 58.8998 179.5 65.4331C183.5 70.5998 182.6 76.7665 182.6 76.7665C182.6 76.7665 185.667 70.4331 181.534 64.5331C177.1 58.2331 169.934 59.3665 169.934 59.3665Z" fill="#C7D4FF"/>
<path d="M167.533 79.7324C167.533 79.7324 168.733 82.5324 167.6 86.5324C166.466 90.5324 164.333 92.1991 164.333 92.1991C164.333 92.1991 168.166 91.1658 169.1 86.6991C170.066 82.1991 167.533 79.7324 167.533 79.7324Z" fill="#C7D4FF"/>
<path d="M71.3003 82.7993C71.3003 82.7993 70.8337 80.1993 74.5003 75.2993C78.167 70.3993 83.5003 68.5327 83.5003 68.5327L77.0337 55.166C77.0337 55.166 79.467 64.5327 75.9003 67.3327C72.3003 70.1327 66.367 66.5327 66.367 66.5327C66.367 66.5327 69.9003 72.7327 68.767 75.466C67.667 78.1993 61.667 78.666 61.667 78.666L71.3003 82.7993Z" fill="#99ADF9"/>
<path d="M91.933 135.668L87.933 140.468C87.533 140.968 86.7664 141.034 86.2664 140.601C85.7664 140.201 85.6997 139.434 86.133 138.934C86.1664 138.901 86.233 138.834 86.2664 138.801L90.9997 134.701C91.2664 134.468 91.6997 134.501 91.933 134.768C92.1664 135.068 92.133 135.434 91.933 135.668Z" fill="#99ADF9"/>
<path d="M97.5 136.234L96.7001 145.968C96.6667 146.501 96.1667 146.901 95.6334 146.868C95.1 146.834 94.7001 146.334 94.7334 145.801V145.768L96.0334 136.068C96.1001 135.668 96.4667 135.401 96.8667 135.434C97.2667 135.501 97.5334 135.868 97.5 136.234Z" fill="#99ADF9"/>
<path d="M103.199 135.868L105.833 142.768C106.066 143.368 105.766 144.068 105.166 144.301C104.566 144.534 103.866 144.234 103.633 143.634C103.599 143.601 103.599 143.534 103.599 143.468L101.933 136.268C101.866 135.901 102.066 135.568 102.433 135.468C102.766 135.401 103.099 135.568 103.199 135.868Z" fill="#99ADF9"/>
<path d="M108.567 134.767L112.533 137.433C113.067 137.8 113.233 138.533 112.867 139.067C112.5 139.6 111.767 139.767 111.233 139.4C111.167 139.367 111.1 139.3 111.067 139.267L107.633 135.933C107.333 135.633 107.333 135.167 107.633 134.9C107.867 134.6 108.267 134.567 108.567 134.767Z" fill="#99ADF9"/>
<path d="M178.4 84.8673C176.433 91.0006 167.833 94.1339 167.833 94.1339C167.833 94.1339 167.933 94.0339 168.1 93.8673C169.333 92.4673 174.433 86.0006 170.066 77.6006C165.133 68.0673 148.833 71.3339 148.833 71.3339L148.466 68.9672L148.066 66.5006C148.066 66.5006 156.933 58.6006 168.9 63.1006C180.3 67.4006 180.366 78.7673 178.4 84.8673Z" fill="#FEC272"/>
<path d="M172.067 90.1999C171.133 91.6665 169.667 92.8999 168.133 93.8665C169.367 92.4665 174.467 85.9999 170.1 77.5999C165.167 68.0665 148.867 71.3332 148.867 71.3332L148.5 68.9665C152.033 68.4665 161.367 67.6665 167.7 71.3332C175.233 75.6999 175.2 85.2999 172.067 90.1999Z" fill="#FCAA51"/>
<path d="M151.7 78.834C151.534 84.134 150.667 88.734 149.467 91.4007C146.9 97.2007 145.1 100.501 141.334 103.434C139.934 104.534 138.267 105.567 136.167 106.667C128.467 110.701 107.5 110.967 107.5 110.967C106.667 111.034 105.834 111.101 105 111.134C97.3669 111.534 90.1669 110.701 85.7336 108.301C83.6669 107.201 82.2002 105.734 81.5669 103.934C79.4669 97.8007 78.7002 88.434 92.6336 64.7007C101.6 49.434 112.8 43.4007 123.4 43.4673C129.034 43.5007 134.467 45.2673 139.334 48.2673C139.534 48.4007 139.767 48.534 139.967 48.6673C149.367 54.734 152.034 68.2007 151.7 78.834Z" fill="#FEC272"/>
<path d="M123.4 43.4341C117.134 45.9675 107.5 52.2675 98.767 67.9341C87.667 87.8341 85.9337 102.534 85.7004 108.267C83.6337 107.167 82.167 105.701 81.5337 103.901C79.4337 97.7675 78.667 88.4008 92.6004 64.6675C101.634 49.4008 112.834 43.3675 123.4 43.4341Z" fill="#FFCB8D"/>
<path d="M151.7 78.8336C151.534 84.1336 150.667 88.7336 149.467 91.4003C145.934 99.3336 143.867 102.6 136.167 106.634C128.467 110.667 107.5 110.934 107.5 110.934C106.667 111 105.834 111.067 105 111.1C104.767 107.934 105.567 103.667 107.434 98.1003C113.1 81.1003 122.1 74.8336 132.267 72.867C141.034 71.2003 147.867 75.467 151.7 78.8336Z" fill="#FCAA51"/>
<path d="M151.701 78.8342C151.534 84.1342 150.667 88.7342 149.467 91.4009C146.901 97.2009 145.101 100.501 141.334 103.434C143.667 96.9676 145.901 88.0676 146.101 77.3342C146.334 63.1342 142.401 53.5009 139.334 48.2676C139.534 48.4009 139.767 48.5342 139.967 48.6676C149.367 54.7342 152.034 68.2009 151.701 78.8342Z" fill="#FCAA51"/>
<path d="M151.867 81.3002C151.334 87.5336 148.734 97.5336 146.3 104.167C145.334 106.8 144.4 108.934 143.6 110.034C142.267 111.934 139.667 112.767 137.067 112.934C134.334 113.134 131.567 112.667 130.3 111.967C127.967 110.734 122.167 100.1 123.467 88.5002C123.534 87.8002 123.634 87.1003 123.767 86.4003C126.1 74.0336 131.9 70.5669 140.7 71.5336C142.434 71.7336 144.267 72.0336 145.967 72.6336C149.5 73.9002 152.334 76.3002 151.867 81.3002Z" fill="#FEC272"/>
<path d="M146.3 104.167C145.334 106.8 144.4 108.933 143.6 110.033C140.867 113.933 132.8 113.3 130.3 112C127.967 110.767 122.167 100.133 123.467 88.5332C124.2 93.8999 126.867 101.433 135.767 103.367C140.067 104.333 143.534 104.467 146.3 104.167Z" fill="#FCAA51"/>
<path d="M151.866 81.2995C151.333 87.5328 148.733 97.5328 146.3 104.166C145.333 106.799 144.4 108.933 143.6 110.033C142.266 111.933 139.666 112.766 137.066 112.933C139.7 108.199 145.766 95.2995 146.066 77.2995C146.1 75.6995 146.066 74.1328 146 72.6328C149.5 73.8995 152.333 76.2995 151.866 81.2995Z" fill="#FCAA51"/>
<path d="M143.367 114.434C143.067 114.501 142.6 114.568 142.034 114.601C141.6 114.634 141.134 114.701 140.6 114.734C139.6 114.801 138.467 114.868 137.3 114.901C136.834 114.901 136.334 114.934 135.867 114.934C134.867 114.968 133.9 114.934 133 114.934C132.867 114.934 132.734 114.934 132.634 114.934C132.267 114.934 131.9 114.901 131.6 114.901C131.467 114.901 131.334 114.868 131.234 114.868C130.7 114.834 130.3 114.734 130 114.668C127.967 114.034 126.734 112.034 128.3 109.601C129.867 107.168 133.267 105.234 137.767 105.234C142.267 105.234 146.034 107.868 146.234 110.701C146.434 113.501 145.467 114.034 143.367 114.434Z" fill="#FEC272"/>
<path d="M137.334 110.468V114.901C136.867 114.901 136.367 114.934 135.9 114.934V110.468C135.9 110.068 136.234 109.734 136.6 109.734C136.967 109.734 137.334 110.068 137.334 110.468Z" fill="#FFA245"/>
<path d="M133.067 110.534V114.934C132.934 114.934 132.8 114.934 132.7 114.934C132.334 114.934 131.967 114.901 131.667 114.901V110.568C131.667 110.134 132 109.768 132.367 109.768C132.734 109.734 133.067 110.101 133.067 110.534Z" fill="#FFA245"/>
<path d="M142.067 110.468V114.601C141.634 114.634 141.167 114.701 140.634 114.734V110.468C140.634 110.068 140.967 109.734 141.334 109.734C141.7 109.734 142.067 110.068 142.067 110.468Z" fill="#FFA245"/>
<path d="M87.2999 88.4005C84.5666 94.1338 86.5332 108.067 84.5666 112.367C82.5999 116.667 77.2666 118.867 71.7999 118.767C71.1999 118.767 70.6332 118.667 70.0666 118.534C65.4666 117.4 62.1999 112.3 64.7666 106.267C67.6332 99.5004 74.4332 96.1005 77.2666 86.0671C79.8332 77.0671 83.4332 75.4671 87.0999 75.0671C88.3332 74.9338 89.0999 75.4671 89.5332 76.4338C90.6332 78.8671 89.2999 84.2671 87.2999 88.4005Z" fill="#FF8D76"/>
<path d="M87.3001 88.3999C84.5668 94.1332 86.5335 108.067 84.5668 112.367C82.6001 116.667 77.2668 118.867 71.8001 118.767C71.2001 118.767 70.6335 118.667 70.0668 118.533C69.3335 116.833 69.0335 114.3 70.0001 110.633C72.4335 101.433 77.1335 99.6999 78.0001 93.2332C78.9001 86.7666 79.0001 82.7665 81.3335 79.2665C83.4335 76.1332 88.4335 76.3332 89.5335 76.4332C90.6335 78.8665 89.3001 84.2666 87.3001 88.3999Z" fill="#FC7059"/>
<path d="M131 107.301C130.633 108.434 130.033 109.401 129.266 110.234C126.266 113.501 120.8 114.567 117.6 114.034C113.6 113.367 109.666 105.334 110.066 99.3672C110.466 93.4006 106.166 85.5672 105.1 81.6672C104.3 78.7672 104.433 76.5672 105.3 75.2339C105.6 74.7672 106 74.4006 106.466 74.1339C107.566 73.5672 111.633 71.8006 115.866 78.1339C120.066 84.5006 119.766 87.9006 124.466 92.6006C129.166 97.3339 132.766 101.734 131 107.301Z" fill="#FF8D76"/>
<path d="M129.299 110.233C126.299 113.5 120.833 114.567 117.633 114.033C113.633 113.367 109.699 105.333 110.099 99.3668C110.499 93.4001 106.199 85.5668 105.133 81.6668C104.333 78.7668 104.466 76.5668 105.333 75.2334C107.866 74.8668 111.866 75.2668 113.733 80.5001C116.599 88.4668 116.199 92.5668 120.633 96.4668C125.066 100.367 128.733 104.6 129.299 110.167C129.299 110.2 129.299 110.2 129.299 110.233Z" fill="#FC7059"/>
<path d="M123.734 112.799C123.3 116.466 121.367 118.933 116.934 120.499C110.3 122.833 104.134 119.733 101.7 119.333C99.2002 118.899 95.4336 121.299 91.6336 122.633C87.8336 123.999 80.7002 124.499 76.9002 120.733C74.9002 118.733 73.6002 115.899 73.3669 112.933C73.1336 110.333 73.7336 107.599 75.3336 105.199C78.7336 100.133 80.5336 95.1661 81.0669 85.3994C81.6002 75.6327 89.2002 71.6994 96.5002 71.0661C98.8002 70.8661 105.2 70.5327 110.067 74.8327C114.967 79.1327 114.567 87.9327 116.234 92.2327C117.9 96.5327 122.4 99.1661 123.467 106.499C123.834 108.933 123.967 110.999 123.734 112.799Z" fill="#FEC272"/>
<path d="M104.7 107.066C103.734 109.7 101.367 111.6 99.7671 111.6C98.1671 111.6 95.0671 110.066 93.5671 108.666C91.9671 107.166 91.8671 105.733 92.2338 104.766C92.2338 104.733 92.2671 104.666 92.3004 104.633C92.7337 103.7 95.3337 102.866 98.6004 102.433C101.1 102.1 103.934 102.033 104.6 102.466C104.767 102.6 104.934 102.766 105.067 103.033C105.4 103.8 105.434 105.133 104.7 107.066Z" fill="#FCAA51"/>
<path d="M123.734 112.799C123.301 116.465 121.367 118.932 116.934 120.499C110.301 122.832 104.134 119.732 101.701 119.332C99.2005 118.899 95.4339 121.299 91.6339 122.632C87.8339 123.999 80.7005 124.499 76.9005 120.732C74.9005 118.732 73.6005 115.899 73.3672 112.932C74.9339 115.499 78.2005 119.865 82.5005 120.599C88.6339 121.632 92.2672 116.165 100.767 116.165C111.701 116.165 112.501 120.332 119.334 116.765C121.234 115.732 122.667 114.299 123.734 112.799Z" fill="#FCAA51"/>
<path d="M104.5 116.599C104.434 117.332 104.334 118.166 104.1 118.999C103.467 121.332 100.867 122.766 98.7337 121.332C97.367 120.432 96.7003 118.366 96.4003 116.966C96.2337 116.132 96.167 115.566 96.167 115.566L100.234 111.232L104.567 114.232C104.534 114.232 104.6 115.266 104.5 116.599Z" fill="#FC7059"/>
<path d="M104.5 116.599C102.4 116.799 100.467 115.432 100.467 115.432C100.467 115.432 99.7003 116.232 98.067 116.832C97.5337 117.032 96.9337 117.066 96.4003 116.999C96.2337 116.166 96.167 115.599 96.167 115.599L100.234 111.266L104.567 114.266C104.534 114.232 104.6 115.266 104.5 116.599Z" fill="#F45145"/>
<path d="M87.3674 112.633C86.4007 113.733 88.7007 116.233 92.434 116.733C96.2007 117.233 99.7674 115.233 100.167 113.666C100.567 112.1 100.201 109.6 100.201 109.6H98.934C98.934 109.6 99.334 113.166 96.1007 114.6C91.1007 116.8 88.034 111.833 87.3674 112.633Z" fill="#1C3177"/>
<path d="M100.8 108.898C100.8 108.898 101.034 112.265 104.134 113.498C107.2 114.732 108.6 113.932 109.767 113.398C111.034 112.798 111.034 111.532 111.934 111.898C112.4 112.098 112.234 113.765 110.634 114.832C108.734 116.098 106.867 116.265 104.267 115.632C101.667 114.998 100.267 113.832 99.9337 112.398C99.6004 110.965 99.4004 109.332 99.4004 109.332L100.8 108.898Z" fill="#1C3177"/>
<path d="M104.7 105.566C103.734 108.2 101.367 110.1 99.7671 110.1C98.1671 110.1 95.0671 108.566 93.5671 107.166C91.9671 105.666 91.8671 104.233 92.2338 103.266C92.2338 103.233 92.2671 103.166 92.3004 103.133C92.7337 102.2 95.3337 101.366 98.6004 100.933C101.1 100.6 103.934 100.533 104.6 100.966C104.767 101.1 104.934 101.266 105.067 101.533C105.4 102.333 105.434 103.633 104.7 105.566Z" fill="#1C3177"/>
<path d="M104.7 105.567C103.734 108.2 101.367 110.1 99.7671 110.1C98.1671 110.1 95.0671 108.567 93.5671 107.167C91.9671 105.667 91.8671 104.233 92.2338 103.267C92.4004 103.267 92.5671 103.333 92.7338 103.533C93.5338 104.4 94.2337 106.267 97.1337 107.9C100.067 109.533 101.4 108.333 102.7 106.633C104 104.933 104.234 102 104.867 101.6C104.934 101.567 104.967 101.533 105.034 101.533C105.4 102.333 105.434 103.633 104.7 105.567Z" fill="#0B2359"/>
<path d="M87.4665 101.2C88.8104 101.2 89.8999 99.5882 89.8999 97.6C89.8999 95.6118 88.8104 94 87.4665 94C86.1226 94 85.0332 95.6118 85.0332 97.6C85.0332 99.5882 86.1226 101.2 87.4665 101.2Z" fill="#1C3177"/>
<path d="M109.281 99.4525C110.617 99.3125 111.533 97.5959 111.326 95.6184C111.119 93.6409 109.867 92.1513 108.531 92.2914C107.194 92.4314 106.278 94.148 106.485 96.1255C106.693 98.103 107.944 99.5925 109.281 99.4525Z" fill="#1C3177"/>
<path d="M85.7998 86.2657C84.4331 87.4324 83.6664 88.7657 83.2998 89.7657C82.8998 90.7324 83.3664 91.0991 84.5331 91.1324C85.6998 91.1657 87.6664 89.7324 88.7331 88.0657C89.7998 86.3657 87.8998 84.4324 85.7998 86.2657Z" fill="#FF8D76"/>
<path d="M109.133 84.1335C110.666 85.0668 111.6 86.3001 112.166 87.2001C112.733 88.1001 112.3 88.5335 111.166 88.7335C110 88.9335 107.866 87.8335 106.533 86.3668C105.2 84.9001 106.766 82.6668 109.133 84.1335Z" fill="#FF8D76"/>
<path d="M24.2998 157.1C22.7664 157.067 21.7664 157 21.5998 157C20.7331 156.934 20.0998 156.2 20.1331 155.334C20.1998 154.467 20.8998 153.8 21.7998 153.867C21.9664 153.867 33.5664 155.067 43.1331 151.134C46.6664 149.7 48.6331 148.4 48.9998 147.367C49.2664 146.6 48.6664 145.467 47.6664 143.667C47.3331 143.067 46.9664 142.434 46.5998 141.734C45.7998 140.167 45.7331 138.434 46.3998 136.767C48.5664 131.434 57.7331 127.9 60.4998 126.967C75.8664 121.7 87.4331 123.734 87.8998 123.834C88.7331 124 89.2998 124.8 89.1664 125.667C88.9997 126.534 88.1998 127.067 87.3331 126.934C87.2331 126.9 76.0331 124.967 61.4998 129.967C55.1664 132.134 50.3664 135.3 49.2664 137.967C48.9331 138.8 48.9664 139.567 49.3664 140.334C49.6998 140.967 50.0331 141.6 50.3664 142.167C51.5664 144.267 52.6664 146.267 51.9331 148.434C51.2331 150.5 48.9331 152.167 44.2998 154.067C36.4664 157.267 29.4998 157.234 24.2998 157.1Z" fill="#1C3177"/>
<path d="M84.6993 127.868C85.266 129.201 86.6327 130.034 88.8993 130.434C92.3327 131.034 94.5327 130.168 94.5327 130.168L94.466 128.901L93.9993 121.501C93.9993 121.501 91.066 121.101 87.9993 122.101C85.2993 123.001 84.1327 124.468 84.366 126.701C84.4327 127.101 84.5327 127.501 84.6993 127.868Z" fill="#F0F6FF"/>
<path d="M93.9504 121.43C93.2706 121.474 92.8442 123.475 92.998 125.9C93.1519 128.325 93.8276 130.256 94.5074 130.213C95.1872 130.17 95.6136 128.169 95.4598 125.744C95.3059 123.318 94.6302 121.387 93.9504 121.43Z" fill="#C2D7EF"/>
<path d="M84.6992 127.867C85.2659 129.201 86.6326 130.034 88.8992 130.434C92.3326 131.034 94.5326 130.167 94.5326 130.167L94.4659 128.901C93.1325 128.834 91.4325 128.734 89.7992 128.567C87.4659 128.267 85.7326 128.034 84.6992 127.867Z" fill="#C2D7EF"/>
<path d="M97.8995 124.567L94.8661 124.867C94.4661 124.901 94.0995 124.601 94.0661 124.201L94.0328 124.001C93.9995 123.601 94.2995 123.234 94.6995 123.201L97.7328 122.901C98.1995 122.867 98.5995 123.201 98.6328 123.634C98.6995 124.134 98.3661 124.534 97.8995 124.567Z" fill="#87AACC"/>
<path d="M98.1993 128.3L95.1659 128.6C94.7659 128.633 94.3993 128.333 94.3659 127.933L94.3326 127.733C94.2993 127.333 94.5993 126.966 94.9993 126.933L98.0326 126.633C98.4993 126.6 98.8993 126.933 98.9326 127.366C98.9993 127.866 98.6659 128.266 98.1993 128.3Z" fill="#87AACC"/>
<path d="M178.967 156.399C176.7 156.332 156.767 155.599 151 148.466C147.1 143.632 149.4 140.366 151.4 137.466C151.867 136.799 152.334 136.099 152.767 135.399C153.467 134.199 153.5 132.899 152.834 131.666C152.134 130.366 149.534 127.299 140.667 126.932C127.967 126.366 111.5 127.066 111.334 127.099C110.467 127.132 109.734 126.466 109.7 125.599C109.667 124.732 110.334 123.999 111.2 123.966C111.367 123.966 128 123.232 140.834 123.799C150.9 124.266 154.4 127.999 155.6 130.199C156.8 132.399 156.734 134.866 155.5 136.999C155.034 137.832 154.5 138.566 154 139.266C152.034 142.099 151.034 143.532 153.467 146.532C157.7 151.766 173.534 153.199 179.267 153.299C180.134 153.332 180.8 154.032 180.8 154.899C180.767 155.766 180.067 156.432 179.2 156.432C179.1 156.399 179.034 156.399 178.967 156.399Z" fill="#1C3177"/>
<path d="M113.367 126.599C112.901 127.966 111.634 128.933 109.401 129.499C106.034 130.366 103.767 129.666 103.767 129.666L103.734 128.399L103.601 120.999C103.601 120.999 106.501 120.333 109.601 121.099C112.367 121.766 113.634 123.133 113.601 125.399C113.567 125.833 113.501 126.233 113.367 126.599Z" fill="#F0F6FF"/>
<path d="M113.367 126.6C112.9 127.966 111.633 128.933 109.4 129.5C106.033 130.366 103.767 129.666 103.767 129.666L103.733 128.4C105.067 128.233 106.733 128 108.367 127.666C110.667 127.233 112.333 126.866 113.367 126.6Z" fill="#C2D7EF"/>
<path d="M103.778 129.729C104.459 129.716 104.975 127.736 104.93 125.307C104.885 122.877 104.297 120.918 103.616 120.93C102.935 120.943 102.419 122.923 102.464 125.352C102.509 127.782 103.097 129.741 103.778 129.729Z" fill="#C2D7EF"/>
<path d="M103.691 125.029C103.857 125.026 103.979 124.367 103.964 123.557C103.949 122.747 103.803 122.093 103.637 122.096C103.471 122.099 103.349 122.758 103.364 123.568C103.379 124.378 103.525 125.032 103.691 125.029Z" fill="#87AACC"/>
<path d="M103.691 128.83C103.857 128.827 103.979 128.168 103.964 127.358C103.949 126.548 103.803 125.894 103.637 125.897C103.471 125.9 103.349 126.559 103.364 127.369C103.379 128.179 103.525 128.833 103.691 128.83Z" fill="#87AACC"/>
<path d="M82.5333 126.168C82.5333 126.434 82.5333 126.701 82.4999 126.934C82.3333 128.634 81.4999 129.868 79.6999 130.701C79.1999 130.934 78.5999 131.134 77.8999 131.268C76.6999 131.568 75.1999 131.734 73.3999 131.834C72.9999 131.868 72.5666 131.868 72.0999 131.868C71.7666 131.868 71.4666 131.868 71.1332 131.868C69.9999 131.868 68.9333 131.834 67.9333 131.768C67.2666 131.701 66.5999 131.601 66.0333 131.501C63.5666 130.968 61.9666 129.801 61.6666 127.501C61.8666 129.201 58.2666 118.134 72.0333 116.834C78.3999 116.201 82.5333 122.368 82.5333 126.168Z" fill="#FCAA51"/>
<path d="M82.5333 126.167C82.5333 126.434 82.5333 126.7 82.4999 126.934C81.1666 128.734 78.0333 129.601 72.0333 129.701C67.2666 129.801 63.4333 129.467 61.6666 127.467C61.8666 129.167 58.2666 118.101 72.0333 116.801C78.3999 116.201 82.5333 122.367 82.5333 126.167Z" fill="#FEC272"/>
<path d="M67.9333 131.767C67.2666 131.701 66.6 131.601 66.0333 131.501C65.9333 130.601 65.7333 128.434 65.9 126.634C66.1333 124.267 67.0333 124.134 67.3 124.567C67.5666 125.001 67.4 127.534 67.7 129.867C67.7666 130.534 67.8666 131.201 67.9333 131.767Z" fill="#FFA245"/>
<path d="M79.6998 130.7C79.1998 130.933 78.5997 131.133 77.8997 131.266C77.8331 130.633 77.7664 129.866 77.6664 129.066C77.3997 126.733 76.6331 124.3 76.7664 123.833C76.8997 123.366 77.8331 123.266 78.5997 125.533C79.3664 127.633 79.6664 130.333 79.6998 130.7Z" fill="#FFA245"/>
<path d="M73.4003 131.833C73.0003 131.866 72.567 131.866 72.1003 131.866C71.767 131.866 71.467 131.866 71.1337 131.866C71.1337 130.966 71.1003 129.766 71.0337 128.666C70.9337 126.5 70.867 125.1 71.5337 124.966C72.2003 124.833 72.9003 127.233 73.2003 129.766C73.3003 130.633 73.367 131.3 73.4003 131.833Z" fill="#FFA245"/>
<path d="M115.5 124.433C115.5 124.699 115.533 124.966 115.567 125.199C115.767 126.899 116.6 128.133 118.4 128.899C118.933 129.133 119.533 129.299 120.2 129.466C121.4 129.733 122.9 129.899 124.7 129.966C125.1 129.966 125.533 129.999 126 129.999C126.333 129.999 126.633 129.999 126.966 129.999C128.1 129.999 129.166 129.966 130.166 129.833C130.833 129.766 131.467 129.666 132.066 129.533C134.5 128.966 136.1 127.799 136.366 125.466C136.8 121.533 132.233 115.466 125.866 114.933C119.5 114.399 115.433 120.599 115.5 124.433Z" fill="#FCAA51"/>
<path d="M115.5 124.433C115.5 124.699 115.533 124.966 115.567 125.199C116.933 126.999 120.067 127.799 126.067 127.833C130.833 127.866 134.667 127.466 136.4 125.466C136.833 121.533 132.267 115.466 125.9 114.933C119.5 114.399 115.433 120.599 115.5 124.433Z" fill="#FEC272"/>
<path d="M130.166 129.832C130.833 129.765 131.466 129.665 132.066 129.532C132.166 128.632 132.333 126.465 132.133 124.665C131.866 122.299 130.966 122.165 130.699 122.599C130.466 123.032 130.666 125.565 130.399 127.899C130.333 128.599 130.233 129.232 130.166 129.832Z" fill="#FFA245"/>
<path d="M118.399 128.899C118.933 129.132 119.533 129.299 120.199 129.465C120.233 128.832 120.299 128.065 120.399 127.265C120.633 124.932 121.366 122.499 121.199 122.032C121.066 121.565 120.133 121.465 119.366 123.732C118.699 125.832 118.433 128.532 118.399 128.899Z" fill="#FFA245"/>
<path d="M124.7 129.932C125.1 129.932 125.534 129.966 126 129.966C126.334 129.966 126.634 129.966 126.967 129.966C126.967 129.066 126.967 127.866 127 126.766C127.067 124.599 127.1 123.199 126.467 123.066C125.8 122.932 125.134 125.366 124.867 127.899C124.767 128.766 124.734 129.432 124.7 129.932Z" fill="#FFA245"/>
</svg>
