<svg width="16" height="16" viewBox="0 0 16 16" fill="none" xmlns="http://www.w3.org/2000/svg">
<path fill-rule="evenodd" clip-rule="evenodd" d="M7.0692 0.955753C6.77192 0.988065 6.61683 1.29826 6.6556 1.58907C6.77192 2.33871 6.53281 3.0108 6.02228 3.22406C5.50529 3.43732 4.86551 3.12712 4.41314 2.51319C4.23866 2.28055 3.90908 2.17715 3.67643 2.3581C3.17882 2.73938 2.73938 3.17882 2.3581 3.67643C2.17715 3.90908 2.28055 4.23866 2.51319 4.41314C3.13359 4.86551 3.43732 5.51175 3.22406 6.02228C3.0108 6.53928 2.33871 6.77192 1.58907 6.6556C1.29826 6.61036 0.988065 6.77192 0.94929 7.0692C0.868466 7.68695 0.868466 8.31261 0.94929 8.93037C0.988065 9.22764 1.29826 9.38274 1.58907 9.34396C2.33871 9.22764 3.0108 9.46675 3.22406 9.97728C3.43732 10.4943 3.13359 11.1341 2.51319 11.5864C2.28055 11.7609 2.17715 12.0905 2.3581 12.3231C2.73938 12.8207 3.17882 13.2602 3.67643 13.6415C3.90908 13.8224 4.23866 13.719 4.41314 13.4864C4.86551 12.8724 5.51175 12.5622 6.02228 12.7755C6.53928 12.9888 6.77192 13.6609 6.6556 14.4105C6.61036 14.7013 6.77192 15.0115 7.0692 15.0503C7.68695 15.1311 8.31261 15.1311 8.93037 15.0503C9.22764 15.0115 9.38274 14.7013 9.34396 14.4105C9.22764 13.6609 9.46675 12.9888 9.97728 12.7755C10.4943 12.5622 11.1341 12.866 11.5864 13.4864C11.7609 13.719 12.0905 13.8224 12.3231 13.6415C12.8207 13.2602 13.2602 12.8207 13.6415 12.3231C13.8224 12.0905 13.719 11.7609 13.4864 11.5864C12.866 11.1341 12.5622 10.4878 12.7755 9.97728C12.9888 9.46029 13.6609 9.22764 14.4105 9.34396C14.7013 9.3892 15.0115 9.22764 15.0503 8.93037C15.1311 8.31261 15.1311 7.68695 15.0503 7.0692C15.0115 6.77192 14.7013 6.61683 14.4105 6.6556C13.6609 6.77192 12.9888 6.53281 12.7755 6.02228C12.5622 5.50529 12.866 4.86551 13.4864 4.41314C13.719 4.23866 13.8224 3.90908 13.6415 3.67643C13.2614 3.18136 12.8182 2.73815 12.3231 2.3581C12.0905 2.17715 11.7609 2.28055 11.5864 2.51319C11.1341 3.13359 10.4878 3.43732 9.97728 3.22406C9.46029 3.0108 9.22764 2.33871 9.34396 1.58907C9.3892 1.29826 9.22764 0.988065 8.93037 0.94929C8.31261 0.868466 7.68695 0.868466 7.0692 0.94929V0.955753ZM10.5847 7.99978C10.5847 8.68536 10.3124 9.34285 9.82763 9.82763C9.34285 10.3124 8.68536 10.5847 7.99978 10.5847C7.31421 10.5847 6.65671 10.3124 6.17194 9.82763C5.68716 9.34285 5.41482 8.68536 5.41482 7.99978C5.41482 7.31421 5.68716 6.65671 6.17194 6.17194C6.65671 5.68716 7.31421 5.41482 7.99978 5.41482C8.68536 5.41482 9.34285 5.68716 9.82763 6.17194C10.3124 6.65671 10.5847 7.31421 10.5847 7.99978Z" fill="#CED0D6"/>
</svg>
