<svg width="18" height="18" viewBox="0 0 18 18" fill="none" xmlns="http://www.w3.org/2000/svg">
<path d="M5.125 2.875C5.125 1.83947 5.96447 1 7 1C8.03552 1 8.875 1.83947 8.875 2.875V4H9.625C10.6733 4 11.1975 4 11.6111 4.17127C12.1623 4.39963 12.6004 4.83765 12.8287 5.38896C13 5.80245 13 6.32664 13 7.375H14.125C15.1605 7.375 16 8.21448 16 9.25C16 10.2855 15.1605 11.125 14.125 11.125H13V12.4C13 13.6602 13 14.2901 12.7548 14.7715C12.5391 15.1949 12.1949 15.5391 11.7715 15.7548C11.2901 16 10.6601 16 9.4 16H8.875V14.6875C8.875 13.7556 8.11945 13 7.1875 13C6.25552 13 5.5 13.7556 5.5 14.6875V16H4.6C3.33988 16 2.70982 16 2.22852 15.7548C1.80516 15.5391 1.46095 15.1949 1.24524 14.7715C1 14.2901 1 13.6602 1 12.4V11.125H2.125C3.16053 11.125 4 10.2855 4 9.25C4 8.21448 3.16053 7.375 2.125 7.375H1C1 6.32664 1 5.80245 1.17127 5.38896C1.39963 4.83765 1.83765 4.39963 2.38896 4.17127C2.80244 4 3.32664 4 4.375 4H5.125V2.875Z" stroke="#383A42" stroke-width="1.2" stroke-linecap="round" stroke-linejoin="round"/>
</svg>
