<svg width="16" height="16" viewBox="0 0 16 16" fill="none" xmlns="http://www.w3.org/2000/svg">
<path d="M5.99707 8C7.43367 8.00003 8.46819 8.41218 9.21289 9H8.5C8.1843 9.00001 7.89107 9.0971 7.64941 9.26367C7.20065 9.10028 6.65787 9.00002 5.99707 9C4.48691 9 3.59447 9.52355 3.03223 10.1279C2.5035 10.6963 2.20883 11.401 2.04883 12H10V13H1.90137C1.33961 13 0.897398 12.5368 1.02148 11.9893C1.3527 10.5284 2.43956 8 5.99707 8ZM14.9785 11.9873C15.1037 12.5353 14.661 13 14.0986 13H13V12H14.5C14.6617 12 14.817 11.9731 14.9629 11.9258C14.9679 11.9466 14.9739 11.9669 14.9785 11.9873ZM13 8.84375C13.0733 8.89452 13.1446 8.94609 13.2129 9H13V8.84375ZM10 8V8.35352C9.86105 8.2342 9.71393 8.12075 9.55859 8.01367C9.70033 8.0049 9.84663 8 9.99707 8H10ZM6 2C7.38071 2 8.5 3.11929 8.5 4.5C8.5 5.88071 7.38071 7 6 7C4.6193 6.99999 3.5 5.8807 3.5 4.5C3.5 3.1193 4.6193 2.00001 6 2ZM10 2C11.3807 2.00003 12.5 3.11931 12.5 4.5C12.5 5.09373 12.291 5.63757 11.9453 6.06641C11.8047 6.02277 11.655 6 11.5 6C10.8488 6.00001 10.2953 6.41521 10.0879 6.99512C10.0587 6.99613 10.0295 7 10 7C9.54457 7 9.11775 6.87781 8.75 6.66504C8.95576 6.40404 9.12557 6.11317 9.25098 5.7998C9.47139 5.92708 9.72719 6 10 6C10.8284 5.99997 11.5 5.32841 11.5 4.5C11.5 3.67159 10.8284 3.00003 10 3C9.72719 3 9.47139 3.07292 9.25098 3.2002C9.12557 2.88683 8.95576 2.59596 8.75 2.33496C9.11775 2.12219 9.54457 2 10 2ZM6 3C5.17158 3.00001 4.5 3.67158 4.5 4.5C4.5 5.32842 5.17158 5.99999 6 6C6.82843 6 7.5 5.32843 7.5 4.5C7.5 3.67157 6.82843 3 6 3Z" fill="#3574F0"/>
<path fill-rule="evenodd" clip-rule="evenodd" d="M11.5 7C11.7761 7 12 7.22386 12 7.5V10H14.5C14.7761 10 15 10.2239 15 10.5C15 10.7761 14.7761 11 14.5 11H12V13.5C12 13.7761 11.7761 14 11.5 14C11.2239 14 11 13.7761 11 13.5V11H8.5C8.22386 11 8 10.7761 8 10.5C8 10.2239 8.22386 10 8.5 10H11V7.5C11 7.22386 11.2239 7 11.5 7Z" fill="#3574F0"/>
</svg>
