<svg width="16" height="16" viewBox="0 0 16 16" fill="none" xmlns="http://www.w3.org/2000/svg">
<g id="Theme = Light">
<path id="Subtract" d="M5.99658 8C7.43308 8 8.4677 8.41228 9.2124 9H8.50049C8.18478 9 7.89156 9.0971 7.6499 9.26367C7.20101 9.10017 6.65767 9 5.99658 9C4.48662 9.00007 3.59395 9.52359 3.03174 10.1279C2.50315 10.6962 2.20832 11.4011 2.04834 12H10.0005V13H1.90088C1.33922 12.9999 0.897001 12.5367 1.021 11.9893C1.3522 10.5284 2.43932 8.00015 5.99658 8ZM14.979 11.9873C15.1042 12.5352 14.6614 12.9999 14.0991 13H13.0005V12H14.5005C14.6622 12 14.8175 11.9732 14.9634 11.9258C14.9683 11.9466 14.9743 11.9669 14.979 11.9873ZM13.0005 8.84375C13.0735 8.89438 13.1443 8.94626 13.2124 9H13.0005V8.84375ZM10.0005 8V8.35449C9.86141 8.23503 9.71458 8.12088 9.55908 8.01367C9.70061 8.00492 9.84638 8 9.99658 8C9.9978 8 9.99927 8 10.0005 8ZM6.00049 2C7.38099 2.00025 8.50049 3.11944 8.50049 4.5C8.50049 5.88056 7.38099 6.99975 6.00049 7C4.61978 7 3.50049 5.88071 3.50049 4.5C3.50049 3.11929 4.61978 2 6.00049 2ZM9.99951 2C11.3802 2 12.4995 3.11929 12.4995 4.5C12.4995 5.09362 12.2914 5.63761 11.9458 6.06641C11.8052 6.02274 11.6554 6.00005 11.5005 6C10.8493 6 10.2957 6.41521 10.0884 6.99512C10.059 6.99614 10.0292 7 9.99951 7C9.54425 6.99992 9.11715 6.87774 8.74951 6.66504C8.95533 6.40401 9.12505 6.11322 9.25049 5.7998C9.47085 5.92712 9.72674 5.99992 9.99951 6C10.8279 6 11.4995 5.32843 11.4995 4.5C11.4995 3.67157 10.8279 3 9.99951 3C9.72674 3.00008 9.47085 3.07288 9.25049 3.2002C9.12505 2.88678 8.95533 2.59599 8.74951 2.33496C9.11715 2.12226 9.54425 2.00008 9.99951 2ZM6.00049 3C5.17206 3 4.50049 3.67157 4.50049 4.5C4.50049 5.32843 5.17206 6 6.00049 6C6.8287 5.99975 7.50049 5.32827 7.50049 4.5C7.50049 3.67173 6.8287 3.00025 6.00049 3Z" fill="#3574F0"/>
<path id="Vector 420" fill-rule="evenodd" clip-rule="evenodd" d="M11.5 7C11.7761 7 12 7.22386 12 7.5V10H14.5C14.7761 10 15 10.2239 15 10.5C15 10.7761 14.7761 11 14.5 11H12V13.5C12 13.7761 11.7761 14 11.5 14C11.2239 14 11 13.7761 11 13.5V11H8.5C8.22386 11 8 10.7761 8 10.5C8 10.2239 8.22386 10 8.5 10H11V7.5C11 7.22386 11.2239 7 11.5 7Z" fill="#3574F0"/>
</g>
</svg>
