<svg width="18" height="18" viewBox="0 0 18 18" fill="none" xmlns="http://www.w3.org/2000/svg">
<path d="M4.25 2V11M4.25 11C3.00736 11 2 12.0073 2 13.25C2 14.4927 3.00736 15.5 4.25 15.5C5.49264 15.5 6.5 14.4927 6.5 13.25M4.25 11C5.49264 11 6.5 12.0073 6.5 13.25M6.5 13.25C8.29017 13.25 10.0071 12.5389 11.273 11.273C12.5389 10.0071 13.25 8.29017 13.25 6.5M13.25 6.5C14.4927 6.5 15.5 5.49264 15.5 4.25C15.5 3.00736 14.4927 2 13.25 2C12.0073 2 11 3.00736 11 4.25C11 5.49264 12.0073 6.5 13.25 6.5Z" stroke="#383A42" stroke-width="1.2" stroke-linecap="round" stroke-linejoin="round"/>
</svg>
