<svg width="24" height="16" viewBox="0 0 24 16" fill="none" xmlns="http://www.w3.org/2000/svg">
<path d="M7.61266 12.9183C7.53755 12.9183 7.5 12.8684 7.5 12.7685V4.14977C7.5 4.04992 7.53755 4 7.61266 4H9.15228C9.9367 4 10.5125 4.23147 10.8797 4.6944C11.2552 5.15734 11.4429 5.88351 11.4429 6.87292C11.4429 7.78971 11.251 8.49319 10.8672 8.98336C10.4916 9.47353 9.9367 9.71861 9.20235 9.71861H8.81432V12.7685C8.81432 12.8684 8.77676 12.9183 8.70166 12.9183H7.61266ZM8.81432 8.42511H9.15228C9.49442 8.42511 9.74059 8.29803 9.8908 8.04387C10.0494 7.78971 10.1286 7.40393 10.1286 6.88654C10.1286 6.31467 10.0494 5.9062 9.8908 5.66112C9.74059 5.41604 9.50277 5.2935 9.17732 5.2935H8.81432V8.42511Z" fill="#548AF7"/>
<path d="M14.4331 13C13.6821 13 13.123 12.7549 12.7558 12.2648C12.397 11.7655 12.2176 11.0166 12.2176 10.0182V4.13616C12.2176 4.04539 12.2551 4 12.3302 4H13.4192C13.4943 4 13.5319 4.04539 13.5319 4.13616V9.97731C13.5319 10.5946 13.6028 11.0348 13.7447 11.298C13.8865 11.5613 14.116 11.6929 14.4331 11.6929C14.7586 11.6929 14.9922 11.5658 15.1341 11.3116C15.2759 11.0484 15.3469 10.6036 15.3469 9.97731V4.13616C15.3469 4.04539 15.3844 4 15.4595 4H16.5485C16.6236 4 16.6612 4.04539 16.6612 4.13616V10.0182C16.6612 11.0166 16.4734 11.7655 16.0979 12.2648C15.7307 12.7549 15.1758 13 14.4331 13Z" fill="#548AF7"/>
<path d="M18.8839 12.9183C18.8088 12.9183 18.7712 12.8684 18.7712 12.7685V5.2935H17.4694C17.386 5.2935 17.3443 5.24357 17.3443 5.14372V4.14977C17.3443 4.04992 17.386 4 17.4694 4H21.3873C21.4624 4 21.5 4.04992 21.5 4.14977V5.14372C21.5 5.24357 21.4624 5.2935 21.3873 5.2935H20.0855V12.7685C20.0855 12.8684 20.0438 12.9183 19.9604 12.9183H18.8839Z" fill="#548AF7"/>
</svg>
