<svg width="24" height="16" viewBox="0 0 24 16" fill="none" xmlns="http://www.w3.org/2000/svg">
<path d="M9.42491 13C8.79585 13 8.31777 12.7706 7.99066 12.3118C7.66355 11.8531 7.5 11.1559 7.5 10.2204V6.90105C7.5 5.95652 7.69291 5.23688 8.07873 4.74213C8.47294 4.24738 9.03909 4 9.77718 4C10.532 4 11.1024 4.25637 11.4882 4.76912C11.874 5.28186 12.0376 5.97901 11.9789 6.86057C11.9705 6.95952 11.9327 7.009 11.8656 7.009L10.7711 6.9955C10.6956 6.9955 10.662 6.95052 10.6704 6.86057C10.7124 6.36582 10.6579 5.98351 10.5069 5.71364C10.3559 5.43478 10.1169 5.29535 9.78976 5.29535C9.45426 5.29535 9.20683 5.42579 9.04747 5.68666C8.88811 5.94753 8.80843 6.35682 8.80843 6.91454V10.1124C8.80843 10.6882 8.87553 11.0975 9.00973 11.3403C9.15232 11.5832 9.39555 11.7046 9.73943 11.7046C10.0582 11.7046 10.3014 11.5697 10.4691 11.2998C10.6369 11.021 10.7208 10.6027 10.7208 10.045V9.43778H9.85266C9.77718 9.43778 9.73943 9.38831 9.73943 9.28935V8.49325C9.73943 8.3943 9.77718 8.34483 9.85266 8.34483H11.8908C11.9663 8.34483 12.004 8.3943 12.004 8.49325V10.9625C12.004 11.3943 12.0082 11.7496 12.0166 12.0285C12.0334 12.2984 12.0544 12.5412 12.0795 12.7571C12.0963 12.8651 12.0627 12.919 11.9789 12.919H11.1234C11.0479 12.919 11.0059 12.8786 10.9975 12.7976C10.9808 12.6897 10.964 12.5637 10.9472 12.4198C10.9388 12.2669 10.9346 12.0825 10.9346 11.8666H10.9095C10.7837 12.2174 10.6033 12.4963 10.3685 12.7031C10.1336 12.901 9.81911 13 9.42491 13Z" fill="#5FAD65"/>
<path d="M13.243 12.919C13.1591 12.919 13.1172 12.8696 13.1172 12.7706V4.22938C13.1172 4.13043 13.1549 4.08096 13.2304 4.08096H16.577C16.6524 4.08096 16.6902 4.13043 16.6902 4.22938V5.21439C16.6902 5.31334 16.6524 5.36282 16.577 5.36282H14.4382V7.81859H16.3882C16.4637 7.81859 16.5015 7.86807 16.5015 7.96702V8.89805C16.5015 8.997 16.4637 9.04648 16.3882 9.04648H14.4382V11.6372H16.577C16.6524 11.6372 16.6902 11.6867 16.6902 11.7856V12.7706C16.6902 12.8696 16.6524 12.919 16.577 12.919H13.243Z" fill="#5FAD65"/>
<path d="M18.8706 12.919C18.7951 12.919 18.7573 12.8696 18.7573 12.7706V5.36282H17.4489C17.365 5.36282 17.3231 5.31334 17.3231 5.21439V4.22938C17.3231 4.13043 17.365 4.08096 17.4489 4.08096H21.3868C21.4623 4.08096 21.5 4.13043 21.5 4.22938V5.21439C21.5 5.31334 21.4623 5.36282 21.3868 5.36282H20.0783V12.7706C20.0783 12.8696 20.0364 12.919 19.9525 12.919H18.8706Z" fill="#5FAD65"/>
</svg>
