<svg width="18" height="18" viewBox="0 0 18 18" fill="none" xmlns="http://www.w3.org/2000/svg">
<path fill-rule="evenodd" clip-rule="evenodd" d="M7.95309 1.07547C7.61866 1.11182 7.44417 1.46079 7.4878 1.78795C7.61866 2.63129 7.34966 3.38739 6.77531 3.62731C6.1937 3.86723 5.47395 3.51826 4.96503 2.82759C4.76874 2.56586 4.39795 2.44954 4.13623 2.6531C3.57642 3.08205 3.08205 3.57642 2.6531 4.13623C2.44954 4.39795 2.56586 4.76874 2.82759 4.96503C3.52553 5.47395 3.86723 6.20097 3.62731 6.77531C3.38739 7.35693 2.63129 7.61866 1.78795 7.4878C1.46079 7.4369 1.11182 7.61866 1.0682 7.95309C0.977268 8.64807 0.977268 9.35193 1.0682 10.0469C1.11182 10.3813 1.46079 10.5558 1.78795 10.5122C2.63129 10.3813 3.38739 10.6503 3.62731 11.2247C3.86723 11.8063 3.52553 12.5261 2.82759 13.035C2.56586 13.2313 2.44954 13.602 2.6531 13.8638C3.08205 14.4236 3.57642 14.918 4.13623 15.3469C4.39795 15.5505 4.76874 15.4341 4.96503 15.1724C5.47395 14.4817 6.20097 14.1328 6.77531 14.3727C7.35693 14.6126 7.61866 15.3687 7.4878 16.2121C7.4369 16.5392 7.61866 16.8882 7.95309 16.9318C8.64807 17.0227 9.35193 17.0227 10.0469 16.9318C10.3813 16.8882 10.5558 16.5392 10.5122 16.2121C10.3813 15.3687 10.6503 14.6126 11.2247 14.3727C11.8063 14.1328 12.5261 14.4745 13.035 15.1724C13.2313 15.4341 13.602 15.5505 13.8638 15.3469C14.4236 14.918 14.918 14.4236 15.3469 13.8638C15.5505 13.602 15.4341 13.2313 15.1724 13.035C14.4745 12.5261 14.1328 11.799 14.3727 11.2247C14.6126 10.6431 15.3687 10.3813 16.2121 10.5122C16.5392 10.5631 16.8882 10.3813 16.9318 10.0469C17.0227 9.35193 17.0227 8.64807 16.9318 7.95309C16.8882 7.61866 16.5392 7.44417 16.2121 7.4878C15.3687 7.61866 14.6126 7.34966 14.3727 6.77531C14.1328 6.1937 14.4745 5.47395 15.1724 4.96503C15.4341 4.76874 15.5505 4.39795 15.3469 4.13623C14.9193 3.57927 14.4207 3.08066 13.8638 2.6531C13.602 2.44954 13.2313 2.56586 13.035 2.82759C12.5261 3.52553 11.799 3.86723 11.2247 3.62731C10.6431 3.38739 10.3813 2.63129 10.5122 1.78795C10.5631 1.46079 10.3813 1.11182 10.0469 1.0682C9.35193 0.977268 8.64807 0.977268 7.95309 1.0682V1.07547ZM11.9081 9C11.9081 9.77127 11.6017 10.511 11.0563 11.0563C10.511 11.6017 9.77127 11.9081 9 11.9081C8.22873 11.9081 7.48904 11.6017 6.94367 11.0563C6.3983 10.511 6.09191 9.77127 6.09191 9C6.09191 8.22873 6.3983 7.48904 6.94367 6.94367C7.48904 6.3983 8.22873 6.09191 9 6.09191C9.77127 6.09191 10.511 6.3983 11.0563 6.94367C11.6017 7.48904 11.9081 8.22873 11.9081 9Z" fill="#CED0D6"/>
</svg>
