<svg xmlns="http://www.w3.org/2000/svg" width="18" height="18" fill="none" viewBox="0 0 18 18"><g stroke="#5a5d6b" stroke-linecap="round" stroke-linejoin="round" stroke-width="1.2" clip-path="url(#a)"><path d="M9 11.25a2.25 2.25 0 1 0 0-4.5 2.25 2.25 0 0 0 0 4.5"/><path d="M14.05 11.05a1.1 1.1 0 0 0 .22 1.24l.04.04a1.36 1.36 0 1 1-1.93 1.93l-.04-.04a1.1 1.1 0 0 0-1.24-.23 1.1 1.1 0 0 0-.68 1.03v.12a1.36 1.36 0 1 1-2.73 0v-.07a1.1 1.1 0 0 0-.74-1.02 1.1 1.1 0 0 0-1.24.22l-.04.04a1.36 1.36 0 1 1-1.93-1.93l.04-.04a1.1 1.1 0 0 0 .23-1.24 1.1 1.1 0 0 0-1.03-.68h-.12a1.36 1.36 0 1 1 0-2.73h.06a1.1 1.1 0 0 0 1.03-.74 1.1 1.1 0 0 0-.22-1.24l-.04-.04a1.36 1.36 0 1 1 1.93-1.93l.04.04a1.1 1.1 0 0 0 1.24.23h.05a1.1 1.1 0 0 0 .69-1.03v-.12a1.36 1.36 0 0 1 2.72 0v.06a1.1 1.1 0 0 0 .69 1.03 1.1 1.1 0 0 0 1.24-.22l.04-.04a1.36 1.36 0 1 1 1.93 1.93l-.04.04a1.1 1.1 0 0 0-.23 1.24v.05a1.1 1.1 0 0 0 1.03.69h.12a1.36 1.36 0 0 1 0 2.72h-.07a1.1 1.1 0 0 0-1.02.69"/></g><defs><clipPath id="a"><path fill="#fff" d="M0 0h18v18H0z"/></clipPath></defs></svg>